<mxfile host="65bd71144e">
    <diagram name="Page-1" id="2qxG0ztBPJsDjqt-znGh">
        <mxGraphModel dx="1991" dy="1608" grid="1" gridSize="10" guides="1" tooltips="1" connect="1" arrows="1" fold="1" page="1" pageScale="1" pageWidth="850" pageHeight="1100" math="0" shadow="0">
            <root>
                <mxCell id="0"/>
                <mxCell id="1" parent="0"/>
                <mxCell id="ihkdVbjDrNtI75KqLu5v-4" value="METADATA" style="edgeStyle=orthogonalEdgeStyle;rounded=0;orthogonalLoop=1;jettySize=auto;html=1;entryX=0;entryY=0.5;entryDx=0;entryDy=0;" parent="1" source="ihkdVbjDrNtI75KqLu5v-1" target="ihkdVbjDrNtI75KqLu5v-3" edge="1">
                    <mxGeometry relative="1" as="geometry"/>
                </mxCell>
                <mxCell id="ihkdVbjDrNtI75KqLu5v-5" value="DATA" style="edgeStyle=orthogonalEdgeStyle;rounded=0;orthogonalLoop=1;jettySize=auto;html=1;entryX=0;entryY=0.5;entryDx=0;entryDy=0;" parent="1" source="ihkdVbjDrNtI75KqLu5v-1" target="ihkdVbjDrNtI75KqLu5v-2" edge="1">
                    <mxGeometry relative="1" as="geometry"/>
                </mxCell>
                <mxCell id="ihkdVbjDrNtI75KqLu5v-1" value="XArray" style="rounded=1;whiteSpace=wrap;html=1;fillColor=#d5e8d4;strokeColor=#82b366;shadow=1;" parent="1" vertex="1">
                    <mxGeometry x="270" y="210" width="120" height="60" as="geometry"/>
                </mxCell>
                <mxCell id="ihkdVbjDrNtI75KqLu5v-2" value="XArray OpenVisus Backend" style="rounded=1;whiteSpace=wrap;html=1;fillColor=#d5e8d4;strokeColor=#82b366;shadow=1;" parent="1" vertex="1">
                    <mxGeometry x="380" y="320" width="120" height="60" as="geometry"/>
                </mxCell>
                <mxCell id="ihkdVbjDrNtI75KqLu5v-3" value="HDF5" style="rounded=1;whiteSpace=wrap;html=1;fillColor=#d5e8d4;strokeColor=#82b366;shadow=1;" parent="1" vertex="1">
                    <mxGeometry x="480" y="210" width="120" height="60" as="geometry"/>
                </mxCell>
                <mxCell id="ihkdVbjDrNtI75KqLu5v-7" style="edgeStyle=orthogonalEdgeStyle;rounded=0;orthogonalLoop=1;jettySize=auto;html=1;entryX=0.5;entryY=0;entryDx=0;entryDy=0;" parent="1" source="ihkdVbjDrNtI75KqLu5v-6" target="ihkdVbjDrNtI75KqLu5v-3" edge="1">
                    <mxGeometry relative="1" as="geometry"/>
                </mxCell>
                <mxCell id="ihkdVbjDrNtI75KqLu5v-6" value="h5py" style="rounded=1;whiteSpace=wrap;html=1;fillColor=#d5e8d4;strokeColor=#82b366;shadow=1;" parent="1" vertex="1">
                    <mxGeometry x="480" y="90" width="120" height="60" as="geometry"/>
                </mxCell>
                <mxCell id="ihkdVbjDrNtI75KqLu5v-21" style="edgeStyle=orthogonalEdgeStyle;rounded=0;orthogonalLoop=1;jettySize=auto;html=1;" parent="1" source="ihkdVbjDrNtI75KqLu5v-8" target="ihkdVbjDrNtI75KqLu5v-6" edge="1">
                    <mxGeometry relative="1" as="geometry"/>
                </mxCell>
                <mxCell id="ihkdVbjDrNtI75KqLu5v-31" style="edgeStyle=orthogonalEdgeStyle;rounded=0;orthogonalLoop=1;jettySize=auto;html=1;entryX=1;entryY=0.5;entryDx=0;entryDy=0;exitX=0.5;exitY=0;exitDx=0;exitDy=0;dashed=1;dashPattern=12 12;strokeWidth=3;" parent="1" source="ihkdVbjDrNtI75KqLu5v-8" target="ihkdVbjDrNtI75KqLu5v-10" edge="1">
                    <mxGeometry relative="1" as="geometry"/>
                </mxCell>
                <mxCell id="ihkdVbjDrNtI75KqLu5v-8" value="nexusformat" style="rounded=1;whiteSpace=wrap;html=1;fillColor=#fff2cc;strokeColor=#d6b656;shadow=1;" parent="1" vertex="1">
                    <mxGeometry x="710" y="90" width="120" height="60" as="geometry"/>
                </mxCell>
                <UserObject label="https://github.com/nexpy/nexusformat" link="https://github.com/nexpy/nexusformat" id="ihkdVbjDrNtI75KqLu5v-9">
                    <mxCell style="text;whiteSpace=wrap;fontColor=#7EA6E0;fontStyle=1" parent="1" vertex="1">
                        <mxGeometry x="655" y="150" width="230" height="40" as="geometry"/>
                    </mxCell>
                </UserObject>
                <mxCell id="ihkdVbjDrNtI75KqLu5v-12" style="edgeStyle=orthogonalEdgeStyle;rounded=0;orthogonalLoop=1;jettySize=auto;html=1;" parent="1" source="ihkdVbjDrNtI75KqLu5v-10" target="ihkdVbjDrNtI75KqLu5v-6" edge="1">
                    <mxGeometry relative="1" as="geometry"/>
                </mxCell>
                <mxCell id="ihkdVbjDrNtI75KqLu5v-10" value="hdf5plugin" style="rounded=1;whiteSpace=wrap;html=1;fillColor=#fff2cc;strokeColor=#d6b656;shadow=1;" parent="1" vertex="1">
                    <mxGeometry x="480" y="-30" width="120" height="60" as="geometry"/>
                </mxCell>
                <UserObject label="https://github.com/silx-kit/hdf5plugin" link="https://github.com/silx-kit/hdf5plugin" id="ihkdVbjDrNtI75KqLu5v-11">
                    <mxCell style="text;whiteSpace=wrap;fontColor=#7EA6E0;fontStyle=1" parent="1" vertex="1">
                        <mxGeometry x="445" y="-60" width="220" height="40" as="geometry"/>
                    </mxCell>
                </UserObject>
                <mxCell id="ihkdVbjDrNtI75KqLu5v-22" style="edgeStyle=orthogonalEdgeStyle;rounded=0;orthogonalLoop=1;jettySize=auto;html=1;entryX=1;entryY=0.5;entryDx=0;entryDy=0;" parent="1" source="ihkdVbjDrNtI75KqLu5v-13" target="ihkdVbjDrNtI75KqLu5v-8" edge="1">
                    <mxGeometry relative="1" as="geometry"/>
                </mxCell>
                <mxCell id="ihkdVbjDrNtI75KqLu5v-13" value="NexPy" style="rounded=1;whiteSpace=wrap;html=1;fillColor=#fff2cc;strokeColor=#d6b656;shadow=1;" parent="1" vertex="1">
                    <mxGeometry x="910" y="90" width="120" height="60" as="geometry"/>
                </mxCell>
                <UserObject label="https://github.com/nexpy/nexpy" link="https://github.com/nexpy/nexpy" id="ihkdVbjDrNtI75KqLu5v-15">
                    <mxCell style="text;whiteSpace=wrap;fontColor=#7EA6E0;fontStyle=1" parent="1" vertex="1">
                        <mxGeometry x="890" y="150" width="200" height="40" as="geometry"/>
                    </mxCell>
                </UserObject>
                <mxCell id="ihkdVbjDrNtI75KqLu5v-24" value="METADATA" style="edgeStyle=orthogonalEdgeStyle;rounded=0;orthogonalLoop=1;jettySize=auto;html=1;entryX=0;entryY=0.5;entryDx=0;entryDy=0;" parent="1" source="ihkdVbjDrNtI75KqLu5v-19" target="ihkdVbjDrNtI75KqLu5v-6" edge="1">
                    <mxGeometry relative="1" as="geometry"/>
                </mxCell>
                <mxCell id="ihkdVbjDrNtI75KqLu5v-25" value="DATA" style="edgeStyle=orthogonalEdgeStyle;rounded=0;orthogonalLoop=1;jettySize=auto;html=1;" parent="1" source="ihkdVbjDrNtI75KqLu5v-19" target="ihkdVbjDrNtI75KqLu5v-1" edge="1">
                    <mxGeometry x="0.0054" relative="1" as="geometry">
                        <mxPoint as="offset"/>
                    </mxGeometry>
                </mxCell>
                <mxCell id="ihkdVbjDrNtI75KqLu5v-19" value="Users" style="shape=umlActor;verticalLabelPosition=bottom;verticalAlign=top;html=1;outlineConnect=0;" parent="1" vertex="1">
                    <mxGeometry x="270" y="10" width="30" height="60" as="geometry"/>
                </mxCell>
                <UserObject label="https://github.com/h5py/h5py" link="https://github.com/h5py/h5py" id="ihkdVbjDrNtI75KqLu5v-26">
                    <mxCell style="text;whiteSpace=wrap;fontColor=#7EA6E0;fontStyle=1" parent="1" vertex="1">
                        <mxGeometry x="460" y="150" width="190" height="40" as="geometry"/>
                    </mxCell>
                </UserObject>
                <mxCell id="ihkdVbjDrNtI75KqLu5v-33" value="see streamable jupyter notebook" style="text;html=1;strokeColor=none;fillColor=none;align=center;verticalAlign=middle;whiteSpace=wrap;rounded=0;fontStyle=1;fontColor=#67AB9F;labelBackgroundColor=default;fontSize=15;" parent="1" vertex="1">
                    <mxGeometry x="130" y="20" width="130" height="60" as="geometry"/>
                </mxCell>
                <mxCell id="ihkdVbjDrNtI75KqLu5v-38" value="&lt;div style=&quot;color: rgb(0, 0, 0); background-color: rgb(234, 234, 234); font-family: Consolas, &amp;quot;Courier New&amp;quot;, monospace; font-size: 12px; line-height: 16px;&quot;&gt;&lt;div style=&quot;&quot;&gt;&lt;b&gt;&lt;span style=&quot;color: rgb(38, 127, 153);&quot;&gt;Streamable&lt;/span&gt;&lt;span style=&quot;color: rgb(0, 0, 0);&quot;&gt;.&lt;/span&gt;&lt;span style=&quot;color: rgb(121, 94, 38);&quot;&gt;Create&lt;/span&gt;&lt;/b&gt;&lt;span style=&quot;font-weight: normal; color: rgb(0, 0, 0);&quot;&gt;(&lt;/span&gt;&lt;span style=&quot;font-weight: normal; color: rgb(0, 16, 128);&quot;&gt;h5_filename&lt;/span&gt;&lt;span style=&quot;font-weight: normal; color: rgb(0, 0, 0);&quot;&gt;, &lt;/span&gt;&lt;/div&gt;&lt;div style=&quot;font-weight: normal;&quot;&gt;&lt;span style=&quot;color: #000000;&quot;&gt;&amp;nbsp; &amp;nbsp; &amp;nbsp; &amp;nbsp; &amp;nbsp; &amp;nbsp; &amp;nbsp; &amp;nbsp; &amp;nbsp; &lt;/span&gt;&lt;span style=&quot;color: #001080;&quot;&gt;local_url&lt;/span&gt;&lt;span style=&quot;color: #000000;&quot;&gt;, &lt;/span&gt;&lt;/div&gt;&lt;div style=&quot;font-weight: normal;&quot;&gt;&lt;span style=&quot;color: #000000;&quot;&gt;&amp;nbsp; &amp;nbsp; &amp;nbsp; &amp;nbsp; &amp;nbsp; &amp;nbsp; &amp;nbsp; &amp;nbsp; &amp;nbsp; &lt;/span&gt;&lt;span style=&quot;color: #001080;&quot;&gt;arco&lt;/span&gt;&lt;span style=&quot;color: #000000;&quot;&gt;=&lt;/span&gt;&lt;span style=&quot;color: #001080;&quot;&gt;arco&lt;/span&gt;&lt;span style=&quot;color: #000000;&quot;&gt;, &lt;/span&gt;&lt;/div&gt;&lt;div style=&quot;font-weight: normal;&quot;&gt;&lt;span style=&quot;color: #000000;&quot;&gt;&amp;nbsp; &amp;nbsp; &amp;nbsp; &amp;nbsp; &amp;nbsp; &amp;nbsp; &amp;nbsp; &amp;nbsp; &amp;nbsp; &lt;/span&gt;&lt;span style=&quot;color: #001080;&quot;&gt;compression&lt;/span&gt;&lt;span style=&quot;color: #000000;&quot;&gt;=&lt;/span&gt;&lt;span style=&quot;color: #001080;&quot;&gt;compression&lt;/span&gt;&lt;span style=&quot;color: #000000;&quot;&gt;,&lt;/span&gt;&lt;/div&gt;&lt;div style=&quot;font-weight: normal;&quot;&gt;&lt;span style=&quot;color: #000000;&quot;&gt;&amp;nbsp; &amp;nbsp; &amp;nbsp; &amp;nbsp; &amp;nbsp; &amp;nbsp; &amp;nbsp; &amp;nbsp; &amp;nbsp; &lt;/span&gt;&lt;span style=&quot;color: #001080;&quot;&gt;local_url_template&lt;/span&gt;&lt;span style=&quot;color: #000000;&quot;&gt;=&lt;/span&gt;&lt;span style=&quot;color: #001080;&quot;&gt;local_url_template&lt;/span&gt;&lt;span style=&quot;color: #000000;&quot;&gt;,&lt;/span&gt;&lt;/div&gt;&lt;div style=&quot;font-weight: normal;&quot;&gt;&lt;span style=&quot;color: #000000;&quot;&gt;&amp;nbsp; &amp;nbsp; &amp;nbsp; &amp;nbsp; &amp;nbsp; &amp;nbsp; &amp;nbsp; &amp;nbsp; &amp;nbsp; &lt;/span&gt;&lt;span style=&quot;color: #001080;&quot;&gt;remote_url_template&lt;/span&gt;&lt;span style=&quot;color: #000000;&quot;&gt;=&lt;/span&gt;&lt;span style=&quot;color: #001080;&quot;&gt;remote_url_template&lt;/span&gt;&lt;span style=&quot;color: #000000;&quot;&gt;)&lt;/span&gt;&lt;/div&gt;&lt;/div&gt;" style="text;whiteSpace=wrap;html=1;strokeColor=default;" parent="1" vertex="1">
                    <mxGeometry x="260" y="440" width="420" height="120" as="geometry"/>
                </mxCell>
                <mxCell id="ihkdVbjDrNtI75KqLu5v-39" value="&lt;span style=&quot;color: rgb(0, 0, 0); font-family: Consolas, &amp;quot;Courier New&amp;quot;, monospace; font-size: 12px; font-style: normal; font-variant-ligatures: normal; font-variant-caps: normal; font-weight: 400; letter-spacing: normal; orphans: 2; text-align: start; text-indent: 0px; text-transform: none; widows: 2; word-spacing: 0px; -webkit-text-stroke-width: 0px; text-decoration-thickness: initial; text-decoration-style: initial; text-decoration-color: initial; float: none; display: inline !important;&quot;&gt;aws s3 sync --no-progress --endpoint-url &lt;/span&gt;&lt;a href=&quot;https://maritime.sealstorage.io/api/v0/s3&quot; style=&quot;color: var(--vscode-textLink-foreground); font-family: Consolas, &amp;quot;Courier New&amp;quot;, monospace; font-size: 12px; font-style: normal; font-variant-ligatures: normal; font-variant-caps: normal; font-weight: 400; letter-spacing: normal; orphans: 2; text-align: start; text-indent: 0px; text-transform: none; widows: 2; word-spacing: 0px; -webkit-text-stroke-width: 0px;&quot;&gt;https://maritime.sealstorage.io/api/v0/s3&lt;/a&gt;&lt;span style=&quot;color: rgb(0, 0, 0); font-family: Consolas, &amp;quot;Courier New&amp;quot;, monospace; font-size: 12px; font-style: normal; font-variant-ligatures: normal; font-variant-caps: normal; font-weight: 400; letter-spacing: normal; orphans: 2; text-align: start; text-indent: 0px; text-transform: none; widows: 2; word-spacing: 0px; -webkit-text-stroke-width: 0px; text-decoration-thickness: initial; text-decoration-style: initial; text-decoration-color: initial; float: none; display: inline !important;&quot;&gt; --profile sealstorage --size-only &lt;/span&gt;&lt;a href=&quot;https://file+.vscode-resource.vscode-cdn.net/c%3A/projects/openvisuspy/examples/notebooks/create_streamable/streamable/hdf5/reconstructed_data/&quot; style=&quot;color: var(--vscode-textLink-foreground); font-family: Consolas, &amp;quot;Courier New&amp;quot;, monospace; font-size: 12px; font-style: normal; font-variant-ligatures: normal; font-variant-caps: normal; font-weight: 400; letter-spacing: normal; orphans: 2; text-align: start; text-indent: 0px; text-transform: none; widows: 2; word-spacing: 0px; -webkit-text-stroke-width: 0px;&quot;&gt;./streamable/hdf5/reconstructed_data/&lt;/a&gt;&lt;span style=&quot;color: rgb(0, 0, 0); font-family: Consolas, &amp;quot;Courier New&amp;quot;, monospace; font-size: 12px; font-style: normal; font-variant-ligatures: normal; font-variant-caps: normal; font-weight: 400; letter-spacing: normal; orphans: 2; text-align: start; text-indent: 0px; text-transform: none; widows: 2; word-spacing: 0px; -webkit-text-stroke-width: 0px; text-decoration-thickness: initial; text-decoration-style: initial; text-decoration-color: initial; float: none; display: inline !important;&quot;&gt; s3://utah/streamable/hdf5/reconstructed_data/&lt;/span&gt;" style="text;whiteSpace=wrap;html=1;fillColor=#f5f5f5;fontColor=#333333;strokeColor=#666666;" parent="1" vertex="1">
                    <mxGeometry x="230" y="740" width="560" height="80" as="geometry"/>
                </mxCell>
                <mxCell id="ihkdVbjDrNtI75KqLu5v-41" style="edgeStyle=orthogonalEdgeStyle;rounded=0;orthogonalLoop=1;jettySize=auto;html=1;entryX=0.005;entryY=0.35;entryDx=0;entryDy=0;entryPerimeter=0;" parent="1" source="ihkdVbjDrNtI75KqLu5v-34" target="ihkdVbjDrNtI75KqLu5v-38" edge="1">
                    <mxGeometry relative="1" as="geometry"/>
                </mxCell>
                <mxCell id="ihkdVbjDrNtI75KqLu5v-42" style="edgeStyle=orthogonalEdgeStyle;rounded=0;orthogonalLoop=1;jettySize=auto;html=1;entryX=0.418;entryY=-0.025;entryDx=0;entryDy=0;entryPerimeter=0;" parent="1" source="ihkdVbjDrNtI75KqLu5v-38" target="ihkdVbjDrNtI75KqLu5v-39" edge="1">
                    <mxGeometry relative="1" as="geometry"/>
                </mxCell>
                <mxCell id="ihkdVbjDrNtI75KqLu5v-43" style="edgeStyle=orthogonalEdgeStyle;rounded=0;orthogonalLoop=1;jettySize=auto;html=1;entryX=0.539;entryY=1.008;entryDx=0;entryDy=0;entryPerimeter=0;exitX=1;exitY=0.5;exitDx=0;exitDy=0;" parent="1" source="ihkdVbjDrNtI75KqLu5v-39" target="ihkdVbjDrNtI75KqLu5v-40" edge="1">
                    <mxGeometry relative="1" as="geometry"/>
                </mxCell>
                <mxCell id="ihkdVbjDrNtI75KqLu5v-46" value="Read from LOCAL streamable" style="rounded=1;whiteSpace=wrap;html=1;shadow=1;fillColor=#d5e8d4;strokeColor=#82b366;fontSize=14;" parent="1" vertex="1">
                    <mxGeometry x="780" y="230" width="190" height="50" as="geometry"/>
                </mxCell>
                <mxCell id="ihkdVbjDrNtI75KqLu5v-47" value="Read from REMOTE streamable (with cache too)" style="rounded=1;whiteSpace=wrap;html=1;fillColor=#d5e8d4;strokeColor=#82b366;shadow=1;fontSize=14;" parent="1" vertex="1">
                    <mxGeometry x="1130" y="230" width="180" height="50" as="geometry"/>
                </mxCell>
                <mxCell id="ihkdVbjDrNtI75KqLu5v-48" value="" style="group" parent="1" vertex="1" connectable="0">
                    <mxGeometry x="700" y="367" width="982" height="367" as="geometry"/>
                </mxCell>
                <mxCell id="ihkdVbjDrNtI75KqLu5v-40" value="" style="shape=image;verticalLabelPosition=bottom;labelBackgroundColor=default;verticalAlign=top;aspect=fixed;imageAspect=0;image=data:image/png,iVBORw0KGgoAAAANSUhEUgAABVwAAAJpCAYAAABRkPktAAAgAElEQVR4Aey9zYpcWdump4PxTEOfgGSfQOkErLHR1EbDBo2MUYHfgYVHxgj8DSxq9AncmKZejEH1GQxdZWNo0YO2Zdq8XSeR5or2rfeup9beGZkZGYpMXYNk7b3Wen7Ws67YGXHnUujJ77//fuWPNZABGZABGZABGZABGZABGZABGZABGZABGZABGZCB2zHw7/7dv7vi529/+9vVE4t4uyJaN+smAzIgAzIgAzIgAzIgAzIgAzIgAzIgAzIgAzIAAwqunur1VLMMyIAMyIAMyIAMyIAMyIAMyIAMyIAMyIAMyMCJGFBwPVEh/QuGf8GQARmQARmQARmQARmQARmQARmQARmQARmQARlQcFVw9a8XMiADMiADMiADMiADMiADMiADMiADMiADMiADJ2LgzoLr58+fr16+fHlFq4Kvgi8DMiADMiADMiADMiADMiADMiADMiADMiADMvA9M3BnwfXdu3dX/HzPRXTtPkRkQAZkQAZkQAZkQAZkQAZkQAZkQAZkQAZkQAZg4E6Cq6dbhcgHiQzIgAzIgAzIgAzIgAzIgAzIgAzIgAzIgAzIwN8ZuJPg+vHjx6vXr197uvVE3+8gmH8H01pYCxmQARmQARmQARmQARmQARmQARmQARmQgYfIwK0F1y9fvly9evXq6tOnTwquCq4yIAMyIAMyIAMyIAMyIAMyIAMyIAMyIAMyIAMycJevFPB0q39heIh/YTBnuZUBGZABGZABGZABGZABGZABGZABGZABGbhPBm59wpWvEkB0vc/k9C38MiADMiADMiADMiADMiADMiADMiADMiADMiADD4mBWwmufI0AXyfA1wo8pMWaqy9OGZABGZABGZABGZABGZABGZABGZABGZABGZCB+2TgVoKrp1uF8j6h1Ld8yYAMyIAMyIAMyIAMyIAMyIAMyIAMyIAMPFQGbiW4PtTFmrcvVBmQARmQARmQARmQARmQARmQARmQARmQARmQgftkQMHV/z3Or4WQARmQARmQARmQARmQARmQARmQARmQARmQARk4EQMKricq5H2q4vr2ry4yIAMyIAMyIAMyIAMyIAMyIAMyIAMyIAMy8DAYUHBVcPWvFzIgAzIgAzIgAzIgAzIgAzIgAzIgAzIgAzIgAydiQMH1RIX0LwwP4y8M7pP7JAMyIAMyIAMyIAMyIAMyIAMyIAMyIAMycJ8MKLgquPrXCxmQARmQARmQARmQARmQARmQARmQARmQARmQgRMxoOB6okLeVBV/9+7d1cuXL6++fPkizN9oD266Z873r18yIAMyIAMyIAMyIAMyIAMyIAMyIAMyIAPXMXBWwfXz589Xz58/v3ry5MnV06dPrz59+nQQHF+9enW4TrKIkfx8/PjxMJf5/Lx+/fqrODnH8It/fGAbm2mXGN3ia4qf5PbixYuvPnv+Ka7PJbhSM2pAvGPz3rNBIKZWXe/r/O75u87WcR9iMiADMiADMiADMiADMiADMiADMiADMiADD4mBswmuEVsRNylQBM3ffvvtak9wbZGV69zjJ9ez4IiLNxEYyQ1xlZziC/st/5lzyW2E0dTpmHocY4MfBFd+InBv1eEYf1u29vsglQEZkAEZkAEZkAEZkAEZkAEZkAEZkAEZeIgMnE1wRaibot+bN2+u/vrXvx4tuEakReiLkLgq+irWal73Ia4mvxYKmUNcTuRyUrRPdpIDYjHi4xyLwEx/nzDtfuyIlTx6DBv8M0Y/+RGL/pwOjt11ba/turkZX9mk/r/88stRgmt80a789bjXPkBlQAZkQAZkQAZkQAZkQAZkQAZkQAZkQAYeAwNnEVwRFRHcfv3116/iZAS4n3766WtfxMkIlFNURXjMSVTGen6LlwinGTtWnMRffERYJB4/9NOy4T2P6/bfQm9fr0AhBgJqBNcp8vZauUbojSBMS/3wS5u1piWvjplad99119Om85s1uc4X49PfMTbO8SErAzIgAzIgAzIgAzIgAzIgAzIgAzIgAzLw0Bg4i+CKQIfg9uHDh0OLIBhBEsH12K8UaBESH/i8ruDM61OpW/O3fGMfITNthNm9HGK3leMUXFciJrb4mWN7cVfrw0/E2tX4qm/atMg781nZz77pb45778NTBmRABmRABmRABmRABmRABmRABmRABmTgMTBwFsEVcZGvD0C0QyykRXxFaL2PrxTojbmJOBiBMy1+9sTNvbHkwByEWnymj/ZUgit+IwSnJWbHYs5dBNecbo3/bmesjtvXt8mh7b32gSsDMiADMiADMiADMiADMiADMiADMiADMvAQGDiL4Iro+eOPPx7ES8S6H3744asIiZh3zAnXiH4RDo8RO9kA5udE6nUbgk/m9lcIkHu+xmDaH5vDFFfxM/uyvgiYjD979uwwb4rGx8ZNvltiJ/1bp3+3bPA580kfvrBL3G73/PU8r31wyoAMyIAMyIAMyIAMyIAMyIAMyIAMyIAMPGQGzia4IrghKs5iXSe49mnKiK342BMdiRW7Y8VWfCIkrkRDYsUfbfI4NgdsmEsMhNT8B1zxGZFyjsVmCpx7cbu+XQdi9ffNMo/xKbheZ5M6tSidvlXtjvHXOXvtA1UGZEAGZEAGZEAGZEAGZEAGZEAGZEAGZOAhM3AWwZUCIbxFqHzIBTN3X/AyIAMyIAMyIAMyIAMyIAMyIAMyIAMyIAMyIANbDJxNcM0/mc+pzpucPN1K/ib98/Ro8qBVCPYFchOWnCsvMiADMiADMiADMiADMiADMiADMiADMiADWwycTXDdSsB+4ZQBGZABGZABGZABGZABGZABGZABGZABGZABGXgsDCi4/i7MjwVm1yHLMiADMiADMiADMiADMiADMiADMiADMiAD35oBBVcF1z/9R2bfGkrj+2CUARmQARmQARmQARmQARmQARmQARmQARl4qAwouCq4KrjKgAzIgAzIgAzIgAzIgAzIgAzIgAzIgAzIgAyciAEF1xMV8qEq7ubtX4tkQAZkQAZkQAZkQAZkQAZkQAZkQAZkQAZk4HQMKLgquPrXCxmQARmQARmQARmQARmQARmQARmQARmQARmQgRMxcFbB9fPnz1fPnz+/evLkydXTp0+vPn369KeN/PLly9WrV6+WYyul/d27dwd/+Hz9+vWf/K1sVn0fP3786gefPYe8X758eUXb/be5Zs2sj3Xexn7akOvMd865yX3Xs/eo60Ot+aEmrGOOcd8x2RfmnzLP9u/16f4CYy2tpQzIgAzIgAzIgAzIgAzIgAzIgAzIgAzcjYGzCa4RWyPGITy+ePHiTyLmTQTXUwqhAWklYJ4yzqULrqkDLXsVUbX7M7YSuHtf2Uvs8cNcBde7vVjnHnhvPWVABmRABmRABmRABmRABmRABmRABmTg8hg4m+C6EjLfvHnz9SRrTkFyErJPViLgcU8/p2P7lOmWeInAx/z8tMjbp0tXOc2+ziv+VkLjhDsCc2wiNiZn8mCs17SVN76IGZuuT+cb+6x3K4eZ69Y9vldr3RPFib0SafGTGmzFS3/WkdplPRm3vbwHiXvinsiADMiADMiADMiADMiADMiADMiADMjAv2fgLIIrAh2C26+//noQ4xDSIsAhprWw12IegiHiHS0bFjHvt99++/rVBBHlWoTszW0fETuJwZwWK2Oz6msfmUfLGhI/bcTBlR9sIiAzHh+5bt8dk2uE2cyjJTbzueYHv8+ePfsqYPdY+z3mOutqMbjtWGPip58cqMHWPjCfOZl/bNt1ONbGeT7gZUAGZEAGZEAGZEAGZEAGZEAGZEAGZEAGvhUDZxFcEc0Q3D58+HBoI7IiwP30009/+M7WFlyZFyEzbZ+enAJqihhRMzYRDud84k8RcNV3G9EvuU9hci+Hrbxn/BY8yXdL6NzKgTqRV+rTNU0NabFP7dLP/jCfsfR1yxqm8Mv4SnDdymGrDh3Hax+aMiADMiADMiADMiADMiADMiADMiADMiADl8jAWQRXBDS+PgBxEKGOFvGVfyL/17/+dVdwnYJlFxG//RUBjEUQJAb3LVbO+czJvPhd9bWPzKNtwTDi5RQiuWcs69jKYS/vGR+f8Ue+1BZhdMZOrjOH9F/XEpfv2SXnzMXXlkDLnKxj5kK+s9bx2W3sM3euved67UNVBmRABmRABmRABmRABmRABmRABmRABmTg0hg4i+CKaPbjjz8eBEHExx9++OEPImSLcQht+WfpK8GvCzjFS8Yi2EXww19OaTI//1EX18SJsBe/3M++6/KI7VbbefY18xNvL+8pOrK2FlzxwZw90XXG3cq1+6e4OnPsubkmTmqcPtre4+6f1zMGa8v+zbne+0CVARmQARmQARmQARmQARmQARmQARmQARm4NAbOJrgiuCGmrQqASIf4iRj79u3bP5x4RfTL6VHaFkO3RMS24fQnJzIRJIlNHvhBxMupW/rx23G4xk/y7fGInRlbtYkTn/E1c8Zv1rSV9zGCKzmkjvG3lcMq3/S1zTzJSn6zD7uuzRRH2x+1iJieeKt2qw6rufb5UJUBGZABGZABGZABGZABGZABGZABGZABGbgkBs4iuLJghLcIgZdUAHPxBSkDMiADMiADMiADMiADMiADMiADMiADMiADMnAqBs4muOafiufE5+qk5KkWpR9fIDIgAzIgAzIgAzIgAzIgAzIgAzIgAzIgAzIgA9+CgbMJrt9iccb0RSUDMiADMiADMiADMiADMiADMiADMiADMiADMnBOBhRcfxe4cwJnLHmTARmQARmQARmQARmQARmQARmQARmQARl4zAwouCq4fv2PwR4z6K7NB7kMyIAMyIAMyIAMyIAMyIAMyIAMyIAMyMA5GFBwVXBVcJUBGZABGZABGZABGZABGZABGZABGZABGZABGTgRAwquJyrkOdRxY/hXGBmQARmQARmQARmQARmQARmQARmQARmQARm4bAYehOD68ePHq+fPn199/vxZpV2BWAZkQAZk4JszwO8jfi/x++khvdH58uXL1cuXL6/evXv3oPJ+SDU218t+4+v+uD8yIAMyIAMyIAMyIAPnYOCsgms+oD558uTq6dOnV58+ffrDBz4+ADLGz+vXr7+OrQRX+jL3MX5wpDavXr264sPxMSBs1e4YW2p9nWjA3vEh/dyi903rcMx6bzrnlDlkn1Lvfk1M7jvPU+bQfh/ydYQj6nYff5CZr4t5f47aHRPz1Gyc2l8/q9mrsD/7GeMZw75e97qgLsw/9bMff+1zrxbJMeu5jofmtetwnd2px5NHr5MYrOcuz/i9Wp16DafwN/f6FD5XPu5aF/iC95Xvrb6b7OW56rCVq/1+2JEBGZABGZABGZABGXisDJxNcJ0fTvkQ8uLFi68C3k0+IPRmPNYPC8cILanDbWuH/bEfBu8SI3nepr1JHW7j/xibU+UQ5hE1ViJNhJDV2KlyOGa9D23OfbC5el2cew9WOaz25th5K9tV36n9dQx893O/x7aEpX5d9DX7MUXD9nfT6xVHp6wF60u+XN/HHwluuuaev1p/j193fe7Xx3X5XDd+rvcOd2Vo63Wxt76b7OW56rCXr2N+yJIBGZABGZABGZABGXiMDJxNcF29qX/z5s3XU66rDyX5cM1poK0Ppyu/bXfsSSL8vH379nDyFhs+PGbDuaav88gHGsQzTutiyzh+sLtNDok3a0EscuDEKzHm6eA5P36wo27JPbllnHb1IZl5sekTZ1yzZ6scukYdZy+HjrPa37mu1JyW3PuD6Kw3+WSdcww7xuIva2JdGYvtzAFf7EP2GxvWgS+EJObHlv7UIjkk5xkn+Uwf9M8ckvdN64Af2CHnrnf87dUha+p25S/rTP3xTazUoTnpHOjPGHkwFva4n/XuPJJ/6pGx+MsepZ/a08fPfC1lDrbZo54fu869x9OfnLaeDyubxE7bOdCXWiaH1DR85PmQHLDpPcIuNvjCf2y6DvHHXiYmc/dySM7Xtaw7+9pz87oidvdzTQ6r1wU5ZT3TZt5v1aHn4Sv+wnFqnTbjtOljTe3nmGvWRB1or5vfrKR22Zfkk/Ull86veWhfsSU+tcx60mbPmZe5W/vUzOAv69t6pnS8+MZu1j1jW/3Y7D0fsM96UofUKv204T/rWz1v8NX58NrBFznw07Gyt7Qdh+v4wGarDjPH7EVirdpZo6x39oehGaPrMHOLr1Xc7tvaC9bcPlhP8gjLqVPXp3177YcwGZABGZABGZABGZCBh8bAWQRX3vDzBvvXX389vMnmjTX3vLH+h3/4h8Mb8bzZnm/6KWg+vNHOAuNjvkHHdz54YrP6sL7ykw8Eezb4xT9zmE9s7vnw8OHDh8M1vrdy6A+8WTNzO5+5po7FvMRMf/zM2k0/HYNr7MmbNmPklw9C6ctc1ptckwNjHScf7lL/Hpv+Zuwen365n/lmLxjr6+lnay9SP3LEhg+gfIhmDfEx88/6UofOqecyrz+QMxabzidxI4Qml8Snbb/cd0zue+193T5WNtnnY+rQvrZyiL9e+8y9/XSu1AR7XkPUgrHwkTH8kut8Pc+1EaPjZs/w2bl1Ln298sf43Df6YIZ8sOE+ef/222+bz4ctG3JLHqscek2ZlxyoGePck2eue16vHf95fjGH+djFH+wmh/bFdd+3/71rbObzqec3C+lvQWgVc2udsd9quw6Zs+pjbPVMiA3tioke37oOJ73nq7kzPnXIPmV/aDuP7l/5pA8/s6Zbdj13q049B//4ar56HT0Xf7zOqQd2W3va/SubPHuIk9fj1npSk84jffG9qnHPn3XY289ee+LQTn+pA3n3M2712mg/ue4a7a2948484mu2N8lhtRcdZ9Zj5jNje+8HKxmQARmQARmQARmQgYfKwFkEV97882EggiRv3vMmm2uKN9+Ed0Fv8uGBuXzQ2xIh229fJx/65ocpxtofa+mcuGcd+VBy2xyI3X6T3+xLnIxv1Y555E1+mdttrzn9WUvu027lkA+oXR+uiY3tVg6xy8mixEk749E/+7oO1ABf+bDXfrZ4mP5ik3Y1PtnIXNreh3kdEYB5WzVOTdiX+F3lMPuOqUP2ofcptZr+Enuv3fOH3dZ+rF5LzE9NspbOKWPJZ973XOakjr3WZhL7vo/ftKvXBWMzLn3JN7bJ5Z/+6Z/+IBgzL3PTThts07fKATvyJo/Mo23WuG9bfDb/eb0lz8TsnLJ3xMJXx9rKgTmpK3Zhq225xvezZ88ObcayX/hOX7cZn7kQb9VH/JnDVh0Sp9efPtpZ2x7jesXEdXVY1YB1JG/2K/vS/RnHf/JY7Ufqlb3O3G7xO2s3mcj8novv/kMSc1Z2qz7mJresJS3r2LOZMTun3oP2kVhbdWgfWetqfRnr+XNe55D5aVcMJbesPy11mCzO+/jtttdN/7xvJonFWmLf60ofLf3Ji7a563l93XWYOWTNcz9Y37H+O5bXfvCSARmQARmQARmQARm4dAbOIrjygYN/asYbeN5c0yK+9oeo1YeSFG++cU8/7fywsDe37eZ1++kPU/PDcT78dJx8yFiNzTj5cLH1QabziG3Hoi9xMr5Xu8yfH2imz/jKWnKfds5PDl2rzF21Wff80Lb1Iew2dSAuteADXQSfmXfntjfGvFUO160XzskBW9YcP73fuZ61yNzuX+Uw885e9NpmHVZzMn/6S/9eu+cPuzDJWqhZ+lpsax/M4z59nVPG8BFemJf8em7m9LMl82aLX/Ziz1fbdB7pT765Ty53EVzjgzZ+uyVmv55T69S5mSFnfrBvdmeMXkf8UcPYdnyuZw5zfOt+tX/4yut1y441zVy4p3/LpvuZG/uuA3PmfdulFszp/lzjk/xzf12LP55Px9r0Xq5844d94rkzx1PrKXAxb+V3MhF/PXdVqx6PzZavlf1tbDpm78Eq7lYd2kdy2Muv5895nUN8pV0xNO0zl5Y9Daur+56b67nuvsffFPFZS2x7Xekj561ndeas2q5D58Bc1sz41rOZPPu5tvJvnx+qZEAGZEAGZEAGZEAGHhIDZxFceeP9448/fv2Q/sMPP/zpjfXqQ0kKOd+4p5929WGBN/X9gaLnb123n/4wRF45nUg/wgD+O6d8yOgPSrfJoeN2nh2L/o7D/V7t4mfOmT4yjzqsxI+9HLBhvfGx1c4cel5qSN9eHfJPLcmHD5GruDPXrb2Y8zqfrRy2+mNLXfn+P2LiP/3d9lq7H9/UHh/0b8XC703r0DYdk+u9Osy5ub/OX/JrNrZeS/hMTcJl55Qx5rWPzoW6YZO+jpu+Vcs8fjKW+Lnvljx6LmMzH8bJha8USE7JP763bNhvfGZex57X+EC4wKavmddr6pzxG/Gt6ztjtj/s+Znxue95q/FVHzZ5njI+mV/ZbM3pta3suq/ndh2Ys7eOmW/75Bq/+Jv9q3tqzjPr2Pn42IvfY72+GXuVYzOS+eSX1236aJmLj1yHIe7Zm5WANvna8tf92WfidT/Xvb5Zx17fXtyeh89eV+JtrWfOx7brwD2vd+zjK23vU/qmv+7v+Vlr6t/z+jq1C1vMj8hKX3KLv67xqg6dQ3x3DvHTfeTDfXKYe8EYsdp3r4FrxvJcm2Pe++FKBmRABmRABmRABmTgoTFwNsGVN9urDyMp2OqNdt7U50QgbT448Ma9+7nuN/p82Mh4bBJr1eKPH8bIsz9Ekju++IDVYhp+yTEfMojPNT5m7sfk0Pad4/zgMuetaod98k4dUp+5vo417ZL3Xg75QJY4+aA3fTGeHMiZesYmcbCZ6+v8su+9F4ynP/6yl4xt7cVcU8fZyuG62iVWOGifuQ4v3M86pD6MbeXAWNZ7kzrgL/WhTY326pCcV+3KX1iI79ynHmFy5p2aZM2dU2zIGTtqRj6pda8pHCVuxsLktEk//q7b296rtsteECv9M3/WlbURa2VzXQ5dB2LhDxvyapEC36l/58ycPNc6P3x0bu0vdUxdt3LAx9bP1loTN77bvvPutTJn5tBMtI++bn9dh/hLLdsm1x0vde0+8jsmh2mDXfwl1qrt+qUW4Th55565vVbmd32nr/hL3B4nX/rjm7mzds1NfMSGuNh2P9dhCn/85DUTO+4zRj57/YyRZ9chcffqMH1m//aeAXt1SB7Ju2s+x7KmvTqEFWrx/v37r+8r8LX1Qw0SH5vUoePgL//aKH56XalD50xf3vdMmzCS/q29YM1dE+6z71lrcs9exqft9p5bG2sjAzIgAzIgAzIgA5fNwFkEVyDgTXU+aAjFn6HY+6B36nptfUg+dZzb+DtnHbbyM4c/87lVq3P094f4+4x3Ca+LS8jhPmt8ab4R5RARec1fWm6Xns8lPCcvvUbmd1m/S9wP90MGZEAGZEAGZEAGZOCcDJxNcOXDGScccoqhTzucY8HztEvyoFUI9kV3DgYfWox58iivmZxMOtd6ziW4nms9xvF5IwMycFMGeJ+SZ3C3fSr1pj6dL4cyIAMyIAMyIAMyIAMycH8MnE1wdRPvbxOtrbWVARmQARmQARmQARmQARmQARmQARmQARmQgctgQMF15zvRhPQyIHUf3AcZkAEZkAEZkAEZkAEZkAEZkAEZkAEZkIGHwoCCq4Kr310oAzIgAzIgAzIgAzIgAzIgAzIgAzIgAzIgAzJwIgYUXE9UyIeisJunfw2SARmQARmQARmQARmQARmQARmQARmQARmQgftjQMFVwdW/XsiADMiADMiADMiADMiADMiADMiADMiADMiADJyIgQchuH78+PHq3P8z+lT5LyGHmZP39/eXCGtrbWVABmRABmRABmRABmRABmRABmRABmRABm7DwFkF18+fPx+E0ydPnlw9ffr06tOnT39Qzt+9e3fFGD+vX7/+OrYSO+nLXOxus/hpg58tX6scpv1d7/fqQ62oGWt++fLl1ZcvXw5rpuU+tSDP5NH1XNU782ZL7fE3a5H8buIL31v+GIvPrKnXmTXRZl2Zv8ohcXr+XNu8b46aucTB1yrW9JP7vRx6bVlv7FZtzyeP7Mfc8+lrL4fY9h8weq3E6TqQV/wl/ipX+/wFJAMyIAMyIAMyIAMyIAMyIAMyIAMyIAP/noGzCa4RdSKcISa9ePHiILixGYwjHNHeZHMQgU4lBJ3S103WkLnET324jpBGTagVNWMuYxHFmM89/Vy3kBa/GYu/7u/riHH4wX/8Mif79csvv/whl7af13v+Mpc4r169OvwwP/1zzfTv5dA1WdnGb7fxF+Z6zfhb7UXbz+u9HGasaTvvu3aMkePW62PmzX1smhv6yBE/W746bl93jJmr9/5ClQEZkAEZkAEZkAEZkAEZkAEZkAEZkIG/M3A2wRWhh58u/ps3b76KiAhSCG8tukXw4dTdlpC48tt22EY469h9TWxOMTI3PznV2L46hwhgCFfMffv27R9OhbbdMTl0Plx3PSKAZg7iV+eS/uQUATH9tNQpQlz3b11vCWz4niLelo/uX/ljXdTv559//tPe78WZY9QadqgZMbOfzVv6moVmJ/tFPlx37r0X6ce29+C6HFh/x46fvRYbfpiTWs3ckjfj1+XAOtg7RPMtwXXWNvmt9i9jtn9/oFoLayEDMiADMiADMiADMiADMiADMiADMnAWwRUhCMHm119/PQg9CJARcP7hH/7hIFxF6KSN2BlAEYG2BKIWzTIf3xG3tgSkzO125SvjMwfuEdywIR75ffjw4atAtpUDefVaU4vESRu/3CeviGsI1at6rEQ58iBGi4OJsddiR9w55yb1bNvpr/2sBM0ebz9czzHuUw9qwFqpUee/ElyzR9hjg2g+RX/i9V4kF/q6pns5RAiNKM9+dG7xuWqZt2IkOffYdTlQI+rT8xIz9dnKbe5f7Gz9JSIDMiADMiADMiADMiADMiADMiADMiADf2TgLIIrAg+CTQRJRB+EJH64ZlNWols2ayUQZSx+cs9chDCEo/xMAdfhx+8AACAASURBVDdzZzt99fjMoe8j3LEWru+SAzHx02IeeSHWXSeYPXv27Ospz8595ZM8Ux/8Igq2DePE7T6uWds84TrXu7Kb/vp+tferOMlljnHPGt6/f39oWcveXsYPOWCT9azymHsR29nu5cAY+0k87Gb+01fuWUP2BttcZzwtY/zs5YCvjo8v5sdH2oj6cw+xnX2xsf3jQ9V6WA8ZkAEZkAEZkAEZkAEZkAEZkAEZ+L4ZOIvgipCVE4cIWAg3iK/zn4GvThcCaISklUCErxaC9uZeB/v01fOn375HjGJd/LTwtcqXORE600YIIx7jUyCODS1zqCciYfxzj03GO+9cMzfCYvr22i2B7aZ+EqP94WOK4tSi170XZ45FJGxBsuMlh9my3x2T+rUP7nt82vf9Xg6MNevYkd9N9iv+VzbJm7qQf6+BOH/5y18OfeGt25U/6oJdr++YevZ8r7/vXyzuv/svAzIgAzIgAzIgAzIgAzIgAzLwPTNwFsEVIejHH388CEyIPT/88MNBdGxRZ3W6MBsTIYk2fWlXIultxaGV0JQ4M4e+Jx7CFT9Z021yoAarU6odi3zwnTiMIV6uhLPkTst4C3E9trreyp94NxFu43vLH+Orvd+LsxprDlZ1pG+K0h03giZ+ktNqL7Ie5vUpZPr3cuj1r/JnvP0ln+zryia5tO+9HDIfX7BAm760M276O0b6bP3lKQMyIAMyIAMyIAMyIAMyIAMyIAMyIAN/ZuBsgiuCDWLO1ia0+JU5CELzJGREQ4SlPqnHdYtTbReb+N1qO15ONnZf4uHvt99++ypasTZi88M1/qfddTlE6EqMtFkTbfraF/HSn5bakEOPtc3W+qcN/q6rw96e7vnrHLb2fgq7s6bkl3XN+qVuibMSXBlrjrJ301fq2j6xa4EUX9Ou5++NYUvs6S85z/izDtnv63JgnB/sqRst91txGGuGmof4sv3zQ9WaWBMZkAEZkAEZkAEZkAEZkAEZkAEZ+L4ZOIvgCmQINy0MCd73DZ777/7LgAzIgAzIgAzIgAzIgAzIgAzIgAzIgAw8RgbOJrjOE345mXiuos5TfDk1SKsQ7Iv7XBwaR9ZkQAZkQAZkQAZkQAZkQAZkQAZkQAZk4HEzcDbBVZAeN0jur/srAzIgAzIgAzIgAzIgAzIgAzIgAzIgAzIgA79fKbj+/99rKQw+EGRABmRABmRABmRABmRABmRABmRABmRABmRABu7KgIKrguvhP066K0ja+zCSARmQARmQARmQARmQARmQARmQARmQARmQAU+4KjYqOMuADMiADMiADMiADMiADMiADMiADMiADMiADJyMAU+4CtPJYPIvGP4VSwZkQAZkQAZkQAZkQAZkQAZkQAZkQAZk4HtnQMH1Gwmu7969u3r58uXVly9fFDy/0R587y9+1+8vQBmQARmQARmQARmQARmQARmQARmQARk4PQNnFVw/f/589fz586snT55cPX369OrTp08HsRHxkZ+5wYiRiJLMz8/Hjx//NG/aPYT7cwiuxEjdut579dnaoz0bxl6/fv011mPZo+vW7PjpH0jW1JrKgAzIgAzIgAzIgAzIgAzIgAzIgAw8dAbOJrhGyIsYh9j64sWLK/r3BNdXr159FWYferG/Zf7U/boTtRG4e4+o/3WncNk/BFfWx36yrxHTv+Waje0DWgZkQAZkQAZkQAZkQAZkQAZkQAZkQAZk4NwMnE1wXYmqb968OQhzjHGd068R7xD6tgRXbN6+fXs4Kcspzti0kEsxp4i4KvBKJOx88ckJUeKQI/PxgzBJfjmF22PMyXqwwx823T8F0B7DJsIn/ayPWPQfe1q110r81Kj7+5o45ERL/179YzfnpFZZb+bZ+nCTARmQARmQARmQARmQARmQARmQARmQARn4Hhg4i+CKKIfY9+uvv34VJ7lHlENUpI2IiNiXE5IRSxEZ+WmBEpsInJkXgRLfuUYAPPaUZkTCFhGnCInf5MF18gYW7OOjr1cgzbzmGroOXLPW9h3xlDb1SZu1EzfjqdUql/R1TPrm+jKv264P84mDeJ5ce67XPlRlQAZkQAZkQAZkQAZkQAZkQAZkQAZkQAYeOwNnEVwR5RD+Pnz4cGgR5iJI9jXFbrFzFh8f/NAf+8zpe3z2PO4zb6ttAbSvsY2QmbYF18SZfmO3Nd4xsG3hMr6wxc8co2/Lb2xni80xomvyZq0I1fyQ6/SX++T2/v37r0J070Xm2fowlQEZkAEZkAEZkAEZkAEZkAEZkAEZkAEZ+B4YOIvgimCXU48IeghyiK8R81qg2xNcW2hsGzYKAZI+rvHBPSdq+doB7o/ZzP6KA2Jh0zGnj72xzGUO4uUUSE8luOI3QnDa5J4caBFGc3K4+/euI6bSbs2jtgjQEaGZ13uxZWe/D1gZkAEZkAEZkAEZkAEZkAEZkAEZkAEZkIHHyMBZBFcEux9//PEgXiIK/vDDD38QIVs83RJcI+xFVG2blZjIOGIrJy+P3TiESmwQDCMyrnzH3zGCK3OnuLrqy/oilmLz7Nmzgy05IGgmp2PjJk9abFoUpY917p16XQmn1LW/RgE/vRedd8f32geoDMiADMiADMiADMiADMiADMiADMiADMjA98DA2QRXxDtExVVRW7BrwRWBEUEwJzeZF3uu008boTLjtxH+Eo9c44cW3x0reewJn/hom+RHXgiWPZZ4cyw2txVcO4cptrIuxqfg2nXNOrsW9E3BNWJx1pS8285rH6gyIAMyIAMyIAMyIAMyIAMyIAMyIAMyIAPfAwNnEVwpJOLeSsC7bZHxtedvTwy9bUztfCjIgAzIgAzIgAzIgAzIgAzIgAzIgAzIgAzIgAzsMXA2wXWeglyduNxLdI5tCa4IrZy0nP7n6dGcxqTdE25nXO99QcmADMiADMiADMiADMiADMiADMiADMiADMiADGwxcDbBdSsB+4VTBmRABmRABmRABmRABmRABmRABmRABmRABmTgsTCg4Pq7MD8WmF2HLMuADMiADMiADMiADMiADMiADMiADMiADHxrBhRcFVz/8B+EfWsgje9DUQZkQAZkQAZkQAZkQAZkQAZkQAZkQAZk4CEzoOCq4KrgKgMyIAMyIAMyIAMyIAMyIAMyIAMyIAMyIAMycCIGFFxPVMiHrLqbu381kgEZkAEZkAEZkAEZkAEZkAEZkAEZkAEZkIHTMKDgquB6o79efPz48er58+dXnz9/vpGdL9jTvGCto3WUARmQARmQARmQARmQARmQARmQARmQgctm4KyCKyIdYt2TJ0+unj59evXp06eLE+3evXt3yI8cX79+ffb8iImoeakvnHMJrtSBPWA/jq1FbLA7tobfer+PXZvzLvtB6v64PzIgAzIgAzIgAzIgAzIgAzIgAzIgA2HgbIJrxNYIYYitL168uKiTkuT48uXLb5rTpQuuAee+2i9fvhz2AE6oxbGCK/OYT17sI2xdJ+gzDxtiTj7va3369eErAzIgAzIgAzIgAzIgAzIgAzIgAzIgA4+bgbMJrghiUzx78+bNQRSj/+3bt4dTr/NkKaIZp2Hpzz9ljyjXAhtj8U9/hN0pojIHX+0vkBPr1atXBwEufbT4WtnQz3xE2vaHH/oQ/ciLdTLO/OQef8yjr2NkLOvtXPp6JSyyvtRhxiIG9qlJ8kpuGSNuclj5mnnNOLHBHzHY2+mv17F1zT62r615xGcfIrCGmWNs22dz0/1eP+6HoPvr/sqADMiADMiADMiADMiADMiADMiADJySgbMIrghiiFm//vrrV3EyYhoiIMJYRLwWESMM0rJo5kagbJEN+xbXWjhrH33dRaS/RUbEwXzlAeJdn8TtHLjOPPwljwh+Hz58OOSbtXaOiR+b3Hfu6dtr275rgk37Yo059Zn1Jh/yjdDc/lZxVzXM+phPDuwRtUkO2bOuJeMRYdPip2O23+6f150TftlLhN6sb85f3Xd9VuP2+eCVARmQARmQARmQARmQARmQARmQARmQARk4hoGzCK6IWYhnCJC0iGIR9vqahFs0XIlyEe+YG2Gz++hPDK5bjIsY2CIpc/LTwmP6yAF/uW9/cyxz4oe5OXmZ9TIHfxEZaVsY7Nzjb69NLNbW18TeEpF7DdN3at5r7jnTtvcr8+Za8cnYtM38rZYcujZb8+L3/fv3XwX5zmHLLv3h4phYsbH9++vGWlgLGZABGZABGZABGZABGZABGZABGZABGfg7A2cRXBECc+IQ8Q1hC/F1JUa2gLclaGYDIzAizGGX/hYtI8bRZjwC2xRe4699zRza3xyL//hh7lwjNjnNy/wpDHbu8XddS22JiS/8M7/znPZ7Y5mLH8Rg8knfym/vV+b1mno9HTf+W3iesbjHV/xutdnPFt5vajtjb8Wy/+8PD2thLWRABmRABmRABmRABmRABmRABmRABmTgzwycRXBFaPvxxx8PYiAC2w8//PAHMa8FuhbwsMs/g5+b12PYt2DWYhvXLXC2H8YiUNIfobQFV/r6KwWIFWEP244b3/FDjivBNfaMk1uLip17/F3Xkgffk4otPjN/yxdzyKHnxqbbrKPrsbLtOIyzptSVsVyvbDvevG6/PUa9plhOX+pI3s+ePTvsZ+zowyZz0k8MfnJv++eHhDWxJjIgAzIgAzIgAzIgAzIgAzIgAzIgAzJwPANnE1wRtVq4601qsawFV+Yg1vUpSOYyB8Ew4lnuI5xFXMOO058RF7ufsQifyYVxBNKZJ3GSQ4u35JaY8UEbPwiMU3BNrvjDV07+xr5z7FgZX7UROWcu6U/uWe+e8ImPzKdtsZR8eqz99Vj2hVzx1z6yF6t1pG/msBJXZ1/XtfOOz9S1c5tsYZc1xc72+IeJtbJWMiADMiADMiADMiADMiADMiADMiADMvD71VkEVwqNiNZil8X3BSgDMiADMiADMiADMiADMiADMiADMiADMiADMvDYGDib4DpPIHqS8LgX0zyl2idMEbEfG5Cu5zgurJN1kgEZkAEZkAEZkAEZkAEZkAEZkAEZkIHLZOBsgqsAXCYA7ov7IgMyIAMyIAMyIAMyIAMyIAMyIAMyIAMyIAOnYwDB9R//8R8PP08s7OkKay2tpQzIgAzIgAzIgAzIgAzIgAzIgAzIgAzIgAx8fwwouP7+/W26L3T3XAZkQAZkQAZkQAZkQAZkQAZkQAZkQAZkQAbuhwEFVwVXvwdWBmRABmRABmRABmRABmRABmRABmRABmRABmTgRAwouJ6okP5F4H7+ImBdrasMyIAMyIAMyIAMyIAMyIAMyIAMyIAMyMBDYkDBVcHVv17IgAzIgAzIgAzIgAzIgAzIgAzIgAzIgAzIgAyciIFvJri+fv366uPHj7sb+fnz56uXL19e0Z5Cxf706dPVq1evrr58+XISf+T/5MmTrz9ZD/k+f/78az9znj59ekX8OUYdem3cM//du3d/6O85XvtXHRmQARmQARmQARmQARmQARmQARmQARmQARm4TAa+ieB6rPB56YJrQ82aXrx4sRSHt9aB8IugjFDb14iuCq6X+YLpPffaPZIBGZABGZABGZABGZABGZABGZABGZABGZgMfBPBdZ5ujdiY06I59Rmh8s2bN4dTnzklyiIQOLmPTQuUzH/79u2fxlrozUnTxNrKYRZs6x7RFPEUP3MOuXV+GScHRFrySh/tTQTXvTq0T6998cuADMiADMiADMiADMiADMiADMiADMiADMjA/TNwdsE1IiptNhixMsJn+minKIpouZqHyMlXBUS4ZE7ET/py8pRr5iWHFkG3cuh8Vtf46K8MmHMSq9fbImnnENubCK6xoZ116DGv7//FZI2tsQzIgAzIgAzIgAzIgAzIgAzIgAzIgAzIwNkFVwTGKTJGgIxIGjCnWNmiKGP9Pal9+hXBkrn4aR+Js/qO1IzNHPARURU7YrZ4mlyxf/bs2VfRN/3YrkRixnOqdtZjJbhu5bBXh+Rg6wtdBmRABmRABmRABmRABmRABmRABmRABmRABs7DwFkF1xY/Vxs8Rc85vwVXRMkImfNkJ/1bgisnXPmJ7cxj5jDHt+4jniYu88h/9ZUB7WMlyJLbFGHbpq+Zm7XMOvQ8r8/zgrLO1lkGZEAGZEAGZEAGZEAGZEAGZEAGZEAGvm8Gziq4tmC6BV6LrH3N/LZvUZL+Y0+4IrYiTLZQOXOZcef46h6hNl9dkPGVmJox2pVIS3+vreevrnvurMNqvn3f9wve/Xf/ZUAGZEAGZEAGZEAGZEAGZEAGZEAGZOB+GTib4Lp3+rL/uXz/c/8pfLbgmpOozM+pVfoABhGSuVy3D8YjuEbszFcIbOWwB2DbzK8aIO7qdGvnTe7JM3nTl58WkbfyaH+zDls29t/vi8r6Wl8ZkAEZkAEZkAEZkAEZkAEZkAEZkAEZ+H4ZOJvg2mKpwH2/wLn37r0MyIAMyIAMyIAMyIAMyIAMyIAMyIAMyMBjZuBsgutjLqJr8yEhAzIgAzIgAzIgAzIgAzIgAzIgAzIgAzIgAzIAAwquvwuCDwMZkAEZkAEZkAEZkAEZkAEZkAEZkAEZkAEZkIHTMKDgquB6+K5bX1CneUFZR+soAzIgAzIgAzIgAzIgAzIgAzIgAzIgA983AwquCq4KrjIgAzIgAzIgAzIgAzIgAzIgAzIgAzIgAzIgAydiQMH1RIX0Lxff918u3H/3XwZkQAZkQAZkQAZkQAZkQAZkQAZkQAZkAAYUXBVc/euFDMiADMiADMiADMiADMiADMiADMiADMiADMjAiRhQcD1RIf0Lhn/BkAEZkAEZkAEZkAEZkAEZkAEZkAEZkAEZkAEZuHjB9cuXL1cvX768evLkyeHn48ePV+mjn2tAfvfu3eHn06dPV8+ePbuipf/z589Xz58/P4zdBvjEIj5+8HcbP3exYc3Ep82aWPs//dM/HXJKf3J9/fr1nXLEPj7vkre2PmBkQAZkQAZkQAZkQAZkQAZkQAZkQAZkQAa+NwYuWnCNgIiYysYgdr548eLqr3/969WrV6+ufvjhh6/CagRX5nEd0bGv77K5xEbk/FaCKyLymzdvvtYhuSCMRnju67usVcHVB+Fd+NFWfmRABmRABmRABmRABmRABmRABmRABr5nBi5acEVAjHCaTUJA/emnnw6C6/v377+KkC24Rqh9+/btQaA9ViQlXk7SztOsK8GVU7RPnz79akMOyZP5+Ii/HuM6/TNO7LtNHRBciTlzoUaMIUbnZC/2qUNi4Yd+5mCDUMtYcuj1xyZj+ELkpqYZYx3kMuPiu9fba/HaB64MyIAMyIAMyIAMyIAMyIAMyIAMyIAMyMBjZuCiBdcIjAh4iHwIhB8+fLj6y1/+chD/fv7554NwiOiHwNciX8TQ7tvbSOYjHOJrNW+KnHNOBMkInjOfzN/yM8VR1ouYi78IrrT4nT64RxilTolDy31EVuZEGE1tMjYF0raLv+SXGJ1Dr7X7Y2vrQ1QGZEAGZEAGZEAGZEAGZEAGZEAGZEAGZOB7YeBiBVcEvgh/nKxEXEWARSSM4BoxMoIfbTaOeYiW3ZexVRsfqzH6VkIifQidOfEZgZT5iR+BMn4jXPbcjG21+MJPavLLL7/84esNIqB2rJlbC7jMp6b4I+Zce+re+TAXG2y7n+v2R67H1nz68d4HrwzIgAzIgAzIgAzIgAzIgAzIgAzIgAzIwENn4GIFVwRDhD9OtCLgRcijL18pgNCXefxT9wh9ERv5yoGc6rxuo6boOOfjM9+bmjFy4Yf7LUHyWOEV+/wT/yngRnAlDnmyruQSO9ZPH3OZt8o3ebdAGp+pHfesKX5is7W+jOc08o8//niInX5bH5IyIAMyIAMyIAMyIAMyIAMyIAMyIAMyIAPfEwMXK7gi8CEicrKV06D8p1G0ERr7tCUCJPcRDVsIRTjEBn97G8u8fF/pat5KwCROYmK/dWp1CpztfyVu9jjX+GYe1+TBdepA/KyPOP21CJ1f+5z54CPrYN7K7jrBlRwRXRFcO5bXPlBlQAZkQAZkQAZkQAZkQAZkQAZkQAZkQAa+JwYuWnBF+ENgnBsyxT8ERMRORMMpnDIXQRJf08+8xz6nSyO+Er+/NoDxFjiJSx+Cb4vAxIsvWvIiXnLNWHzNXPq+BVf68U1O//yf//ODEI3PzGcsPmfu6b9OcO0cU4dZ88RLm1hZZ/ptfaDKgAzIgAzIgAzIgAzIgAzIgAzIgAzIgAx8TwxcrODKJiCAHiOUfk8bdqlrnSLupeZpXj7gZUAGZEAGZEAGZEAGZEAGZEAGZEAGZEAG7pOBixZcWXifFM1py9sUpE9t5nRp2v7n9Lfx/T3bpK532ZvvuX6u3Qe8DMiADMiADMiADMiADMiADMiADMiADDwuBi5ecBW4xwWc++l+yoAMyIAMyIAMyIAMyIAMyIAMyIAMyIAMPGYGFFx/F/DHDLhrk28ZkAEZkAEZkAEZkAEZkAEZkAEZkAEZkIFzMqDgquD69T/cOid4xvJBJwMyIAMyIAMyIAMyIAMyIAMyIAMyIAMy8BgZUHBVcFVwlQEZkAEZkAEZkAEZkAEZkAEZkAEZkAEZkAEZOBEDCq4nKuRjVONdk39lkgEZkAEZkAEZkAEZkAEZkAEZkAEZkAEZkIGbMaDgquDqXy9kQAZkQAZkQAZkQAZkQAZkQAZkQAZkQAZkQAZOxMDFC65fvny5evny5dWTJ08OPx8/fvzT5jPn1atXV58+ffrT2EqBZ97Tp08P/p4/f371+fPno+ymL3JJXu/evfuTj9evX1+t8p1+VvfkxLqPyY3Yq/grv/bd7C8S1st6yYAMyIAMyIAMyIAMyIAMyIAMyIAMyIAM3ISBixZcI7ZGTER8fPHixZ+E1ZsKrncRQlfF3RI87xJHwdUX8oo1++RCBmRABmRABmRABmRABmRABmRABmRABi6bgYsWXDkdimjZECFu5tQoYzlhyonVnHCNUJuxzMfPljjbp16xa5G3T5pu5ZT5xGBOYqc95iTtzLtteq3pnzkTq+sw8+g6dE29vuwXqfvj/siADMiADMiADMiADMiADMiADMiADMjAw2HgogXXN2/eHETUiI0Inx8+fDiIoQicEWOniEp/xMU+FRs/EUFpWygNuO1vnjTFb+JmPj5WfjqPzJ0iKDnEH238zLixp505bMVvmz1/Pc/rh/Pida/cKxmQARmQARmQARmQARmQARmQARmQARm4PAYuVnBF9Ixgyfez/vzzz1cIsIiNf/nLX/7wna1TIOUEaIuqfeqz5zaQCJJtF5spVE6xEx9bgmfy7zhb1zPOvCdGryki7V78eQI2J2O3crD/8l6g7ol7IgMyIAMyIAMyIAMyIAMyIAMyIAMyIAMPi4GLFVwRHBEVc6IVoRPRkb6ffvppV3DtrwCYQG4JrviNiNlzpvB5V8EV+xZOc8J1xul7hNNnz559/cqEmcNK8GUN1IExatD+Zk28f1gvWvfL/ZIBGZABGZABGZABGZABGZABGZABGZCBy2XgYgVXBMO3b98eTrZy2hTBkRYRkTHE0YiJtDmRCmw9NuFrMbXH2gZBM/4QKvMfdXHNKdEIs7FfCZ7X5RHbtBFIiR3bnEhFcCUH4mde50D8vsc+8+KPOfGXmLaX+8J0b9wbGZABGZABGZABGZABGZABGZABGZABGXiYDFy04IqIiMi4gqv/uTzCLF87QB9zI4zmJGlEWsa2BNf2h6/2h1iJL0RYYkXcTH/i0EbgJFb7PEbsxDa+3r9/fxCXs35irnKY641QTH/74+sY9k7+Mt8fayADMiADMiADMiADMiADMiADMiADMiADMiADd2PgYgVXNnZ1ctMNv9uGWz/rJwMyIAMyIAMyIAMyIAMyIAMyIAMyIAMyIAP3x8BFC65sfE52crrzmFOiwnJ/sFhbaysDMiADMiADMiADMiADMiADMiADMiADMiAD+wxcvODqBu5voPWxPjIgAzIgAzIgAzIgAzIgAzIgAzIgAzIgAzJwOQwouPrdpX53qwzIgAzIgAzIgAzIgAzIgAzIgAzIgAzIgAzIwIkYUHA9USH9K8Ll/BXBvXAvZEAGZEAGZEAGZEAGZEAGZEAGZEAGZEAGvhUDCq4Krv71QgZkQAZkQAZkQAZkQAZkQAZkQAZkQAZkQAZk4EQMKLieqJDfSjE3rn+tkQEZkAEZkAEZkAEZkAEZkAEZkAEZkAEZkIHLYUDBVcH13v968fnz56vnz59fffz48d5j3ebh8u7du6uXL19effny5SLzu82atmzYA/aCPdma8730UwP2vWsBC/x8LzW4j3W+fv36u3k93Uf99Hk5b5DcC/dCBmRABmRABmRABmRABmTgtgw8KMH1WDGED/ynEvdWosxti40d/hC8njx5cvgh11U/40+fPr369OnTQQhEGIrNFAepC2PxdZf82pbYr169OsS/Sx2y5mP3ZG//7pIHflPDFtW4njXtOvQ1omz2Yk+4ZB61o4Ztf67rMDG5OIfgSuyu77nWPONkr1a5ZGwyudWP75ty3PlMHu7Ccfu96/VNedh7bSYX5hz7eorNqu3nzxy/y15MX977BkoGZEAGZEAGZEAGZEAGZEAGZODUDDwYwfUmAsUxosCxhbxJ3GN9Zt514g6iBfEzPy3ri4iUa+65zpxTtF3H+6zDzLXjzrHb5rEn3swYx9xfl8cU2I7xeao51+V2qjhbfmAxfG7NOUd/Xl+rXPZeL7Dy4sWLP732qOttT2pPHr71HqX+9yG4xvdd273X7F324q55ae8bMRmQARmQARmQARmQARmQARmQgesYeDCC6xRxIqbkxGKLjVy/ffv2cEKU8Qgu06ZPYTGnbeKvhZHYxy73qxyuKzzj+EbYQViY8+d6M56Y82Qe85Nz5m618ZG8s56eP8WO1OHNmzeHU6I5fYsNuXCaEz/47JOf5JU4q5wz1nZb5nmNwwAAIABJREFU+0d/z+f62DUTe86NaIOfWYNZo5l76kHbdescu0Y9Z153HuSSWHv9xKHmzJ9x5t4Rr9fT+5Ncep/wuZqTuWnJk7kzB3zBCT4Y67p3fToGOTO2Yqhzx1/qkzz2WnzO+fi77vTxbe1mLr3e7FP3pX70YUtL/eKH3MMmNeUZFZs5L/2ZHx977YoV5jcP7Y/8+jmZHPDD+rZy6DXHhjhzbxmbffE57a7bw711O+abIxmQARmQARmQARmQARmQARmQgftk4EEIriuBBCEiIsUsEP0RcxACVqfVsOEDfD7E08YGoStCKNcIDrT47Zh7Ocyc+r7FicTv8Y6ZfvpWAlbG8dO5pf+YFtuZx+xL/MxrIYjriEnEm7b0kRvzkk/vSwSWjDM3e9HzsF3VJj5Xbdc6wk18Zz5zEG/II32dLzHDQ8ZXebDu7MGK2dh2O9eesdnfOXDNGrIXiZv+rJO29wXfq7y7xjNu8pnt3vrIJ3E77+mD/U69sk9hIGvCZmsvYtPrbXFwxsv9ar8zlrbjp++mbfuY9VrtA/5nbr12rrO+ruu06bjYdH24To231sN44jBn+stY59C+VvnggzmTL/LLWPvgevqZ49775kgGZEAGZEAGZEAGZEAGZEAGZOBSGXgQgmsLMykkH8YRdfLhP/20LVJMYWMKEPmwT5vrFkew3xI693LIWMSOlcgR8SFxswbuyTP3s2Vsjq9s9nLYqgOxZs1WfT1ntT+rnLsG5BYhPHXIOLnluuOs8phxtu73ciSXFlx7z7N/ERDjf+bVzDBn3sdutjN2xqd/+lOXOTbXtuUTH9OWvr29SD6rNgxlrzIHFsP0rAP9qSktPpJD70HW8Ntvv319/cVu7kXiHtvGN7lt2cyabs3b6p/rnverfcBXz2MO9Ume2f/EzP2sadc1c2/S9v5h1/VKzPib93M+ufOMzt6lpb5bNYjvjps+W99MyYAMyIAMyIAMyIAMyIAMyIAMPAQGLl5wbQFiVVA+lE/htUWA/lDPh/w+3djCQl93zNjzz3lX4i45rXJY5brqIy75Zox48zRlxtKyjpnL9JO5q3avDszvWsQ+daClr8UQ/PUaYtNt7wn9+ImQPQWinjvjzvuOsXe9l2OvJblR36x15Xfm0cwwf96vfNA3Y2fe9E9/6jLH5tq2fOJj2qZvay+Sz15LXuwheTCv+ek6kNezZ88Oa2Ze5z1zZow9QHDd2gtseO1HxKOdr4tV3jPWak6vYTV+XV+vm7nzfrUP8cnaiU/LT/qz//HHWjOX+ZnXbfama9Q+e26u59q7XjOH1T/r7/lz3YlBu1cDxttP23ntmysZkAEZkAEZkAEZkAEZkAEZkIFLZ+DiBddjPnTPD+4tCvQYQkMEGfoRmSJUtMjQIkHbMyf2c2N73hzbuidORJPMIQb5537VMp68M36MXebu1aHXnvm0c30dD3/H5NxCz57N1v4lj+sE6c4713vxVoytahxfyYO9oy7pbxvqc8xJTOzhsGuDv8kGOUasnHsx17ZaT3KctvRP+8y9Sct6+cGmr5sn8pqnmsPNzLlr2dc3yWlrbue0NYeYc0+25m71d96TB/Zhi2PGsOWPPFzHf+fUtezrzL1Ly7r7OUdcfvC5lUPHm3vJ2mPf88J4uOkxrk+9runfe9+gyYAMyIAMyIAMyIAMyIAMyIAM3BcDFy+49gf8LgIf0vvUVn9ob5sWmPIBHztELgSN2NHmugWZtic+vrGln/lbOXSufY2I0KfyWtTB50qEoZ+YiZU88TtzYE777Ni53qsDtitxZObQgsyWDfHwlbxpI0JOf4wlLm3WwLwpbPaaY5O1bbWrHOdedA4zv6x39mOTsfbHfyy0Ov23yq/t8Je1b/XPmsy1Ydf/PJ+Ye3mvxq6r67TJa4JY7E8Y7dcSY/hljXBAjRJnrjX9q9xTb8Zu+0N+HaP9kEuE4e6/6XWvacXDHsfkNvPjntqlfvhPTu2rGcr4TduO1fXu/ryWp2/yav76eUNuzcrkKNzEZ8ebY5lje/vXgbWzdjIgAzIgAzIgAzIgAzIgAzJwPwxctOA6P7gLwf1AkLpOcSz999EinrSAwl6fQuS6j1wfu89L2Itzv9YjAkbczh5v9Wf8HO3W6xDxceZ7jnxuGmP+AeCm9s6/3+e89bW+MiADMiADMiADMiADMiADMnD/DFy04CoA9w/At6oxAluf9N06LXdMfgiGOfnX7V18HhP32Dl9Sq/z65N+x/q6j3mn3Ivb5nduwZU8OV3J6U3a5D3F5/Sfo43YCyMrYfWSBdd+DV4K1+fYM2M83t9R7q17KwMyIAMyIAMyIAMyIAMycBcGFFzv8M+S71J4bX3hyoAMyIAMyIAMyIAMyIAMyIAMyIAMyIAMyMDjY0DBVcH16+k+X+CP7wXunrqnMiADMiADMiADMiADMiADMiADMiADMnBeBhRcFVwVXGVABmRABmRABmRABmRABmRABmRABmRABmRABk7EgILriQrpXwrO+5cC6229ZUAGZEAGZEAGZEAGZEAGZEAGZEAGZEAGLpEBBVcFV/96IQMyIAMyIAMyIAMyIAMyIAMyIAMyIAMyIAMycCIGFFxPVMhLVNO/t5zyv7zzP6Z/D2vnf7L3f4T/93/J+/z589XLly+vaNl7WHj16tXVp0+fvgsW7ov3169fH+pKPe8rhn79a7QMyIAMyIAMyIAMyIAMyIAMyMBjY+BBCa4IaceIaYgEiFGn2Kwp5NzVJ/4QyZ48eXL4IVd8zn7Gnz59ehCMIiTGBmGpBRBqwlh83TXH2CNWIVp1rIxR37vE2/OdGFtt1yo1Ym7qdAwjzG8/s6Ydm3kt5vXYOa6pc/a+13YOwZXYp3ot3aVW2atVLtn3OQZjL168+CrCdvy71G7yMO87zjmvYWOP487l2JzZ/2N9tv95TW7Nbo/fZS/aj9e+QZMBGZABGZABGZABGZABGZABGbgUBh6M4HqsQEBhTykS3STuTTd1SyjCz15c1hfxItfcc33THPbm79URkeQu8e4iuO6JN3vr2Rq7Lpe9vdjyear+63I7VZwtP3sMbNncRz97wB8qpqhKrD32t8buIvJNHub9faz/GJ+s9Vhx9Nw5771m77IXx9TFOb7hkgEZkAEZkAEZkAEZkAEZkAEZODcDD0ZwnR/YI1bm5F+Lf1y/ffv2cEKUcWwp7LRpcYI5bRN/LUzEPna5X+VwzEbimxN4iGpz/lxvxhNzCk/MT86Zu9XGR/LOenr+SuijjxOlsUu82Z9644/rN2/efD3Vm1jtnzogpsVf57G6Zt5cP/fJq+NjP9c7bTuXxJs2x/7T/c6jbbLG5JgciM16qAtjbUMuzJt16dzm/B5LrGmfNXZLzTK/fWLbr4uuLWMrG+a0TcdvVjpO57K6Zl2rrwjY6o+Pfv2mj3a15z0+r2ddk3vXILWgb/Xapp/aMMY168GmT2kTtxnK62Xms7q/jhViZf9SF16bM4feI8Y6h1mHcEw++KQu2PDD2PQ1Y2F3071Yrd0+3zzJgAzIgAzIgAzIgAzIgAzIgAxcEgMPQnBdiSorcSGFRcyIIMKH+a1/Voz4EAGCNjYtlkSYoMUvP4mzl0PmrNoWIRK/53XM9NMXMaNzyDh+Vv0Z32uxnXnMPuK3OLy19rlX+EldyYEcI8QgOGWtM/4qX+ZEzEk71zzz7phcz3XQtxJ88JuckiPtKq/0bbEWkYp1zxzCQsYSN/1ZJ23XMX4Qwzovck5NtvJJvmn31oevxN3z1zyQQ2x67TMONhHzuO61cp11JM9VS05bX3vB/I6/sj+2L/vC/LmOeR+fzWLP4Zr6hK+uw1xP9jPr6BpNoTZxu+2844N4ezm0/cwHf9gzBx95JrTvts911yJ9tr4ZkgEZkAEZkAEZkAEZkAEZkAEZeKwMPAjBlQ/4U3xBCEBwiGDTGzRFgRalGGvRIqJHCwKIBzlNF2FiJQDt5ZCxxIpI0XlGpEgOGeN+rjdjtIzN8ZXNXg5bdcA/a+6a0Tf3oO+7Rqy3haCua6+hc5vr73mra3Jf1ZO5M97MbeaHDbm0aDfXP+9XOa1iZ97KPmuYsWf+Xef4S7vyi33YwPfWHxvigzYc9r5lPHlyP+MRK3zTJu5cQ+5ZS8/nevX6Texj2lm/lU2vYTV+Xd9c93X38de5sXbqwNie/axp1zV+j237ORab7MVeDplL22vABqG49zDM9Ly2z3Xi5t7WN1UyIAMyIAMyIAMyIAMyIAMyIAOPmYGLF1xXokFvCB/0p/DaAksLC4geOXmHjxYB+rpjxp5/erslDq1y6Bz3rokboYp5xMupsS071jFzmX62bOnfqwPjXYv4wabz7Hv6M9a12/JFfwQahM7YJtZ1LfOJv5o3c8/+0a7m05dcyJ37aTPvt/zM2Jm3ss8aZuzpo+scf2lXfpnfgthWneKjW9YPVxHRGEueXHc88n727Nmhdox1nnMN+KCv53Tc2HfexwqNs37T7+Rxjh9z3+tm/nX37ZPnBjn++OOPB7uVPeMRxmft4it70zXqfcq8bldrj/+5hq06dv+06Vg9r/tznbi5t/WNlQzIgAzIgAzIgAzIgAzIgAzIwGNm4OIF1+s+yLM5UwjYEokQfCJUYtP/rLcFgRYq2jdzYj+h6HlzbOs+IkqLYsQg/y0b+iNg9Zxj7DJ/rw699synZR8iCqV2ybPzwXcLQV3X6S+nSrGPr56zdc3crlnPW8Xr/Hpuridjc1+wb6E+drMlp9W86Y94EStn7Jk/Prdqs2JurzYz36379tHXHa95yPqSZ68Bm/wBoa+3Yt+0f4vX+Omc03fTNusLc6yz93lvXdgguiK4Ju7MiXqldl3XzL9Li1/844O45E1Oezl0vMln++t57bv7c91rTJ+tb65kQAZkQAZkQAZkQAZkQAZkQAYeKwMXL7jyAT9CR28CH+D7tFdEBea0TQsLEU6wQ3hACIkdba5bxGn7+I7YwvytHDrXvkbAQJCMXa+NWBGn2iZiRmySJ3NmDsxpn+0n13t1wJb6ZW639OOf9b9///7rvF4TIio/9GFLfp1v/LWQk3y2xOzYpO39Td9eHWb9EqfzTm2zduqQPtaKDX4Sb6vtPMIJc2es7FHXgXmzXqv9mOshz6yp807+ibWV88wtvpjftSZu1yE8wDP/SVZq1zUgh44/82PuVl7H9uMjsafN3ticu3ffea946DV3LtmrrkH6sj9db3JoX7N+ezmuxmYsfDNv9s8c4mvyuWc3Odpac/9BJnFsfZMlAzIgAzIgAzIgAzIgAzIgAzLwmBi4aMF1fth/TIW/xLW00HyJ+ZnT/sN3tX+nEhxvUntiRti7id1t50awb4EPXzw/cir7tr7vard6hiFatnB91xj3aU9NW0C+z1j63n99Wx/rIwMyIAMyIAMyIAMyIAMyIAMPh4GLFlwF6eGAdKq9QtzJyb9u+7ToqWLd1M883df5XYoohdDZeW2dXLzp2m8y/9yCK7lNEXMlPt9kDXedm9OeK25nrneNdWr7ZmiV/6nj6e/7e8675+65DMiADMiADMiADMiADMjAY2dAwfV3IX/skLs+GZcBGZABGZABGZABGZABGZABGZABGZABGTgXAwquCq53/g7Nc8FqHB+MMiADMiADMiADMiADMiADMiADMiADMiADl86AgquCq4KrDMiADMiADMiADMiADMiADMiADMiADMiADMjAiRhQcD1RIS9dWTc///ojAzIgAzIgAzIgAzIgAzIgAzIgAzIgAzIgA/fPgIKrgqt/vZABGZABGZABGZABGZABGZABGZABGZABGZABGTgRAwquJyqkfx24/78OWGNrLAMyIAMyIAMyIAMyIAMyIAMyIAMyIAMycOkMPCjB9d27d1f8XFfU169fX338+PHaedf5Yfzz589XL1++PLTHzL9uDv6eP39+9eTJk8MPuSZO9zP+9OnTq0+fPl19+fLlkENsyIe+xKImjMVX+u/aEvvVq1d/iBWf1PfYeKfcj8S39eEqAzIgAzIgAzIgAzIgAzIgAzIgAzIgAzJwiQw8GMH1JsLnKQW+m8S96QZHSF2Jw3txWV+E51xzz/VNc9ibv1dHBVcfaHvsOCYfMiADMiADMiADMiADMiADMiADMiAD3ysDD0ZwRVCMyMhmRazMqc8WG7l++/bt4YQo47GbNn1SlDltE38tfMY+drlf5XAMUPh+8eLF4RTrnD/Xm/HEnCIt85Nz5m618ZG8s56evzrdSh+nbmOXeLM/9SbHzE3LKV7WfUwOnY/XPqRlQAZkQAZkQAZkQAZkQAZkQAZkQAZkQAYeAgMPQnBFnOOftiPspah7JywRAiPsYYOoicgX27QtanIdmxZCuUaQpMVvREZ87OWQGKu2BcqIkz2vY6afvnzlQOeQcfys+jO+13YdMm/2Eb/F4a21r/aKvJgf36t2xlvNsc+HqgzIgAzIgAzIgAzIgAzIgAzIgAzIgAzIwKUz8CAE15W4F9FydTqzBb4pXjKW05a0CH1sUgt+LRruCZ17OWQssVaCY055JofAwv2eeMrYHF/Z7OWwVQdymDWjb+5B33eNWG++ezbrIdZq/Xs5xNbWh6gMyIAMyIAMyIAMyIAMyIAMyIAMyIAMyMBDYgDBlZ+//e1vV08uMfEWP1f5RVRs4bUFvhYPEf1yihVfLbL2dceM/Zs3bw4nXRmbeaxymHO27qdQSrw+SbqyYx29XuZMPyu79O3VIb7wl/m02FDX9PU9/Rnr2mVu70f6rssh82x9oMqADMiADMiADMiADMiADMiADMiADMiADDwkBi5ecEXM5OsEVkJnCh1RlJa+Fvh6DJEvQiX9iK8RFmlz3aJh2zMe+8RO2/PSd11LHPyRV+YSI+Jl+mbLeHLN2DF2mbtXh1575tOyD/lqhtQueXY++F6dcJ357uXQcb32gSoDMiADMiADMiADMiADMiADMiADMiADMvCQGLh4wRUxrwXJFBcBL/9cv78agPG2aSE0AifzEVs5tRohkDbXLTq2fXznlOxeDslztjkNm9x7bcRanW6NwBmb5InvmQNz2ueMz/1eHbCNkDpt6U/t3r9//3VerwlxfH7fbo+ndns5zLje+1CVARmQARmQARmQARmQARmQARmQARmQARl4KAxctOCKUHfd6daHUuiHkGcLzQ8hX3P0QSsDMiADMiADMiADMiADMiADMiADMiADMnBpDFy04HppxTIfX8AyIAMyIAMyIAMyIAMyIAMyIAMyIAMyIAMyIAN7DCi4/i4ge4A4Jh8yIAMyIAMyIAMyIAMyIAMyIAMyIAMyIAMycDwDCq4Krl//wy5fOMe/cKyVtZIBGZABGZABGZABGZABGZABGZABGZABGVgxoOCq4KrgKgMyIAMyIAMyIAMyIAMyIAMyIAMyIAMyIAMycCIGFFxPVMiVmm2ff+WQARmQARmQARmQARmQARmQARmQARmQARmQge+LAQVXBVf/eiEDMiADMiADMiADMiADMiADMiADMiADMiADMnAiBhRcT1RI/1Lxff2lwv12v2VABmRABmRABmRABmRABmRABmRABmRABlYMPFrB9d27d1dPnjw5/Lx+/fqg0NP39OnTq0+fPh3uaV+9enX122+/XT1//vzq48ePh/4vX75cvXz58ip2q8Jd19fx4/c6m1OOf/78+bCmXgPX5ELb/eTK+rHpHLinDrO/5+QaH/zk3tYHjgzIgAzIgAzIgAzIgAzIgAzIgAzIgAzIwPfIwKMUXBH+EAoRTtlUxMUIgj/88MNXYTCCK/MQImPT13eFIiLnXf3c1B6R9MWLF38QTJNLxlh/X88YjCm4+mCcXHgvEzIgAzIgAzIgAzIgAzIgAzIgAzIgAzKwzcCjE1xXIiHC4ps3bw5C69u3bw8CLPNacAUSBEnmIVQydgw4iLM5Sbs6JRqRM75yejY2EXkZJyd8ZKxPjHacPqUbv7NNHd6/f/9VYO5cIipzwrfjzPx6Tdgnt/RTJ/JJP23n13kzxv3M1fvtF6i1sTYyIAMyIAMyIAMyIAMyIAMyIAMyIAMy8LAYeHSCK4IeAmKEPsQ/rhEL//KXvxzGMj4F1wiezD0GZOwRZ7Hbmt8i52oOuUTw7OueiwiKMLoSgVsEjejJeiO4/vLLL4e142Pmwn2E08SjL/nEx2p9qWnstnLPOO2ev57n9cN6iLhf7pcMyIAMyIAMyIAMyIAMyIAMyIAMyIAM/J2BRye4Ivx9+PDhIFD+/PPPB5ExomMEV4Q/hEXGETIRI4EipzUZOwaSY0RGfCFOtj/6Io7SRuBkHver+LGZvtpvX7e4if8IpLHPSdYWXNsGX/MeP51357lVi9Q0dh2v8/X67y9Ka2EtZEAGZEAGZEAGZEAGZEAGZEAGZEAGZODhMvDoBFe+EiDi4q+//noQLxFgEQdbFGQe/9w+gmsESL5ygH/mH2FyD+72tzWPuO2L6xYdVz6Yc6zwGiE2giYt9i2WInqy3s6FuKwzX7FA/m0z7/Hx7Nmzr6dsiYG/rHu1jtSUsekvdrYP9+Hh3rl3MiADMiADMiADMiADMiADMiADMiADMvBnBh6d4IqIyslVxES+TgCRMN8p2qIgAiKCYQTXCJCIhIxd91UBwDTF0xVgLXLGJt/bisCJ+BpBsu3JIbl1P9e9jjmW+yme/vjjj1+F5BZPI4qylr7GD7lHHO6aZN4UXPse+8zDN/fkHX/J0/bPL0prYk1kQAZkQAZkQAZkQAZkQAZkQAZkQAZk4OEy8OgEV0S9CHwTzBYqIwYifv71r3/9w+lN7BAPI4xOP32Pz5wubTER+/TTRvRNXPqYz8lTfCRm22QdEWYz1nE6l76egiu+sP/pp58O60pMbBhLfpnHXMRraoCvzo+5fTKWsc4xvuI7ebPW9se4P9ZABmRABmRABmRABmRABmRABmRABmRABmTgMTHw6ATXPon5mDbKtfjgkQEZkAEZkAEZkAEZkAEZkAEZkAEZkAEZkIHLZ+DRCa5A16c0OV3J/W1g7FObOaWZdv7z+dv41+byXyDukXskAzIgAzIgAzIgAzIgAzIgAzIgAzIgAzJwEwYepeB6kwI41xeMDMiADMiADMiADMiADMiADMiADMiADMiADMjAqRhQcPV7RG91+vdUAOrHh5kMyIAMyIAMyIAMyIAMyIAMyIAMyIAMyMBjYkDBVcFVwVUGZEAGZEAGZEAGZEAGZEAGZEAGZEAGZEAGZOBEDCi4nqiQj0mFdy3+VUkGZEAGZEAGZEAGZEAGZEAGZEAGZEAGZEAGbseAgquCq3+9kAEZkAEZkAEZkAEZkAEZkAEZkAEZkAEZkAEZOBEDCq4nKqSK/+0Uf+tm3WRABmRABmRABmRABmRABmRABmRABmRABh4TA49WcH337t3VkydPDj+vX7++KIX+06dPV0+fPj3k9vLly6svX758ze/z589Xz58/v/r48ePXvuuAwx4/rPm6uT3O/Bm/x1fX5EV+5LkaX/XdZk1bNsS/1H1drd0+f2HIgAzIgAzIgAzIgAzIgAzIgAzIgAzIwPfFwKMUXKeQiOB6UzHyPl8ICK6vXr36g9CaeFtCY8ZX7fckuGb9CK+XJqQnN9vv6yHqfrvfMiADMiADMiADMiADMiADMiADMiADzcCjE1wRLDm1SZuFInC+efPmIHAylhOSOd0ZwTICXkTPiLR9IrVPd8Yu/mKfuFvtnuCKT8RY5sQ++SQObXLLHGLf5FQsdlO0JOaLFy++1i7ra797uSeX2a7WRP5dS/LPfmC/smm/M/ce89qHnAzIgAzIgAzIgAzIgAzIgAzIgAzIgAzIwLdi4NEJrghxiHm0CJP80/2Ic4h4XWjmRbhsga/7p4CLrwiD8ds+ucZXC7vJIyLqbUTLxCAfxMm5lozftW3h9i55HpNH6nybOFu1Pyauc3zgyoAMyIAMyIAMyIAMyIAMyIAMyIAMyIAM3BcDj05wRcT78OHD4ZTozz//fBAnf/nll68iJYLi1klRhD8E2giqFB1hr+dznfHV/GM26jYCI34RWckf0fWYOLeZ00ImteT+Nn6OsYkwTc2pyTE2mdN5ps/WB6UMyIAMyIAMyIAMyIAMyIAMyIAMyIAMyMC3ZuDRCa58dUDEuF9//fUgUCLA5uRm/zP2nLDMJkQIZW5OkMZX5qzaKbxGSGyhtkXFxEmMlc9V330LoMQkJ9ZP7d6+ffu1Dqt87tqXWPMrFI7xe8y+HOPHOT6EZUAGZEAGZEAGZEAGZEAGZEAGZEAGZEAGTsnAoxNc379/f8XJVk6hInI+e/bs0CJyItLldGq+FxURk4Jyz/eXMo8+RMfZv1d47PF9zOnT2wiu2CAm7+VwqjHWj9hKLU/lc+WHGhOLtfV3x67mzj4FVx+EkwnvZUIGZEAGZEAGZEAGZEAGZEAGZEAGZOASGHh0gisCHmLcqrh98pSTrgiYzE8/19jlPqIr/vq0aubRrvpXsbvvpoJr8ulYEY7b76muyQ+hmvZUPqcfatdr4L5PH8/5817B1QfoZMJ7mZABGZABGZABGZABGZABGZABGZABGbgEBh6d4Hqb05Ln3oibCq7nzu8hiJkPIcdz75vx/KUiAzIgAzIgAzIgAzIgAzIgAzIgAzIgA9+egUcnuALVPJHK/SXBhuDK1x1wYrVPeX7rHFO3S8pp1iQ5UrucQJ5zvP/2Dxb3wD2QARmQARmQARmQARmQARmQARmQARn4Xhl4lILr97qZrtsHmQzIgAzIgAzIgAzIgAzIgAzIgAzIgAzIgAx8WwYUXH//thvgC8D6y4AMyIAMyIAMyIAMyIAMyIAMyIAMyIAMyMDjYUDBVcH1or5uwYfL43m4uJfupQzIgAzIgAzIgAzIgAzIgAzIgAzIwPfIgIKrgquCqwzIgAzIgAzIgAzIgAzIgAzIgAzIgAzIgAzIwIkYUHA9USE0OIfsAAAgAElEQVS/R7XeNftXKhmQARmQARmQARmQARmQARmQARmQARmQARn4IwPfpeD67t27q5cvX159+fJF5f47EZz/1b/5t1f/8T/7F1f/+Mu/PnrPb2PjA+aPD5hz1IM9ZW/Zr3PEW8W4hBxWedl3fh6tuTX/nhnw96b8f8/8u/bL4P///rd/u/pP/qv/5eq//sf//Zu9L7yEHOTxMnhkH+ThcvbC14V7cW4GHq3giqj65MmTw8/r16//8Av3OsEVIfbVq1dXnz59+oPdfW9O5/zx48ejYvNmYu8NxX/23/6vS5Hx0//xf139p//Np8MvgPteV/zvxdzKM7Z3bbc+BO7ltGVz11zu0x7h7z949Y+Hnz0uZg57dZhzL+3+LmLnda+fY9d6XQ6wxJt/2ut89h7yuljNP3a/2hdccL/yd5M63PS1eqzvY+eR/01zWK35Pvr29qX3grXeJn6vu6/3fK3qSl+eE/jJB4H0bbFyE473cjrX2N5+nDqHY/djFZf68/uYfFfjq76b2Ny1DiuGVjnRd+7fm8cyedcazPXepCbTdnXfr8n/8D//H7+y0M+NvD75XcL+z7H5fIdJbPC9innbvq21XyqTt13nqeyOZfQU8bb25ljft7GHO1i7LsZd63CT1zAsPgTB9djaZT1bv5uvq/2x4zep8ZbP2zC05esU/fmdRO3OcTiDGvIMn/Gyh9Qn60rfnJvxb93275jO+7q8TsHRdTEcVzR9SAw8SsF1CqoIrvQduzHfSnBNfuT7GAXXrQ+k3/LB/C1jZ7/vo73pG57HWoe92t71zf+e7zl27H6wDy/+i79+FWZ5zaze5Gy9lmbcvp++M3bTOtw09jFrv+8cstb7bo95HR1Tj1We0/ex+zDjrWrNm/5jBL/pa5XnJfXNmt1nbsfuxyqHY+vftjexuUsdVrx0Ht/6+lgm71KD1RqPjbuyva6PD7kRVefcLYGG9eV3Rz7EZy65Tj+3vd/jQSbXH4D3anbbfdiyuyuXt7EPZ1s5pf+udbjLMzY5XFp7bO2SNzW86b/Wi+0x7Smek7dh6JjcbjuHfGAH+3MwdJsYd31t3LY2x9rddE9PwdGxuTlv/XvHulxWXR6d4Pr58+fD1wXQBjZOqr558+aKvufPnx9Ova6+UgChM6dinz59ejjhivCZa/wh3OKj/SdOty2adk65Jp/EmuJq27bP1TUPwX/23/9vh1/A/IUsv1T4Jc59//BL+td//f8c3sh3P9f4wT++/suf/uVXu/Qz1j77BAZjeRPQ8zvfvYdv/3JiHh80+OBAvuRDfsTGH3OTe/+lknEEA2wZ7zFyik385ANJ+tMm/5UN8eknDutPvI7V+cVX12F13bHa18wxue/VIf7xOeNjn3Vm/2aMjMc2+5r+5JAPVitW2MP8dRe7+CK3zoGx5DHHtj5sZn20nXvXbY7NHOJj1qj9YdM5bL0u2mbmkDjzjRRx8zplTo93TvHdeTB/9VrCjpz52cqD2k9f+OuYK/8Zn3vXsZJrcug42K+eUcTKT2Lknpa++Mua9nJIHfPMwJb58bn12uz+xMGG/owl/6xr5pE42RueDV2f5JB1sbbu69dM59BzyCVx6Oee119ea+1z5tdjyZE9i3+uyZmx9M029aXNGH5TG9ab+jDeOXT/HOv1tk33E6fXytqTA/kwN6wwd/LYY4mf53fv01wj+XSsVX7dlzide4/POuA7Nv0szNpW7ZZNx8En99fVobnDpjlJbPrST3343dyc9DjXWQ/x44O2x7o+rCdzV/WPv1V95nzi0Dd5oD/cr16bq9rFF/nFpnPodce+17HKAZ/H/OCbuHPu3uuU2JMv7PGDv+lrdZ91pOZZT8/tdaefGLHpGnV/9vw6Jm+TAzar1zP5NePJIXlPVrLevX7WtOJhrot5xOkapEYZC7+r31nM6XzYW+bjc8ZiT3qdidN70eOzDrPmx/DS/oiXNc3++Nqrw1zPimP8Unfmpq7xzX2P93p6DvN6bNan/WMX28lD+vG39dNx5vxZo9SOeb039K9qge/YEH/mxzj9M07nMWuesdQxjHc+0yZxiNXrhYf426oP/c1Ex9l7XWCH7zDe9dnqT73In3WxRvwQhxyy1uYBG/rxT6yZH/fJoeswY2T9XZ9VbbJm2tjQdo1Wdj03112HznvPX8eZNtjhc8Yn164D45OR1Ci2c7z7qfdNP1POHIgXn13z5iR1st1+flmb09fm0QmuiJeIorQImoilXCNi5jtbEWD5yoDcAxY2zOF6nnCNfcTS68RWfLRo2nZcI9jmxO0ql7bFF3NYRwRa2gjGPFjyS4IHz/wwxEO0fxng7+BzvHlJP/PzYGp/W79EYpeHXh506U9L/2oMO+LRMjdvEP6H//lfHfrJZ8uWdTGOHdepA/crm1Ut8uaC9SXXbqcNfvkFk3jkmV/gHTO/VFa1b/9z/T3WsZk39zZzuw7p61zou27/VnWYa+gcMpb6b62j47Y9OWFLnlzP+PTHd9a01a5it+/k2nvReW357Rrib/W6iO0qh4zN/Zlze5w43DMHznjzAV/kG3+dF33TX+alZT5vQvr1kbFVHVZ7gY/YJMfcr9rOkevEJtfJ8SqH69a0yiE1S669js6HeOxl85A1zL1gHq9x8mesn1Wx6VyJmbmME5dcMzd9yZH7tuc+cXrP5xzm4TdvjIlLXZnX1x2PsX5z3EykJnlzHNaxz0/XJn2sIznQl33p2tPfdZj5xdfs7zp0HNbRDDHGT/x0O/PIGL7DJH3xMevca575xVfarD33tDM+ccJDX69eA+0n18fazHXMPOKv21UOq77UCtvVOP2zFjOfjttze96W77bt/Ul/55c+WmrAnjPOPXFz3fM6B67hO/Noe/+4x+9/9M/+xaGNH/pjk75jWnzzGuzXVNttrbdfyz2f6611znnzvuuQsdWedE1W47GduR/D5LE54PvY13OebeTKNbbJkXb2k0OeN3s8zPW1z9U6GJ/+uibsW3Kb9nt7umJv2uM3dSBmfneQ08q+15K8UxPut9Y+eZh5TL+5X+Uw+7pW2M3xVd/MJ/Fo9/ytfLft3vW0pQZ7tcv8mU/HYA4M0Dd57Xl9Pde+xRBxt56Tk8msA5sthrDJ+4q04brza4aoUT93uxbN7rQP0/SvatTPCObMOO2b656ffZn17v1crRW7zjN+ui+5kD/+MtZzO26uU89+/mM//VznL+Npey/S17ns9WWs9yx9tM1d1kG8XDPOvK11MC+fuae/3r8Zn/zju/Px+u/v8a3F/dbi0QmuCJkfPnw4CKo///zzQfj85ZdfdgXXKbDOeyBEBEXoRHw9BsoWTafgili6J9q27XWx+iE4H0TY8oDhITT9zIdRxuf8vueaB/vKX+xX7daDk7mdP/fJC5s8VHsO1/1LhpywI6dcr3Kgr9eSOYlH7dLX7bRJLrFLnn/9l//m8EuuczumVvkl07/YiY9f3nC0v56zVYfknjxzT8tatnLKeroOq31LPVasJdbMPXnTnzdoyYc8uZ7rIU9ixedeO/Nc5TbrscVLapS6J7+sO3nM+5lD5q1yYazt5/V/9z/9n1/rNPdlFYcYvMFKnRN7tviawsCqDjPmrF3n2zHoT91oU7u2X9VjlcN1a1rlsKoN+cVX58Y1cRknvx7DN/2JkfzaPzWi3rGLQDJrN+8TL7XhHv/xk7Y/OKxsOj+uO7eu98p2lRPz+oe1pw70r/Zt5Ts+Zk1ZV/zN/GKTOud+a00zl9Qv/mNPu7XWGSs2HZO+nreVd2yJz/zc027VYa5h3rePXM858561rpjEfqsOrLd/z8xnSK8/ebSvvs447awFuW49o3rurD9jsDPrSoy5/sRnbvOW/plr7ydjq9rNfLoe2dtZM+Jt5cBY1kSO83WeXLHPMyV9qSFj6euWNcznO+PEI9eeu5XDVh1i2+unb+7BvE+NWOvck7kfiXHTHLCbecUX/YmdNjXfij/3HF/UC19zrOMm7/hPDrTTLmNb/R1z2u/ZMLe5Tpy9Osz58z4+uu1109/35Lf1TNnLvZlkr8gjMVd2zVpfx4Z2tZbEIeeeO3lo29QP27Y55rr9ML9rtbpnLVvPyuTRz5yZd+e0tReresZu+kv+0xd7lDwyJz7mffpny7y8LmlT3738mDP3Dr8zZtbxr/6v//dQz/xLHGwzd8bp+7lPyb3npK9z2mIxcxM792mn33DQ9eF6tfb4oI1d9iZj6d/yt7UXsV/lTS69b5lLm/oTN/1c53N9+uJ3NZY51GbrmULt8cFc8snzd65nK8/EsP3jZwDrcfp6PDrBlX+qnxOpv/7660EoRYBFxAxA81TpFFjnPXb45VTstxBcrzvhmofN6oHVvwiyftrVw5D+no8/Hl7zAc+cYx78iZcHau7Tzl8w9CcvxvJgjj1j/YGCvMgFu76O/9n22jKWeKw1fd1Om86F/JIngmvybftjr1Pr/JJc1Sa+9uqQOckz992u9m9Vh1UOqceKtcRgDj/c97ysMb/w84uReXv5xu9WO/PsmLFp/6tx5sFQf8htm6ybeVlHvy5mDom7xSX15g0gdvjGJzbEDAPJ6dg6Ja+2Tx60GU/e3K+YnSx0HfDTtYj/vdq1/Yw57+MvbXKea1rlsLUHezH2XkuJkT2M/3wtC+siz/TTztrFNuuh7Xpwv5rT89t/9yc/+nrO9D/vZ47tM9czp3mfedP3df2Mb9nMGFtr2tpP7Oeb6q21zljJu2PS1/O28o5t70f6tmzmGuZ97Ludc/qea54TxMNmrmOrDuTMDzbtb3XfufDswifxqFGPcb2qRXySZ7+ee+7MO36ZM99z9N5kXreMNw+zBtmbvdrNfDom9v0hvmPneuaQ/uta4vYfJ5mPr/5dMH1kHczrMWoXLrp/Xsc+c+faJx/Yz76+p95b79ewnfsRf3sct//Ov/flmP6t+PTPddMXRufYKi7rgu/eq2mXHLf6O+bMac+GueE6MWhXeWZ8zp/3mdft9Nf31Iof5s/92sod+633XvjZygk7xqg5r8XOcc+OMXLsZ8rkcRWTeP1MmfFW99NP14r5856akdvqvdnK/8y752ztxdY+YDv9Jf89m8xJ7L5PnalbflgzcbaeD3ux8Id9YqXtmL2OfDajrth1DjMOOeWk7tyXxJk29HdOk/nYpZ15pn/63fPDGM+XrIW2f6fiM3PSv+dvby+S31bejKeu1CHzJ0fJaXIdv3v54Te+5zzsU4eslVjxm3xsTy8gWtOb1fTRCa7v37+/4mQrp0j5Z/jPnj37w3ewAsgUXOlDkM0/86ed39vKOKdSX7x4cbC/DrT2x3W+97VPu275YP6xwm4/VOaDCP88pJgzY/Uvlh5jfn6Zbc1hfsflnl8WvGGasVY5Jd7qF1oe0vjLgzmxOh/88gsnD+GVr8RJ22tLX/tMX7fTpnMhv5ln8mkfuSYWvxBmjTJO2/G4Xs3tnGcd4it55n62c7x9Zm58Nw95g7S3r503tvklSAxqhm1ipF3Fzxgt41u1m29UmN85hM1exyoPxvMhKTapf+/LKtdVDskjcXs91ACfnGZNjKwzuaX+Gd+refvuXLt/5s19Ym3NW9W9axu7vdo1a3MNWznEb9q5plUOW3uAD3LAJv7Sdk1S78xLTNbG9f/H3vu0ytWt/Vr5MPbS9Ask+gnyBUxb0txKmgfSEskGN2KwpRKwY7DjGxAOh7yIkGcLgnnUAyccQY0ekHyJJdfa+eX9Pfcec1bVWrVWVipXoxhzjjHuP+Me16xV81czlfiP4Jp9xXduFud6sMv+JWbXgz78TnElc2kTv/s4Tn4cJzfa3ovV/s0cp9/UofPuWD1/riVjXdf0pSW/1Ct9tNMG37keO85kaPpopqfPzN2qae8Fx+TJ2rHbyjs+V3u9FR+bns/68j4Zf6t2yyZ7Ro7Y4a9rvJVH+8O2c8Cma9n5MJefO8GeOvUYx/Qnlzk2xzsHjjvvtm0Gpo+e18e9hj5mTvzt1Y61wWDWyJrIse3DydZ6Z9zOb+sYX2GfOTPHlR1xIhb0eNe3++fxjLFiaMVD+8cmDHU+8Z3aEbvHk0vmpZbH5tD7El+07M3We+vWvs0cyDOfe7DZ4mHG7XlbeUx/7aPrynGui+RHbXp+junvOtO/FZ+xZo21bn3Oin/a3jt89/tk543v8LCXR+cQf1kf64U7YnYO8Uc83ovwMcfxET9zjPMe7zXt1YGxeR30/sw4HYOxjpO19n6lfj0vPvHV7wv0x8dq/fHFvN6LPYbm+jr/9pec4jt5YX8qQ8kndWBNff10rFUNZg6c44vXrGPbzziMJQfqleOOn1xTb/zn/YF5e7wy3vVsvzOXzF3l0HaHjrFPrr2+tusaZX0z7lbe8YOPvi7aZ+bQ4hdfHDe7e3Vrm8nx1nvDVvzOxePTBEPrdbt6XZzgili6JVaunhRF3ASiHnv9+vX106z04StiKfM4bzF2C8D2x9Ox+RmBPcGVXPp3Wo+J02+Cqzcs3nT448c3QPnAlpx5E8s3Q3kD7L75QQn7zJ++8sYZP4mx90dr9UaZN238ZbzXmPzILTd8xNqKw1hsknuva44n/y2b5LLKM3+oEmfWKHuRGMROX2zyoYWx1HQ1lvxmHfCd+WmpzfQ1c9uqw8wPX8xdsUY/r7ZhD7OPsz7k1+uduSdW++zazTW1vznWdtSufSfvzo/68MRE7FJvYjQ/M07nQB1YO34To1t8t6+M0Y8fXsRNPzn3efq73h2f8fY193yrDthlvbMOjHW8+NyrHTnwwpZ54SFxVnvRMeaatnJgL7Y+pHd++EveyYG+eS2lPql7+6cPG15wkrgz796v3ovYZu3tj7GtepFvXsmP886t10pevE/GH3PJcXI5OT40Pzkwr+emn5b+rJM2a51jvRdtM/sTZ8XQVhxiheWuK7n03qzynjzs5c1Y7/3MfZVfz2eP+rrofPp4z6YZaiZjv6pD+yN+59B8xUfa8DJr2DFYc97fOg79/b7fY513YqR2XVNsJsPJbeYQ7qYNPIWprdr1dYX/5qbts4b428ohOa7atun6JO7so594q/ow1v56L1ax07dVh/hLLTOfNmsnxuQ4OayupfhM/qndTXLofencOG5/xEqcmTtjWV+vqfsP8ZC1zDjE6r2iLvRNf/Tl1Tn0dRE7rofE6zX1dZPrD5utOhz6e5F8Zpu9JQ++OM6aOu/5noKPVR06B/yx3qxpb2/xR9x+b5gxUiP8dG3on3a9ps4h/e2r63FKDsk58bt2rLmvc847xzmeHLrm+F1xPPdi1iL1xle/t9KfsWmTXHv/6JufOZLnbFPX+f5AHPzQThvOY8dak8NeP/ln75jP+mj58pz69hhrwdced1v1xg57/DOH87w6h8RbMdlr6rrS3yzE72xnbl2fPX+p6dyLrbyJG5teT+fT41sMpX+rbvjrNU2OZ379njfHcl10jh7/E6PW4m5rcXGCK0InT6Hu/UaqUG1DxRvkud6U9t5A9/6YuT/b+/Mz12buOR+mtp4+uat18oe7P0weG+cm18VNbLby2buWtmz2+m9ahz2fp449hBxOzfm+589r5r7jE++cHP+I/I15+t+Th35tyuTpe3qb6+Ah8PAQcrhNDbU9ndlzf+5xD07fg0uu2SFh95LXfglrW+0fnw0i4l7CGl3D5bxnXZzgCpw8hdpPim498XobkHmStmPk+JinUm8Tt23/0//u9+/fzOUbptu0+O4bmdv40vaffq/IWvytFvxx7G+TqUvE/Ydco74uHnKe5uY1JwMyIAMyIAMyIAMyIAP7DLRgZ632a/UQ65N7s84NDYP+7uvj//Kf/8vvTx0zz5c1uC8GLlJwva/iGccLVQZkQAZkQAZkQAZkQAZkQAZkQAZkQAZkQAZkoBlQcPUbDr/hkQEZkAEZkAEZkAEZkAEZkAEZkAEZkAEZkAEZOBMDCq5nKmSr2B77rYYMyIAMyIAMyIAMyIAMyIAMyIAMyIAMyIAM/JoMKLgquPrthQzIgAzIgAzIgAzIgAzIgAzIgAzIgAzIgAzIwJkYUHA9UyH9xuLX/MbCfXffZUAGZEAGZEAGZEAGZEAGZEAGZEAGZEAGmoFfUnB98+bN1fPnz6++fPmicq/gLAMyIAO/AAO83/O+z/t//xH02A9FMiAD98nAQ/gM+hByuM+aG+vXusb/73/z/139e//J/3j1n/3D/3rS33vmY4e9zDxMZv7V//lvrv7df/Yvrv7ht3/9w/boIeQgnw+TT/fFfVkxcLGCKx8mHz16dP16+fLlH96UD33Q5Mb8xYsXVx8/fvyD3aqA5+zrnN+/f3+22PF7TB0yl9qdM4dZp8+fP189ffr0en9W4nfGz5XDbfzBATwcI9BTP15zvT/6nPVTZ9qZS2rDnq/2Ys5fnfe6+3g1N33s7WSSWj9+/PiaC/ggN/zlWqadNvF3bNzM/5Ht3n6cO6/b1uUm9sfa3LYOp1ybP0JwhdVD72G3rcHk5ZSaTNvVOfn39Zf1kHfewzPOtUv8OTavWfjYu5ZXeRzTt7f2h8jkMWu66znH1uW2eeztzTG+V38vDtmdcm0dc61uxTslDj6o+U3/1m7lcGr/oRxOWdO531vz/pH3mlPXdo75N+HhPuqA0IMgSLtaJ4LhSmQ8ZLfyddu+vZhbed42Zuy3BNe9nLD92QRX1oP4+G+9+IeThOJDdUgdH2KbNd9EcD3Xuo/J4T/4L/6no0Thj//b/3X1b/+H//3uHh6bd/KCB17ksNrDY/3lmli9p6z80sd6/v3//OPBLy3uMoet3O6if2ufey9u+iVOv0/28d46VnVtxni/YA7+wskeK8fG3cvpPse29uPcOZxal4sUXOcHST440XdssfnQ9CME1+R3kw96sZ3t3ofmWae2PWcO7Xceb92EnfsD9238nVILanoKa7Med3W+x0Fibu1Fxrfa6fvYGqxuoFe1PsbfzGEr14fSf5/5HlO/vbrcxP5Ym9vWYcXL3lruc+zY6+m2NZhrOjbutDvmHN/Pnj3b/OJm9aVORIiIJ+xZ+OD4mLjHztnjITEP+brtfuzlcCj2jxg/ti63ze22XK7+XhzK6ZS9vM2+3VcND633nOOn1C7XOHU4Rw7E5sucvGecw+epPm7Cw33UYXUz3Wvbugk8ZNc+znX8kHLJmn5EHRL7LttjRa7kcKl1yPq22i0mt+bftP/Y/WAfnv1H/3gtUhKL/FYi6U3yzpcOK2H6FH+nzGUNx679FL+nzL3pnt3U7pDAd2w9Zvx5jR5bg2mH31WOx/hb+Zp5PrTz1VrvIsdj6tdxL05wXX1I5IP+q1ev/vDUzerpAj5gzSd1+MCXp3YoHB8o8+RdF3Ie94e1zinH5JNY80Nl28YvczK/88n4Vks8/PFBcM7BJ2Ozn/NDOcwadH491v3kz3nH27oJI98t0fvYPeg4e/563jxe5ddryl4wj+PsEW3G8EnO7Dm1Yaz5a39b/V07fFEb/NNik5rPPJhL/Mld55Y1r9aaG4isa+5f1pY4Oe+1NmMzvx7b2iN8t//k2+2cQ56pDbmnPth0Dt3PGHXKHnXN9/pZA7GY33WdtctaaVPPtBmb+9Q5MCf1zzzarbx7nYnT+fX4rEMzie2h+pPDlk3HaV97dZi16+uCWLzwS92Zyzn+Os8e79x6zsx71qf9N2OTh+kz+WS/OJ9r2trzzmHadB24xl6/fv2dpeTQ606eiTX9pZ/8jnmxns6hbbo+3U8OiLTk1f3MPzY+ttQlHGet7a/Xnf7e92Zvyx/5JEba5Lhlk1i0MwfWTr22/t53vF7T3KeMbfUTe4sHxrDPenKtz/UwHvaIA/srvvDV+TAPX6lDx2LtqUHip20fzEt/XzMzx+xFYq3aWaOsd/aH48kIecQG/71H3Z/YWR8tfeQ8v5TAB3GYgw9iJH77yRjjqc/0j5/UYa4p/fG5avdymP6yXmKGDXySW8YSI2vM+W1a8phcpW/FJLGIH4ZSO1r8kDstNe+8GY9N9uMQD81k+8p6t+qwqllsttqsua+v3AD/s//6f75+Ookn47ih55Wn5PLUUsa4AU1fWvqIix3HPIHFWJ5+YoxYeXqSMW4wO1fOe36PJU/a7ud43qgSPzmyLnzmiTDEouRMG/Eo/lOHHmubzjkx2h995NRrTWz6qQ/niGLklXjJo2O13Vxzn7dN9ijjPdb+ur/XGjvynE8VRnDLerPWvTrgj5rFpnOgP/vDeMZmnPTja45hlzya2S2Osr60nRs1ST9tj3UOmRNmmsmuReeAr//4v/1fvl9TyXnGmTkkFvMzRrwWVeODGMxp3xx3Hsxd5U0f87JP+ErstKu4K3/Tf3Lq/Umc5pV56afNesMiPNI/17PKgb72lziHcmDdKyanv+ah43Te+CJnYtNik9xnHl1v9qxZ6THySD24FjjnNa+L1C7jtPhpXxz3Wpub6S95JxbrIY89/z2W45kDeaY2c29nDr2myWvG9vpZH7GIEx6yHvaGfl6pAz7TlzZ1CON5/2Y8OWCf48yjXcWiHpMFfHV+s86p5cUJrnxY4oNNPjTxQYtjPgTx4YWF8+GFD185pw8b5nA8P+TEfn7wTRFXbX/oart82CUedqtc2naVT8djbj4wpiXfzFn5z9heO3PAT99EECMfUOfYlt+uQ+bcJL+bfHBNvFNbYmWvsJ1sTH9zfsZnzqnvXD/zGItd2q5dfLEH8P3u3bu/uznBrnOd3PX+JcbMhf7kyTE+pnDSMeKH/HJz1jZ9zFxyyFppw29a/DCPNn3xm1i0qxxSG9YUH/ghB7ilpb/rgB/G6Jv+u7/XwTE3XZ1r1tTra38czzwyPv31nsy9yDq28o5Pckt+6Zvxuw7E7Gt9ZR8/aY+1mXs184i/2a5ymH1dK+zn+Kpv5tNx9/ytfLftal1bPGTPww2+c9w+Z/7MgQHW0PVP3skBf/GzlfaayxcAACAASURBVEPGt1p8cA2urj9sEos2PsiD+dh1DhnfW2fmrNqtPcNfx+ma4GeOx/f0t1pL5qadNumfMfDV7w/ZG+x7Luf9HsPe9lriv/tXNiseDq2n80ic+A6H7aPnM6+FsX4fia+0vfb00RIDO46Jk78xfczYsex2jTrvjslxr4PzzmPOzfkqh1Vf+1rlsKrFzCcxp33H6+PMP7Zd5bBXu8Sa+Rwb77bzTmEy1xI15fojd96L+rMSfbleyI25rD959h6mb659+si8VZtc8LEaP7YvN6i5yeQGMMf4mDfI8TtvJNOfm8fccLa/LV+xZTw3tOlLi7/OK/3clM+bf+ZxA/3f/A//6vrGFVvOc9Mb215D6kAOjLMO/OI/81f5t4/M63b6SX3IjZzINX7nXPpXa27/q/Vn/Fh/qzVMW3xu7QFjKx+xYZ2pY6+J495v1hpusgba1CfHqQk5IjwSe8bPnidu+1sdz9jTvvOO/V49mNPjvVZyoiaMxxftzCFjc230d02agfQnBoLQZL/zSozY5bxb6owAhBDEvB7jePqb+c7xvVjx3T4SP7GpU44zf8bommROt1s50L9icl4PzAuH7bfzji9yo35c8/O9CtuZK35zzeBviuszF3w0OyubGQMb8ouwN226xr0m+iM+psVP/KUvfunPa5VDasOa4iP+ttaEn9X1M/t7TRyzr/FNi39iTnaSb9rOI33TX+9Jz+/aYctYcoivtPTPsdhnTrcXJ7jyoSYfqj58+HD9Aeq33367bvnAxuLnB8150zDPseHDFzeOfMDqAm4d94e1/pDWx8fYZs6p8bHDpj9QxtcxbefPfNZNX2x7HdScV8a6pda56aZ+84mAuRdt+6OPe42dy95ebNVir5+69Ct13qpdfKV25JmbXo6pcfxFIJlrmeesL/5ynUxf+Iy/1GNyQX/y47ivpTl3nvfc+J8tNpOh6QebVV/6U5u0uUbm+hN7VatcH3Os42b/4j/+aKddxrb6GU/Mab+Vd3z2fqSPPLP+tMlzzp/n8dHtnNPnrGnFJPaH1pvcaPGZmCu75qePY0PbeaV/63qedW3b1C/Xanyl7bnp2+JhrqUZwjb5pRapwx4Pec/N3EM5MM7cxJjXWNs/efLk+r0ifbHdqgV7AVszF86nzVYOewwRf9YwOXVMjnO+52/lKzG2OM4468Se860++lOT1Dste78Vf8V0r2mLh8Sa793JsX2kbxUrYz1/zuscMj/tvJ7on/tAHZLnvA7mefx2O2s3z8kvtaYND/jYyp05bcO8xJzrT3/n2scZX9WCecRp/8yfa2h/W+8pibPXzhxmnHmOr9SPHPZ838XYVq3p57rrPeKYHMNq1sqa8lkpY8k1c/CXtc51cj7j5O9m/Nx1mxs6WmLNm8/VTSDzpl3y7BtP+voc39yQ50Y3Nofa1Y16bGa+9OeGN2OdK/lEPCKXiCs9J75nu6rFIbteP/5yjl3El/iljWCR9phaMYf5rLdz3vO3VYfYJ09q333ULmJQ+mm36pC1ZW77nWOZQ5s1pQ7MpZ82NcFXBNewlfm0qzw7Rh/js+s3c+u8sdtiErvOIblOf/McnzOH5Lea2/n0MXN5OjKC1NyXrbxTv+Sb2N1ii19ipH/lb8bEd/tdrQd/rGN1bfb6mDftVzkwj5jsRe9r8p4+junvfeU4a9rKOzGSf1/zHPPeE58tUOK3c57n8ce6yXv6wmf7Y87cA/qSH8ddw7l/87znYrt6ES/vrRlf5bDqY/7emub643/mSX9qN8c6bvZv6/0iPhIn+TEfv93fMee8mcO06/3IGHmynznv9uIEV/5ZHR+K+GD46dOn6xYBtj/Ezg9W84PcPKdg+OWD2vwA1sXsY+Jlbn9w7eOe38dt2/0cM5YPk33eHwITl/G51ulv63zmkJpmfq9jfnDNnHwQZpy+tsmcm+YX+7tst9aVmHMv6N+yObV/r3bxldpR19xEkBMvcmmOZ+1jy5ysZ/ZNm8xL2/7TR5v8OO45k6F53nPbXx/PnLZspu/42OpnfK4/NjMm/bk+5tjKP34REfrGbNrtxcpYYnLe9lt5x673I32rPDM258/zzOt2zunzLSax73W0P/Jr0a/9MW+exxY7xqgJ79npT7tlxzh59nvrrOvKlnjYYJsYW2vK+ORhzu+92avDIR54T+i8Ep925tBje8dcb3BMXplH/nkqMX2zpXYzl1XftMs5trFfXfOrvZl9fb7nb+7HbXLY8rVaQ+KcYjPXlH1Z+cjeRdBMvPaRvr38ev6cR12TQ3ylndcT/as8Mx8/2XP65nnmdTv99Tn2e+8pq9zJub9gmDnM8+RCXfBHfN6H8JMx2lUtMo7Pfk/pNTBnFRN/829M/G21M4cZZ57j59TPwVuxb9I/WYuPrX7Gw2rWypryWSlj8ZM5+KNvxcOq9rG/r3beBPaNKDmsbgLpn3bJd94M42/eyOYmkhvZ2O21M6fM3brxzw1y7JLrp3/9//xBMEo/bR/H/2xXtThkN+uRc+xWgisxZtxjz1k3N+esG5tVvvRTtxbOVmtInsyd8RmbwuvKxyqH9ruVH/m3WNPzGItI1WvNXs9cjz0PM5nfMenrvDlfxWPOv/PP/sX13Dln+iMefYlHO3Ogb6uujPH0KjHxQz70pT45ZzyidMaJw/HqFfutOcTqMeb3OT5nznPOrAU2e0zO2k/76X+ui/yaFcanj9ic2r+Xd3wlf+qSa56cUjd8pJ886GdNHM8x+uKPMc5nvenr18oH48mP454z/c3znttx+vhYm629m/bte64/Yyub1HKOreLid76v4Ts+Eod2+uuxnt/z+rjn57j3I32rPDN2cYLr27dvr3iylZtCPoDyYXneYMwPVhSDD1d8AOOYtm04z4fnQzeWKWz74zgf9FcfYmOTlvl8sMv5bOcHxTne58TDXz5E9tje8cyBms1/ZhwBiVyzvvZJzL45J+85b7UX7WN1vPKzmndsX+9PbPY+xGcO7dwLzvHXc1bzMj7rmv692iVmatc3EcRmHD/sSzie3K3yjL9mpf0lt7Sr+YwlP467jr1W8oGFrlXPTYzZ4jvcMbaVw9aNEXG3ruHkNK+9uRfEzE34rOteXPJmPnlv5TH99fp7LzjOtYQNxzPv2K72eis+NvhJjVkrDOEj/lbtnk3nzbwwiZ+tPNpf1pcc9jhhLvH4nT98zFzxET9zjPMeb1736sAYN/HkhQ/iksPKf/rIMzz08bTfqwMxssb20fkwZyuXtkleh9quSeZSs60YzJnXz7F2mUeL/+wba26Gtnjo2s392/NHXVbvEXs2Wzns1XirbqlX1rtVB3z3dU9+Kx7aPrXMPM5XeWytZ87HtveC87x3zLgrdpLPaq09P2tljdNvn6d2WR/z8z7ZPMRfx+39jc/OIb47B44TKzZp8c3nUeZgm35a/PZ7Ro/NcXINj8m7c4gtY3lPSR9xtt6/Zw5ZX9ZDjNQOf6yHvs4ncfZa7JqRvbl7Y+QXsXTOS26rfsayVnKPj+YBO9bWdeUY2/Z56trbFl9dzx475XjeBM4bPG4CuYGcPrGb/9SVOfNmGFt8TPs5j3HmtdAWm76BTR/tygf9mZ+1ZI0RXOlnXsfLHNqO0cfMn2vZqkPsZo45xy4iS/wy1uJYfKTFhvqs9iNz4ovzLX8IJgiuqzrET/Jkbvq6JZd+wmurDsRowZ3ck3/n2r7bJmtO3bO3PZ/jrfg9D9sVX8yZfjuHjCfvnKd+idH1To1j02vdynXmgF9ixEfipGWMp1kZxyf9tL0vjLU9xzPv+Eu7tfdZU9uv/PX6OJ7MUovOibjTN3OyVzOfriW2qxyylrTTZpUDc+e82Pfepo92L+/4Sv7UItc8OTOOD+rZT6T2elZx44/YyaX9pS/taj5jyY9jfCW3uSZ8Zy/m3MSYLb77ut/KgbXjf9pzvrWmMNUcMn/mTcx8AYJNXxdbcee8rTxW87KGzrtrl/yy75mflv5ZC+LwNyFzur04wZUPNfnA2AvlOB8++2nQfMDqMW7W+0NZf0jC9zEfHtsfTwXkg/DqQ3HyJJfOLXGwIYeMdT6x3Wqxxe/8wL81fysH5lPbrRy2xqhXbLoOXZ+MZy+2ckv/uT64xh9xZ03Je5XPob3o8exfakfeidlt145ahN+t2jGfFzWEU2KG164rfenvvIjRN8VtM/diz476JNe5nqx13iRhQwzqnZvR2M656Y/NzJvxrRy29g+bris+kytjsxZZ31Y/9cm1Hd/kxDF+U88ZZ47HZvpjXl6dQ19LjPcYsZI3Y72HzeRWHdgH1oQfWt4Pu0bJp9s9m86tmYx91yl1aH+wwnqTA3lnXnx0y9i8njtG9gQ/XRv6px2+0t85pL99kcMWw4zNHLKeuee9vr06kANz8d0+qDd1xjb2ud63cuj6zeO2mfUhbsSgtus9p0bJkzntb9avffRx+5sMdb3aJmsnxuR4z9/MkTrTt2ezlUPvS+fGcedHjl1b7DhPfZqVVT/+9njguo+vsJB8OlbeH8gtfzsyL23Pn3uRPLZi9XWztabOL/NZ8/x7kXxmy14kPjb4I+euN/76esZH7y/j2PR6qA3vhc1DrrOZQ/vLOrsv+dHGX9aasdU1M3OY11LH6njd3+tMrOSwVTv6uyach5XV2rsvPmm7/9TjPSZ7b1lTcmXdvFgze8WeNtdd8+aO3LpO8Ud/1pPadW331sS89rM3d29s3jjOG1HGudnmCbEWBfDJDWKeNsyNIje5zJv9zGdO+mnnDTP++sYem60b9fibPro/a+k10pcc+vctew4++tXrjG3H7fGtOmDHWNZDvAgc2PMiZvuaNcpeJAbz05e8Zv22/G3VYe5f8l7llpxTq47VOXKc/FqEYf70ga8IE9iwHvYp8zrv+MxezLHYJD/ymPXp3PDXjPdY5509JM/4Thsb/EQMZYxcki9tcmYsNhlPDvgPI/HfbfYe++7vOpyad3JIfpOH9BNvrw5Z76wDdsmbWFkr/Z13X5szDr6zt3MsdegYxJn73uOdQ/uOr7RZ06zRVt7xlRyJmf2kj7j4oi/9xGoeOre2SQ7Z+14PY73vzOl96/WkjpO1XtN/9c//5R/Eyjk3/jrvjp81rXKgL2uIn7R7a5q1iO+tfnyREy3+O+7c19QkebTPcDT9ZS5tz2+OGZtr6lg91vuetXUMji9OcOVDEjeA+bA8F/yrnVOH3HD8amu/6Xr3Ptjf1Oel2eUGhlr9qLU9hBx+1Np/1bgP/drkZjzixa+6R/e57ofAw0PI4T5rbqy/iTtc57cVEX+FWvJ3Ov8i5FdY78+2Rm42EQ9WYtRN1rIlFpw7zk1y0+aPwvRd12Ml9CBYbAk2d5XPFpN78cizxZW9uRlrUSh9t2lvkvdevHP724u1NfYQctjK7SH0P4T3yYeQw0PYi3PncHGCKwWa30DfxYdivq3ON9zdHvut/7k3cs9fclUIuN8PG3t74ph78bMx0E8D9XveOZ7a+dlqYb5evzLwYxjI55l+D+L4IX72+tUZ4W+G+3K+6+R//z/+3z88dZenpm7awmffXN/Uj3b/cNZ9uZR6wheiZa8nT9J130M7Tt4RXB9afubj9SYDD5uB1We/ixRcVwu173wf+qyltZQBGZABGZABGZABGZABGZABGZABGZABGZCBNQMKruO3fwRlDYp1sS4yIAMyIAMyIAMyIAMyIAMyIAMyIAMyIAMycJgBBVcF1x/2G5xeoIcvUGtkjWRABmRABmRABmRABmRABmRABmRABmTg52JAwVXBVcFVBmRABmRABmRABmRABmRABmRABmRABmRABmTgTAwouJ6pkH7T8HN90+B+uV8yIAMyIAMyIAMyIAMyIAMyIAMyIAMyIAN3wYCCawmuX758uXr+/PkV/wvuXRRbn17EMiADMiADMiADMiADMiADMiADMiADMiADMnDZDFys4Ipo+ujRo+vXy5cvjxJQ70Nw/fz589XTp0+v80LcJeYlXGTU+z6EaupH3WhvUreb2J9ic191uMnatbnsN3P31/2VARmQARmQARmQARmQARmQARmQgYfBwEUKroheLWYiuN6HGHgK1B8/frx68eKFgms9YXxM/U4RP1f+bmJ/io2C68N4Y1vtvX3ujQzIgAzIgAzIgAzIgAzIgAzIgAzIwH0wcHGC60ocQ9x89erV9RORCGJ58pUnTZlPod+/f/+9f4qzPYbt48ePr/DJvNevX1+f099P0k4bzntDTxFceQoWcZZYyb1zJO6qn3i93haht/qp01acXlNqwDo4TnzajCU+PudTvXP95NNrWuXX60y8rnmPt688uRyb3vfekz7es+k48XWoDl078pg8dGyPffOXARmQARmQARmQARmQARmQARmQARmQgZ+XgYsTXBGyENsicCH+cYxI9vvvvx/85+jYtliHIPvs2bNrgRXQ8ZNx2ghuc15fFFsicD/hOgW+Fi4zRmz8tr/ON/Mi5tG2yJqcZj8+4ps2NoiIrJ14+CZf+uKn285j9qdG9OOf+HuC68yv/fXau7/jzzoQk3Hmb9m3L46PtSFX5sa+80jfbI/NYdp5/vO+0bp37p0MyIAMyIAMyIAMyIAMyIAMyIAM/DoMXJzgiuD17t27a3Hww4cP12LYb7/9dt1G6OonMCfsUzDDZk9wjZA3Bcn5xGOLjsScguPMo8+n74xFWMyTm2kRAZkTcTPz0841di5tk3rRxt/W05nT51as9HdM+tq+c8j8tDMn+vfqMOfP8/jtds6Z5+SaWtMeI7ge4qHje/zrvAG71+61DMiADMiADMiADMiADMiADMiADFweAxcnuPLP1/PU4adPn67FMATYFsUi0K2E1xb+AD5zI7Dl6U/Gei7z8gRobBhn3hTs6JuCY2wShzb5tW9s89rqz/iWcNl5z1zaZpU385lDfhF26Zs+k8NW/1x/z+sc4iftKqe9Osz58zx+u51z+py8nzx58v1J37AW+15H+rK3jNHX/jLH9p+4thbWQgZkQAZkQAZkQAZkQAZkQAZkQAZk4Gdm4OIE17dv317xZCvCKIIl4liEy7lRK2FvCmZTGGwfPbdFvwhsESSZdxdPuJILvllH55VjxlogTj95dT/28dE12RMGe+17ecx5yYG65ucKOGaPmBtfnV9saMmpnzjOGLZZQ/po514wZ+5Fzz9k03nHd8dd5ZF5ezzMHDz3D4sMyIAMyIAMyIAMyIAMyIAMyIAMyIAM/JwMXJzgiuAVYWtCGWEvT5G2qIdd+tPiJ2JZ+mhjhw0v4jAvT7hyjm1seOoWG8TCmQNzWrCbOa9895yZ3xQT8Z08kjf2e/2pXwuuHOM7vmacHm+Bu2vUeXcO+KJGqWWPEa/zZox5ySO126tD7wWCfPZi5tPnezapHevkPxhLDthv1aH9NQ8d0+Of803UfXPfZEAGZEAGZEAGZEAGZEAGZEAGZEAGmoGLE1z7CcRe6E2PEcqmoLZ6wvKm/rXzgpQBGZABGZABGZABGZABGZABGZABGZABGZCBy2Hg4gRX4OynCXkSkvObQttPLOapytv4u2ke2p33ols9aZz97Sdtrft56249racMyIAMyIAMyIAMyIAMyIAMyIAMyMClM3CRguulb5rr841JBmRABmRABmRABmRABmRABmRABmRABmRABh4mAwquXx/mxnjBuC8yIAMyIAMyIAMyIAMyIAMyIAMyIAMyIAMy8PMxoOCq4Hrjn1vwgv/5Lnj3zD2TARmQARmQARmQARmQARmQARmQARmQgbtlQMFVwVXBVQZkQAZkQAZkQAZkQAZkQAZkQAZkQAZkQAZk4EwMKLieqZB+M3C33wxYX+srAzIgAzIgAzIgAzIgAzIgAzIgAzIgAzLwMzCg4Hqk4Pr+/furp0+fXn3+/Pksav+bN2+unj9/fvXly5ez+PsZYDNH3xRlQAZkQAZkQAZkQAZkQAZkQAZkQAZkQAYunYGLFVwRNB89enT9evny5a1FzdsIroi0iKst1v5owfXc9bn0C8X1+cdABmRABmRABmRABmRABmRABmRABmRABmTgGAYuUnCdYiaCK33HFOQu5qwE17uIc6xP8qEmPF3LMU/uIigfa+8831xkQAZkQAZkQAZkQAZkQAZkQAZkQAZkQAZkYM3AxQmuK3Hz48ePV69evboWXftnARAdD/2zfkRJ5vC0bNsCFCLu69evrx4/fvx3T9K2XdtG4KRvFbufPO1x1pA4nceMc5OnebFRcF1fIL5xWBcZkAEZkAEZkAEZkAEZkAEZkAEZkAEZkIFTGLg4wRXhENGSFlETkZLjPNHJGC8EzBcvXhz9G6orIRc/ET8Zf/bs2bVfNoB4jHO8sl3FJ88WWbOR077nZW2Zm3YKsakFcTOHdubdYx77ZiIDMiADMiADMiADMiADMiADMiADMiADMiADpzFwcYIrIue7d++uxdQPHz5cC5+//fbbd8E1QiRC7BQf9+CZoidziRVRFb8IuPicc+c5tivBdetJU0RVBNN+RZjFD2vJ+d4a5lhqkTXMcc9Pu5isl/WSARmQARmQARmQARmQARmQARmQARmQARm4OMGVnw7IU5+fPn26FloRYBEzAR6RkeOIo8deBCvR9D4F1+S/le8UXiOmtkjbInPGD/ndime/bx4yIAMyIAMyIAMyIAMyIAMyIAMyIAMyIAMy8PcMXJzg+vbt2yuebOWJTwTGJ0+eXLcIkgCAwIhQyjk/AYCQegwYpwiuETMRfhMzPz2QWMSfP2lAXqsnVYndP1cQH7Nd5Tjn5Jw6KLb+/QWR+thaGxmQARmQARmQARmQARmQARmQARmQARmQgZswcHGCK6JlhM5ZkClocj6F0GmDiMmcflI0oij2vLBBZO2nZvtnABCBscFXnkRtfy18cpyxxMF/+2M8cWkzv/vnOvp8+sKuY/Vcj31jkQEZkAEZkAEZkAEZkAEZkAEZkAEZkAEZkIHjGbg4wfXUJ1eF5XhYrJW1kgEZkAEZkAEZkAEZkAEZkAEZkAEZkAEZkIF9Bi5OcGXD5xOcnO+BMJ8SzROj/Zune/aO7UNmfayPDMiADMiADMiADMiADMiADMiADMiADMjAr8LARQquv8rmuU7fqGRABmRABmRABmRABmRABmRABmRABmRABmTgYTGg4Pr1YW2IF4j7IQMyIAMyIAMyIAMyIAMyIAMyIAMyIAMyIAM/LwMKrgquuz+34MX9817c7p17JwMyIAMyIAMyIAMyIAMyIAMyIAMyIAP3z4CCq4KrgqsMyIAMyIAMyIAMyIAMyIAMyIAMyIAMyIAMyMCZGFBwPVMh/bbg/r8tsObWXAZkQAZkQAZkQAZkQAZkQAZkQAZkQAZk4KExoOB6pOD6/v37q6dPn159/vz5LGr/mzdvrp4/f3715cuXs/h7aGCZj292MiADMiADMiADMiADMiADMiADMiADMiADvyIDFyu4Img+evTo+vXy5ctbi5q3EVwRaRFXW6z90YLrx48frx4/fnxWEflXvIBcs384ZEAGZEAGZEAGZEAGZEAGZEAGZEAGZEAGmoGLFFynmIngSl8v/D6PV4LrfcafsRCPEYA/fPhw9ezZsz8IwXOu575hyIAMyIAMyIAMyIAMyIAMyIAMyIAMyIAMyMDxDFyc4LoSN3ma89WrV1dTeI3wuPfP+hlDnORp2fmTAoi4r1+/vn5SlPF+krbt2pb88EPf6icF8MnYHM8Tqe0L0GeczuHQhYBPBdfjL5ZD9XTcWsqADMiADMiADMiADMiADMiADMiADMiADFyc4IqIimhJizjJP5vnGCHyH//xH69evHjx/XdT6WPsmAthJeQSJyIs44iXiJj4wzfjHK9smde5MI9cViLstO95WdtcwxRiU4vkx3wFV98AJjeey4QMyIAMyIAMyIAMyIAMyIAMyIAMyIAM3I6BixNcETnfvXt3LWbyT+YRPn/77bfrFuESkROhkWPGECaPgWiKntgQK6Iqfto3wik2zFvZrgTXLQEYURXBtF8RZvGDqJzzY9aSOQqut7t4Ukdb6ygDMiADMiADMiADMiADMiADMiADMiADMhAGLk5w5acD8tTnp0+frkVVBFjETBbNGCIpLa8U4lC7Ek3vU3BN/lt5TuHVJ1y9yLdYsV82ZEAGZEAGZEAGZEAGZEAGZEAGZEAGZODuGLg4wfXt27fX/xkUT3zy5OeTJ0+uWwRJQEI4RbxEmM0TqMcAdorgGrEzgi7x8tMDiUU+8ycFEHBXT6oSu3+uID5mu8pxzulzn3C9uwur6+yxdZYBGZABGZABGZABGZABGZABGZABGZCBX4eBixNc8/TqHsQIoIeeGI09Imb+k6v8k/6IoltPuGKL2Jr5iMDY4CtPomaMtnPhOGOJM/0xTmz6aTO/+5P/qj2Uw8rGvl/nTcG9dq9lQAZkQAZkQAZkQAZkQAZkQAZkQAZk4OYMXJzgeuipzf6tVcG5OTjWztrJgAzIgAzIgAzIgAzIgAzIgAzIgAzIgAzIwN8zcHGCK5vcT5fy1Cfn+Wf+OW8Y5lOieWKUnyRAwO25Hv89RNbEmsiADMiADMiADMiADMiADMiADMiADMiADMjA3xi4SMHVzfUClwEZkAEZkAEZkAEZkAEZkAEZkAEZkAEZkAEZ+BEMKLh+FbwfAZ4x5U4GZEAGZEAGZEAGZEAGZEAGZEAGZEAGZOASGVBwVXD1JxNkQAZkQAZkQAZkQAZkQAZkQAZkQAZkQAZkQAbOxICC65kKeYlqvGvyWyYZkAEZkAEZkAEZkAEZkAEZkAEZkAEZkAEZOI0BBVcFV7+9kAEZkAEZkAEZkAEZkAEZkAEZkAEZkAEZkAEZOBMDCq5HFvL9+/dXT58+vfr8+fNZ4Hvz5s3V8+fPr758+XIWf37TcNo3DdbLesmADMiADMiADMiADMiADMiADMiADMiADNwFAxcruCJo0Tng7QAAIABJREFUPnr06Pr18uXLW4uatxFcEWkRV1us/dGCK+s5Z33uAk59+qYnAzIgAzIgAzIgAzIgAzIgAzIgAzIgAzLwszFwkYLrFDMRXOn7UZuzElx/VC7E/fjx49WzZ8++C8A/uj4/shbG9k1bBmRABmRABmRABmRABmRABmRABmRABmTgnAxcnOC6EjcRGF+9enUtND5+/Pj7k5084cmTnnsF5Z/883Qqc+dPCiDivn79+io++0natmtb8sMPfaufFMAnY3OcNSRO5zHjdA5b6yJGBOjYr3LZsrffNyEZkAEZkAEZkAEZkAEZkAEZkAEZkAEZkAEZWDNwcYIrAipiYv7JPCIlxwiRiIsBISJszg+1KyGXOBE/GeepUfziq58aXdky78WLF3/IiTxXwue073lZ28w/QmrEW1pqQVxyww6/5I9oPHOZ/jxfX0DWxbrIgAzIgAzIgAzIgAzIgAzIgAzIgAzIgAw0AxcnuCKCvnv37lpA/PDhw7W4+Ntvv/1BcEVonAJsF2V1PEVP5hCLF8cInIiWCJpz7jxn/kpwjRA64yOOtnDaT7/iByF1JdROPzknztu3b78LxKtcMtfWNwwZkAEZkAEZkAEZkAEZkAEZkAEZkAEZkAEZOJ6BixNc+emAPPX56dOna2EVARaRMWDk5wVyfky7Ek3vU3Dt/Ff5TuF17wlX8s7TrviiXqcItqv49h1/0VkrayUDMiADMiADMiADMiADMiADMiADMiADl8vAxQmuPLnJk60IiIiKT548+TtxMU+lngL2KYJrxE6ETGIgluanBxJz9VQpea2ET2L3zxXEx2xXOc45nHfs5HqTmqx823e5bxburXsrAzIgAzIgAzIgAzIgAzIgAzIgAzIgA4cZuDjBFeEwQucEAEES4bP/ef6hJ0dXNhFFiRWhsn9SgLjkkDiIwNjgK0+iZoy2c+A4Y4kz/TGeuLSZ3/1z7fO87Tr+nOf54YvIGlkjGZABGZABGZABGZABGZABGZABGZABGZCBMHBxgiuCJk+DIm5mkbYCLwMyIAMyIAMyIAMyIAMyIAMyIAMyIAMyIAMycB8MXJzgStH66VKe+tx64jUF7qc9+2nR/p3TzLX1wpQBGZABGZABGZABGZABGZABGZABGZABGZABGdhi4CIF163F2u+FIAMyIAMyIAMyIAMyIAMyIAMyIAMyIAMyIAMycJcMKLh+FbC7BEzf8iUDMiADMiADMiADMiADMiADMiADMiADMvArMaDgquDqb93KgAzIgAzIgAzIgAzIgAzIgAzIgAzIgAzIgAyciQEF1zMV8ldS6V2r30rJgAzIgAzIgAzIgAzIgAzIgAzIgAzIgAzIwJoBBVcFV7+9kAEZkAEZkAEZkAEZkAEZkAEZkAEZkAEZkAEZOBMDCq5nKqSK/lrRty7WRQZuxsDHjx+vXrx4cfXlyxf/4N3h+/T79++vXr58aY3vsMa+B9zsPcC6WTcZkAEZkAEZkAEZkAEZ+HkZuHjB9VjR4s2bN1e8zgUzN/DcyJ/DH4LL8+fPrx49enT94pi+2Z/xxGU96Xv8+PEVtUg+HNP39OnTq8+fP3/vz/hNW3yR38rn3tiMd5v6nRJnxv0R58cyetvcbluXm9jDKKJhs7e1jvuow03WsJXvbfu5TreuP/J89uzZ39Ut1y3Xdd4H+jrP9d4CIr6Iw9hWvGPX0vHxl/fMjkH/fL/p8dvm0L5mHNaR8dSHvvlemffIrJt6ZS3pS0t/+0r/MS227XeeH+Pj3HNSi84rMVK73kNqxXnvd+bftF3VIXklVtd8js39S96z/6b5affzfqh179w7GZABGZABGZABGZCBh8LAxQuuxwp3qxvA22zSsXFvEmNLHOCmdEvc4kY0N7A5/vDhw7Wow83qTfJY2ezVkTjkcEy829RvL4dVzj+67z6ERtZ4Sv1XNbmJ/R6TM8Z91OEma5h5nuuc63BLfFxd49QHEfbQ9dP8M3cl3N5kDRG9Imp1Lft4+r7LHFbMUDveB/vp4K7nKte9HKln3jvn2g6d914wd54fsr+L8ewjuUz/e/ntjU0/h86P8dV7BnPJd3XdsH9cS2HzUHzH/RAuAzIgAzIgAzIgAzIgAzJw1wxctOC6uhnnpi1P0LTYQf+rV6++PwnGzV6Kz/GWzevXr6+f5mJ82uTmD9/9JNZWDom31+ZmOb57Ln2dQ48Rc44dK+DEz1YdMr4SMpLvrN/sj6DBGjI3be/TTXKYe5tY5N3xup+x3qcea5vOjflbPEQQyJqYO2vQY4nfTCaHWee576v8um6J0zy0TeKQw8yx18v41qvjNfvdH18zRvKjRvjv3BjjfCtu+qfPrDW1o6746tymTdeB+eztzI14XEf4YSxrSh577er9ifnJkbbtWcOhtU9bapg6tq+bHpNDakkuqdGM2/7PmcOMw571l0zJiS+TIrjOOeS2quVWnvjMmntdW8fMDye0+G1GMhb2GG///b7MMWPUefI1eSXuVk6zf7V+5mz1M7aqD/sB81lTcpi5hZO9OnSOsY+/HpsMMLba47bxePu92tpYGxmQARmQARmQARmQARm4GwYuWnCdN4irG7WAxdzcADNv66kwbgBzc4xNBJZpkxtX5mcOsfZySC6rFrvc2CZ+z9u64WTuvFGPXd/Yp+/YtusQm1Uf8akTc/bWPvcq9YvvVbuKt+rrfcJPfLP+iDL0M48xjvETkaBjz5r1vI4zeZjrmz47j4y1P/qS96xjr3nmF1+00y5je3UgJnns2cdPWuanjltcMrfz5nzmEX/dbq2h53A8fWcce66j5Ne5Zk5axrJ25ocHfOT9YebTPGATISot4/G/1a5yTx23RN/46pzpI4etLwFic2pLDNaTGmKfumadPXbOHLr2xKVWq/ftZonasXepPWPY5Dzr5zx7nL5TW3z3U8hzP+Y5/idDPWfmylhqS5s1dF3oyz6kjc3WevCbuWmnTeeFn1nXzmHGmbbzPPPxsfd3jnnn2KfEs72bD5bW1brKgAzIgAzIgAzIgAzIwNerixVc500sm50bxNygNwB9Axhxg5td5jCWm1Da3Iju2TCHuS22HsohN9eJlZvpzpNjfCeHjB26CWV85jLFAXzt5bBVB+xmzeibezDPU6OsF/9ZD2Or9Z+aA/56n+I//YmdNnXdik9OmYOPXlPHmfXAjhhtm1yo+Zbg2jXJ/I5JX+fUOWR+2mmXfmyy/rTkOefP89h3O9c9z2esrsdWHSaTk+OOn+PYTAFtrqFrhy35pAa0qT/9zI3/nGdf22bGjM2x7cwJO/Jm3akX5xF943f2UXtyST4573XE9tiWesQfueS47ROHuTnOvJzfJoeuOdcNL/abfLJfk6XwwD6RCzYzh2nTazr2mPjJAZtD5/EbnqgPx+wlYzOnnP/+++/fhcmwt/q7Fv/HtsljNX+uhRypZXLFpu05Tm60e3VZxcOeV4+x/idPnlzXpfs99gO9DMiADMiADMiADMiADMjAQ2PgYgXXeXPYhc9Nf9+g9nzGcxM/b/C4Sc9N4JYNsZjDk2VbN4erHDrHvWNyiIDBvPiaAkL7mGIMY6ytn8bq+fN4rw7M7brEdt6Q9znzWzjrWmJP/eZ6bpIDvqbv5LfVvxWf/rnOXlP7a4YSL/aID2GIPtYFb9j03PbX/R0zPuNvy4Z50y4+t2zm/Hke+27nuvv80P6t6oA9rJPj3ho6hz7GJ9d5rpe5ht7PPSabx+TE/LbvuBxj04ITx8yf8+b5ymfXMfM7J/qoUTjYm5NaZs6xLbVrkbfrMH00U6s8b5rDjJP9/Otf//p3AiT17vf42K5qydiq7rE5tu11Y3PoPH7hlJ+toH379u13RuY1QY6wjOBKy/rjIy1zJneTi8yd7dyrHp9rSe07h9iTw977+/TVcXKctbJf9OVapj9zbP1QLQMyIAMyIAMyIAMyIAMy8FAZuEjBdeuGem5Cbg7p7xvAtucmL6Ik/dzk5uZ1ywZ/8Y39luja82Zue+f4JnbmzBvT9He7mtNr67mr454768D8rLdtMy83yMzJTXjnww07/b2muUb83iQH7HqfOr/21/2xiUjXY9MG35nXcZqhtucYHy2wTp+Z3/7SR0u9InyldtSLMeqaGrfNtOuxrfh7+9f287j3jjVE9Oo48Z288dHj8Zl5YQh/W+uLzWypUcSpPmYefpPDHpPMSQ6dZ+/FjHvT85lj/HRdZ9x5HhvqlfXNWjKn9yc2W+2034pJP3uUep0zh5lb16TH2KO+xnqs85n9jHXfqcfNEDnAfvvcik1tWQtf0mGXuHMdvd4+zvzbtvjMvk1f5N5rmTyQa/7WdR3CQ9tu1aFj9vriYyu3tvPYD9wyIAMyIAMyIAMyIAMyIAMPgYGLFFy5KeNmbRY4N8B5+idCGfP6ZpIbyTzhyhi+8rQUN8TxfcgmN4e02NPu5TDzzXluNpN337jOm97YdN7Y9VpnDoxnTW0/j7fqgL8tcSNrJwZPbkX4St70I87wdFevq3Nsge0mOfQ+zTUxRg55Zc/26tc2nVvH2WJoFWfGwg997W8rbwSdZjJ2idP5zbHe814TtqnD1v7NfPq8947cjrmWYp/9JYfUoXOAkzAUm1U71xNfXEttj+/UYY/JzisCcuJ2fp13xm/SEi85x77z6z1inLlZR+an7dynz+ROm/l7be9t57DVH1/nzIE1EHuv1uTT70lZJzarOsFFvsRIzjdpe4/gDP675v1ePjliHjb4SOxZ1869fbGuaRsfp7T4nyx0vVP3zJn5pb/rsHp/79xTh+6be9v8JIeu6ylrdK4fvmVABmRABmRABmRABmRABu6DgYsTXLnRa4HnPor4q8dY3aTfd00eQg73vWbj3d8fifvmC/HpHALgIUYQzPJU4qG5dzX+EHJgf3+0gLdijNq0cHxXe6Df+3svsdbWWgZkQAZkQAZkQAZkQAZ+DQYuTnAV3F8DXPf5x+3zfBItT5zRIhpd4t6sxLC7Xuddi22sKU8X3vVatvw/hBx4KvNHckvs+URn6nXXDCSO7Y97P7X21l4GZEAGZEAGZEAGZEAGLpMBBdevl7mxXrDuqwzIgAzIgAzIgAzIgAzIgAzIgAzIgAzIgAzcPwMKrgquF/lEom8m9/9mYs2tuQzIgAzIgAzIgAzIgAzIgAzIgAzIgAx8vVJwVXBVcJUBGZABGZABGZABGZABGZABGZABGZABGZABGTgTAwquZyqk6r3f4MiADMiADMiADMiADMiADMiADMiADMiADMiADCi4Krj67YUMyIAMyIAMyIAMyIAMyIAMyIAMyIAMyIAMyMCZGFBwPVMh/fbCby9kQAZkQAZkQAZkQAZkQAZkQAZkQAZkQAZkQAYUXEtwff/+/dWjR4+uX8+fP7/68uXLtbL/+fPnK85pf9RFc9scPn78ePXixYvva9pax8uXL6+ow9b4qf3n9Md+sA9zj2Z/xrOON2/efLd5/PjxFbXIOjim7+nTp2fd39vuV/K7r/ZYPm6bz23rchN7+ID93vetddy2DrDGa/q/zxzOec3NdZz7/Cb7edMctvbmWH83sT/W5j7rcOx6necHRBmQARmQARmQARmQARmQARm4OQMKrt8EV8S5Ft24UUa4AK6HcDN82xyOFWGOnXfsRXdufx0X3+xT93G8J26xzxHTc/zhw4erZ8+enVVwPVZombn/qPPbCo3H5n1bjm9iv8fDzPs2ddjL7b5yuE3+sxb3cb5Xs3PHv+01eRP7Y23usw7nrqv+bv4BzNpZOxmQARmQARmQARmQARm4XAYUXDcEOm6AEfT+9Kc/fX86Mk9O0s9FgbjB05Hp5+Y6FwvHr169uhZxGY/IxzhjsaGN0Iso009w5glN4vV8jpND4u21KxGmc0h8fOD39evX39fVa+o82oY5bdO5cZx1MK+fMN3KYW8tGUut4jv9tPR1Dj1GzDlGfU4RXLHPfnQdEmclnhB3iwfyjb/mBH9dox5rm86B+Vt70TbZh9Qx8dPiJ/FXec81zpp3rOTXdUuc3ou26bXOHOMv9d5qO17Wy9zuj68ZI/mlDp0bY5zPuMzN/Ix1rPvIgXidG8c83Zv3layX/Pr9q/sZY3/pSx3ic6sfX8RexZm1ZR4xujaJk7HwBXsZSw7MyXHm0W7l3euMr96LHp91IE5saOf+EnO+tmw6Tvvaq8OsXV8XM67nf78X1sSayIAMyIAMyIAMyIAMyIAM/CgGFFy/CQ/c2PcN8bt3764FAW7k5039arO4Me5/tsyNed+8RyQgRsS93ExHPMgc/BOTeczPOTfbERaSw+pmPf4yZwpBe+vBX/LuXOMrLTGYy3mvdeadNTE/frHZyyExVi12+EGwSPyeN/chY8zFpnPI2N46M2er7Tpkzqqva8S81IXY/VMPzMu68LMSWGa+Pa/j9F5s1SU5zzzS3/4677l/veaZX3zRTruMzfhdB+rB+Z59/KRt+721d97Yzjzir9vVGlYx7juHVV6sr8VFcuI15zZDrAXu6Ot1z3585D2KuhEnNr1n9IXp9sfxzCPj9HOtkit9vS/4Spy2n/nFV9qsPee0bc85fnPNETPv1Yyt7NsXx8faTF5mHtNvzo/JIXNt/WApAzIgAzIgAzIgAzIgAzIgAz+OAQXXbzfZ3MjmRh7xlX9mzjk3wls3w/RH/EPMWwkbE+6+IW+BYPqa/rZymP7n+coucTvf2KUGnE9bakReeTGXeS0CTCGBOcyfQudeDtSI3BIn4kpyTIvv5JC+FkzS1y3jM5fek8zdy2GrDtjO9cdf1yh9tNMXa86aaFdrpy9z8NH71HFmLtjgf+WT9bbwmxzbX/pmTM47py2blV18btWh17ZnHz+0c93zfMbqWm7VYfIwGer1/6gcVnWfeaVO9Of6SttC44qFuRf4CqOzbp1Lahf/yYF25XOvv2POeTMHxvvVOaV/rw5z/jyPj27nnD5nrVt/L7bqgO9ct9knfHZMj/+4z9bDesiADMiADMiADMiADMiADDwEBhRcv4leeaL106dP30WEiA5bN8PcCEesWYk6qxvjedMd+60YgWRrfN6MT0Gtb/jjKy05I4K08Io/RAjmdEzEjCdPnnx/4raFnI4x64A//ol72yY+7SqHHt87JocWceIr+a9sWVOeyss4a+sn2dK/avfqwPyuS9t3jY7pZ07vRdvMGL1PHWfuRXyEma7TlljV/mJP2zE575y2bFZ28bllM+PM89h3O9fd54f2b1WHcEWOqzW0/+Qx+/r8LnLYqkvvS3Kj3epnbFUD+lcxwui0We0nc3iv6Wt25XMrFv28EnPOmzlkftpVTnt1mPPnefx2O+f0OXnzYn7zwPlWHcivxf3213E99gOlDMiADMiADMiADMiADMiADDwsBhRcv4kPufFGEEAcbOGSm+Ep0gEyN8/cAHOMfQuXWzfGibO6ENrfHN/KYc7r83lT32N9TFzyoq+PWwRAzIgoiV9EE+Zi02udMeMP+y3Rdcbt3PaO8Z36M481tJizsl3N6bWtbLqv5846MC/rbRuOu0Y91v66Pzar9UwbfGdex5l70f57Hv3TZ+bOeelvHjlGFAoP1LhFotjQtl33b8VPjZvPLd/tr9lgDbk2O058J2/sezz+Mi854K9zwCZfzsSG9j5zILdeR/LY6t/aB+yyn1lvfM06sO5c07MGe9zAKjESa/XeynjPSw60XVeOsxdbeceWnGaNsFnFx4b157pifTCEj/hbtXs2nTfzwiR+tvJof1nfoRxWedn3sD54uR/uhwzIgAzIgAzIgAzIgAxcPgMKrt9urA/dxDKef9KZm/bchNOP4MKLPi4c5q985qY5vmjjb47lZj8X4iqHjK1abtbju8c7b+J3HOZjx3zyadGDMeYjFPDUanz3WhFlug7tD7/Y0+7l0Ln28axP13eKQW2XvOdaZw6MZ01tP4/jb9YBfyvhDfuu0fTX+5r6ZE5izdzbJoLTjNN7MWvXNqtYqe0xec86JA9y5jVjde5d7+7vOoQb+t6+ffsHJpP7bHtvYXUyia9V3vjpmqcOnQM/OTKvC8Z/VA69zzMH8uoa93iviXpkrczp+vVe7PU3+/iKP1p85JX+5NLjyXW+92TuzG3uxVZ+2PU1wN4zl/6tOuQ9hbzZbziauXdeHO/ZdG7UqpnEdlWH9sd1xHoP5TBz8vzyP8i5x+6xDMiADMiADMiADMiADDw8BhRcd54uugtguVnuG2ZuwvPk6Dnj7Ykw54yjr3+6qBGLVsKbNfqnGl1aLbh+W2j8EevbE1V/RD7GvFze3Vv3VgZkQAZkQAZkQAZkQAZkQAaOY0DB9dvvAvbTRzzR1KLoOWGacfpJq3PG0ddxF4B1+jnr1E8r5snJtHlK0r39Off2oe8bfIW1bueT3A99Hebn9SEDMiADMiADMiADMiADMiADd8eAguv4n6yF7e5gs7bWVgZkQAZkQAZkQAZkQAZkQAZkQAZkQAZk4NIZUHBVcP273568dOhdn2/sMiADMiADMiADMiADMiADMiADMiADMiADd8WAgquCq4KrDMiADMiADMiADMiADMiADMiADMiADMiADMjAmRhQcD1TIe9KEdev37bIgAzIgAzIgAzIgAzIgAzIgAzIgAzIgAzIwM/DgIKrgqvfXsiADMiADMiADMiADMiADMiADMiADMiADMiADJyJAQXXMxXSbxl+nm8ZfpW9evPmzRWv+17vly9frl68eHH18ePHe49932s1nte9DMiADMiADMiADMiADMiADMiADMjAZODiBVdEH8QfRKC5+D4/tzj18uXLq/fv3+/G7Ph7x+T+/Pnzq0ePHl2/OKZv9mc8cVlT+h4/fvwHAYy60Pf06dOrz58/nyVP1oAv8lv53Bub679N/U6JM+MeOr9L34diz3H2eWv/GAsnsaMvPMwx5rA2/PVY+rCbDMXvqoWvZ8+eLTnYy3vlq/tm/ed5z73P47019XUI133dbu3fqbnvvc/1Hs54yWX2E5+8m4VTc3K+HzhkQAZkQAZkQAZkQAZkQAZkQAZ+VQYuXnA9Vrh7yILrhJM1ke/sRzzZerKwBbgcf/jwYVMUm76PPd+r4yni2LH7tsprL4fV/FP6TlnDKX5vMndL5CNHxE5EuPidAuiqRtQcfvIFRcQ44uBnT9RLnG6Jgc/u43gr7zlvdT7rP89XNvfRt7Wmvfz2xk7NeWtviDFZaN/sEaIqL+auxuCg+z32A5MMyIAMyIAMyIAMyIAMyIAMyIAM7DNw0YLrSoRAYMhTfv1UF/2vXr26fsKP8RaKON6yef369fWTfyubCFX47qcDt3I4BtYpgrUN8TrvHiPmHJsiXM9fHW/VIXNXAlLynfWb/XmSjjVkbtrep1NzICfsWT95smb2InuT3Gcbu+QQ+6wRVhjrfY3vaYNv5sPKaqzXnDrMfFbnK76Zt+Jg9k1bxomNCB/BNWulxS97tiXor/Kb9pkzY6d/q52shIdmIXWlj7hTZKSfPWSMY9Yx94/4596LvbVu1Yc8s57moXNjnPNZm9iFV9ocz/qSG3X67bffloIr/qnVtPN8/4+q9bE+MiADMiADMiADMiADMiADMiADFy24TrFhS+DgQmBuxLOVYJOLpUUIbCL+TBuECubyyhx87OWQGKsWO/wgqKxEkC0xjLnYdA7xH8EF3+k7tu06xGbVR/wIPntrn3uV+sX3ql3FW/V13GP8Emvmk/jZB/xkXo4zh3buB3MinuEjguAU5IjL3JWQFj47zuoYe+rQY5wnPv3H5NN5YoOPY3NgftYwc+m8jjkm1y2Gem/bV+9fz+GYayH+ui7n3IvEiQBKO2vXeSX3zoe+8JDxtNN25p551G71pVDvzfQVW1s/IMiADMiADMiADMiADMiADMiADMjAzRi4WMF1JSJEZJjCB/C0QMO8fpKPsRZOEDEO2TBnJXTu5YBoQm6JtSVU4Ts5BPwp1KQ/LeNTdCUewh+1yry9HLbqgO2sGX1zD+Z5apT14j95MLZa/6k5xB++iDPrlvHZbs2fa2BefDIWUZxYzdlcT87nek7Jceac8/jOeVr6U2tEuDzJSn9qP4W71AE75vd1Eb977VYuezY9Nut96Dy2vQ7WkPXt2d/FXnQeyS3tzIV+ckiunLc9x/3+0Ndzz4v/vNdEaM956sHeMHeVR3zY3uwPq3WzbjIgAzIgAzIgAzIgAzIgAzLwazNwsYLrFC4a9AgPLYj1/BYPETKePHny/fcwW2DbsiEWYgaiVtseyqHH947JISIK87Ie+rfsEFXyVGXmsLYpuGZstnt1YG7XJbZTyOlz5rdg1LXEfiXU3SSH5EI8xEL+aX/6jmmxaxG014B9r5ucI2I1Q8zr9fR+zXUnp8yJQErbvGbequ1Yq3H6kjfraZE48Vax5tq3fKd/1iD9p7Qz5qHz9s1ew8yf//zn718qTPu+Bu5iL/AfYbtz43jmQt/MIfaZy/jKNvOoeceZLGD/l7/85fr9I3vdLVy0vce/9gcE99/9lwEZkAEZkAEZkAEZkAEZkIGbMXCRguuxQk+LES10tH0LMvQjdGIHcFs2jMU39luia887BWB8R3jBDpGkBdiVr9WcXtvKpvt67qwD87Letsm8iDjMicja+SAm0d9rmmvE701ymHYrv53z6pi4Ec0ifNEyl3Xgk+P2TX+LloylDr2OPl7Fvklf57SyJ/cpvmderzV9aXt96WPPep3pp5216rFjj/cYSoyttVAHRFcE18SbOZF/9u8u9mKvnjMXciTnvpbJjdesA3nnWsJuK/de3/SxVZP0297sj6p1s24yIAMyIAMyIAMyIAMyIAMyIAMXKbhuCU6IEohDeaKrhQ2ECV5cFAgT/U+nETywwZanViPQHLIhD/zRYk+7l8PWBYkw008hJs/kyjoSq30kb2L3WmcOjGdNbT+P42/WAX8RJKdN1k6Mt28645fcAAAgAElEQVTfXufBeiL+0M/aEMZ6XZ1jC0un5pDapT4571gzZ84Th/x4tT21xA/z6E/tOmfqsWIIX1OgJJfE6VirvI7pI7cpQna9Z/z2Ofeyc1vVLPub+rQv5qc23X/qcWJQm2YofjrHjpe97tzSl3r3dYG/9nWOvZj1JMbMgTidR7PX/V0HrpfmEL9t13u11Z/6kc/0lTFbPyTIgAzIgAzIgAzIgAzIgAzIgAzIwOkMXJzgOsVSoTgdilNrhqDTotap9ueY/xBy2FvHfefHfrRYt5fbbcYQFFdPcNN/7M9V3Cb+nu2W2Km4ePfvCXv74pj1lwEZkAEZkAEZkAEZkAEZkAEZuHQGLk5wvfQNc30/55vSfQuucMJTjv2k47nZYU2rp2V/9JceCK3k1U9GZ+0+zflzXj/ZP1v3TwZkQAZkQAZkQAZkQAZkQAZk4GdgQMH1q6D+DKCao5zKgAzIgAzIgAzIgAzIgAzIgAzIgAzIgAz8DAwouCq4fv8PhX4GYM3RN1YZkAEZkAEZkAEZkAEZkAEZkAEZkAEZkIGHzICCq4KrgqsMyIAMyIAMyIAMyIAMyIAMyIAMyIAMyIAMyMCZGFBwPVMhH7Kqbm5+6yMDMiADMiADMiADMiADMiADMiADMiADMiAD98OAgquCq99eyIAMyIAMyIAMyIAMyIAMyIAMyIAMyIAMyIAMnIkBBdczFdJvCO7nGwLrbJ1lQAZkQAZkQAZkQAZkQAZkQAZkQAZkQAYeMgMKriW4vn///urRo0fXr+fPn199+fLlWtn//PnzFee0P2ozb5vDx48fr168ePF9TVvrePny5RV12Bo/tf+c/tgP9mHu0ezPeNbx5s2b7zaPHz++ohZZB8f0PX369Kz7e9v9Sn731R7Lx23zuW1dbmIPH7Df+761jtvWAdZ4Tf/3mcM5r7m5Ds/9QCMDMiADMiADMiADMiADMiADMiADhxlQcP0muCLOteiGaIJwAUQ3EXnODd9tczhWhDl23rHrO7e/jovvU8Ut9jlieo4/fPhw9ezZs7MKrlvCW+f/kI5vKzQeu5bbcnwT+/sSO/dyu68c7msfj91v5x3+I2yNrJEMyIAMyIAMyIAMyIAMyIAMXB4DCq5fv14/9TmfgEM8QdD705/+9P3pyDw5ST8XA+IGT0emv8U/jl+9enUt4jIekQ87xmJDG6EXUaaf4MwTmsTr+Rwnh2MuypUI0zkkPr7w+/r16+/r6jV1Hm3DnLbp3DjOOpjXT5hu5XDMmlKr+G4b+jqHHiPmHKM+pwiu2Gc/ug6JsxLeiLvFA/nGX3OCv65Rj7VN58D8rb1om+xD6pj4afGT+Ku85xpnzTtW8uu6JU7vRdv0WmeO8Zd6b7UdL+tlbvfH14yR/FKHzo0xzmdc5mZ+xjrWfeRAvOSWNdFHPuwZ6505Jlfby/sD7566pzIgAzIgAzIgAzIgAzIgAzLwYxhQcP0mnCIqtYD67t27a2EGkWKKSytYETdatEXUiJjD/AghLe5FEIlAkjnMJyYiIPNzjghFf8fHJuJQ2vjLvCkE7a0Hf8m7c42vtMRgLue91pl31sT8+MVmL4fEWLXY4Ye1Jn7Pm/uQMeZi0zlkbG+dmbPVdh0yZ9XXNWJe6kLs/qkH5mVd+GnhMf5nvj2v4/RebNWlfXYe6W9/nffcv17zzC++aKddxvbqQD3IY88+ftJ2HffW3nljO/OIv25Xa1jFuO8cDuVFPqljr8fjH/PH17pbdxmQARmQARmQARmQARmQARm4XAYUXL9+vX4iLOIIAgziK//MHKEHEWMlZHBR0B/xDzGvn2DbEjdajEKkQVAj5vQ1/W3lcOjiXNklbucbPxECs74WeVkTeeUVYbDXOoUn5jB/Cp17OVAjcksc6pP8usV3ckg/c1ciZY/PXHpPMm8vh606YDvXH39do/TRTl+sOWuiXa2dvszBR+9xx5m5YIP/lU/WuyW44rNznjE575w6h0N2Gd+qQ69tFTf23c51z/MZq2u5VYfJw2So108uM+Y8v4sctuqe3Peui66fx5f7B9+9dW9lQAZkQAZkQAZkQAZkQAZk4H4YUHD9JnrlidZPnz5di1kIKBGgpugTOBFqItasBBUEkMxNi68WaWO/FaPtWvxMP/YRJtO2oLYlwmBPzvhs4RV/se+cEG2ePHny/YnbFpg6xqwD/vgn7m2b3Ldy6PG9Y3JoESnrSf4rW9bUTw4zh7Ud+5MCe3XAV9el43eNjulnTu9F28wYvU8dZ+5FfISZrhPrCu+ZR9v+ur9j0t85bdkwb9rF55bNnD/PY9/tXHefH9q/VR3CFTmu1tD+k8fs6/O7yGGvLlkT+04eydH2fv7IWmfrLAMyIAMyIAMyIAMyIAMyIAO/HgMKrt/EoghGiI+Ig/0kIGLGFOm4WBAwIsJg38LlloCUOKuLrf3N8a0c5rw+b5Gn++cxccmL/j5uEQfRJqIkfhE6mYtNr3XGjL8pMu3lMMe2zvGd+jOHNbQAu7Jbzem1rWy6r+fOOjAv620bjrtGPdb+uj82q/VMG3xnXseZe9H+ex7902fmznnpbx455kuE8ECN5xOgK7v00W7FT42bzy3f7a/ZYA25NjtOfCfvrTwyLzngr3PA50qsvs8cyK3XkVr0PpH3ak7m2v56HwDcc/dcBmRABmRABmRABmRABmRABu6GAQXXb0IdYsQeZIznCdKIFggtCDn0I7jwog8/zF/5jDgVX7TxN8cioiWvVQ4ZW7VbIkznTfyOQy4RlsiHMVr8M8Z81sxTq8m71zpFvvaHX+xp93JYrYW+WZ+u7xTF2kfynmudOTCeNbX9PI6/WQf8rYQ37LtG01/va+qTOYk1c2+bFv86Tu/FrF3brGLh59i8Zx1iR868ZqzOvevd/V2HcEPf27dv/8Bkcp9t7y2s9rWZmq7yxk/GiZc6dA785Mi8Lhj/UTn0PncOuSayhpx3zXu+x3fzR9a6WlcZkAEZkAEZkAEZkAEZkAEZ+PUYUHD9JuStnmC9iwsC8SMCCP4RhvLk6DnjbYkw54yhrz++YSBkrYQ36/THOl1SPfZE9vtaJ8wpol4uY/fFkXFkSAZkQAZkQAZkQAZkQAZkQAbOx4CC69e/FbOfiOsn284N24zDU3b0nTuO/s53kVjLh1fL+cQu12xeio8Pb7+8htwTGZABGZABGZABGZABGZABGZCBX4kBBddvguuvtOmu1Tc5GZABGZABGZABGZABGZABGZABGZABGZABGbgbBhRcFVx9ulYGZEAGZEAGZEAGZEAGZEAGZEAGZEAGZEAGZOBMDCi4nqmQfiNwN98IWFfrKgMyIAMyIAMyIAMyIAMyIAMyIAMyIAMy8DMxoOCq4Oq3FzIgAzIgAzIgAzIgAzIgAzIgAzIgAzIgAzIgA2diQMH1TIX8mVR2c/VbIRmQARmQARmQARmQARmQARmQARmQARmQARm4GwYUXO9QcM3/pP7+/Xu/IbjDOvvmcDdvDtbVusqADMiADMiADMiADMiADMiADMiADMjA6QwouJYQiDD66NGj69fz58+vvnz5ciuhdEtw/fjx49WLFy9u7V/gTwfemlkzGZABGZABGZABGZABGZABGZABGZABGZCBu2RAwfWb4IrY+vTp0ytEUgr+5s2bq5cvX95KcN3aOAVXL+otNuyXDRmQARmQARmQARmQARmQARmQARmQARn4uRlQcP369fpJU544RQgN0AivCK6///77FU+7RohFmI0Qiyj7+vXrq8ePH18/FZt+fDCWp2XzkwI8MYuv9KdlLjZ5Inb2J6fZMh9/vMiBXLDFH2uh/9mzZ9dC8qtXr67Hksv05fnPfSG7f+6fDMiADMiADMiADMiADMiADMiADMiADDwMBhRcv369FicRJBEpI56+e/fuWlj961//ei1cbgmueSqWccTNFm2BHBF2ipzMWf2kAEJpxNe+QDqviLGIqYjBxMeGOPQl79hwTj/jW/47lscP48J0H9wHGZABGZABGZABGZABGZABGZABGZABGfg5GVBw/fr1WhCNaIk4ivj64cOHowTXCKQ8vTqfkuWiOEVwJTaCKjbHXFB5wpU2cfDBcURdxpKXguvPeZEew4Jz3FsZkAEZkAEZkAEZkAEZkAEZkAEZkAEZeBgMKLh+++f/eTL006dP38VLhMpDPylwTsE1F8UUXvO0ap5upc0TrrQKrg/jYsr+2bofMiADMiADMiADMiADMiADMiADMiADMvDrMqDg+u0J1zwZyk8KPHny5PvvnSJm5qcCOOaf8OcJ1H5i9NQnXPGJv62LL0+o4ndrDvYKrr/uxbvFhf0yIQMyIAMyIAMyIAMyIAMyIAMyIAMyIAM/jgEF1/pJgS0QEVZ5qjT/MdUxgitz+olUbBFRE6PH85Rs92GLCJz5q1bB9cddOKv9sM/9kAEZkAEZkAEZkAEZkAEZkAEZkAEZkAEZUHD9+vX6SdM8xepF4UUhAzIgAzIgAzIgAzIgAzIgAzIgAzIgAzIgAzJwUwYUXL/+DZ75O6l56vSmhdXOi1IGZEAGZEAGZEAGZEAGZEAGZEAGZEAGZEAGfj0GFFy/Ca7C/+vB75675zIgAzIgAzIgAzIgAzIgAzIgAzIgAzIgA+dmQMFVwXX3d2LPDZz+fBOTARmQARmQARmQARmQARmQARmQARmQARm4ZAYUXBVcFVxlQAZkQAZkQAZkQAZkQAZkQAZkQAZkQAZkQAbOxICC65kKecmqvGvzWycZkAEZkAEZkAEZkAEZkAEZkAEZkAEZkAEZOI4BBVcFV7+9kAEZkAEZkAEZkAEZkAEZkAEZkAEZkAEZkAEZOBMDCq5nKqQK/3EKv3W6vzq9efPmitd91/zLly9XL168uPr48eO9x77vtRrv/ni21tZaBmRABmRABmRABmRABmRABmTgZ2Hg4gVXRB/EH0SgvU05tzj18uXLq/fv3+/G3Munx8j9+fPnV48ePbp+cUzf7M944rKm9D1+/PgPAhh1oe/p06dXnz9/Pkue5Iwv8lv53Bvr9XJ8m/qdEmfGPXR+l74PxZ7j7PPW/jEWTmK3xQNrws8hVhifPuN7tvD17NmzJQd7eU8/83zWf57P+fd1vremrjtc93W7tX+n5r33Ptf7O+Mll9lPfPI+dr9Pzdf5fkiSARmQARmQARmQARmQARmQARm4ZAYuXnA9VrhDXOB1rs0+Nu5N4uF7lSviydaThS3A5fjDhw+bothN8sJmr46niGO3qd9eDjddV+xOWUNs7qrdEvnIEbETES6xpwCKLTVmfG9N0y7+jmnZh8To+Vt595yt45nrPN+yu+v+rTXt5bc3dmq+W4IrMSYL7Zs9QlTlxdzVGO8r3e+xH4pkQAZkQAZkQAZkQAZkQAZkQAZkYJ+BixZcVyIEAkOe5Ounuuh/9erV9yf9WijieMvm9evX10+KMj5tEGEAEN/9hOlWDsfAmifS4rtt6OsceoyYc+xUMW2rDomzEpCS76zf7M+TdKwhc9P2Pp2aw1xj4q7ql3XQshbiJgfql35yhRXGel+Jxfm0wY75sLIa6zWnDp3L1vGKb+auOMh6sm7qONc0BTd8MS82W3ls9a94YO5W3lt+smepXXhoFjJGH3GnyJj1MsYxX0xg0/tH/HPvxd5at+rT7w/NQ+dG7pzP2qQO2VvaHM/6kht1+u2335aCK/6p1bTzfP+PqvWxPjIgAzIgAzIgAzIgAzIgAzIgAxctuE6xYUvg4EJgbsSXlWCTi6VFCGwi/kwbhArm8socfOzlkBirFrsIgCsRBOFl9XQrcxFhOof4j+CC7/Qd23YdYrPqI34En721z71K/eJ71a7irfra154A1jFmPhnLPuCTPublOHNo534wJ+IZPiIIznzibyWkhc+Oszru9fZ4+6ROGcuaItZlPVnDllAc+6028TrW1ty9fvKhLsyZDM3z+On96zlZa/yRW/blnHuROKkp7dy/zit5dz70hYeMp522M/fMo3arL4V6b6av2Nr6AUEGZEAGZEAGZEAGZEAGZEAGZEAGbsbAxQquKxEhIsMUPoCnBZoITYgYGWvhJILUng1zsJlC514OxCO3xNoSqvCdHAL+FGrSn5bxmQvxEP6oVebt5cB6kxtt5zBrhr+5B/M8NYpP/CcPxlbrPzUH/OEnuWK/8pu4aZkz18jYXEP7ZiyiOLbN2VxPzud6VjGT07FtfPf8cEe85Mlxz+F4NS+1wy5C8bTbOl/lsjV31T/rfeg8PuA4v93MHmWte/Z3sRedR3JLO3OhnxySK+dtP6/Nvp57XvxnLyMo5zz16H1lDvnE1vZmf1Ctm3WTARmQARmQARmQARmQARmQARmAgYsVXKdw0cBHeGhBrOcznqdFETKePHny/fcwW2DbsiEWYgZPlrXtoRx6fO+YHCKiMC/roX/LDjFlimWsbQquW/Z7dcCm6xIfU1Dqc+a3YNS1xH4l1N0kB3xRH/x9+vTpek84T46HWvJsEbTXgG2vmxi8EjMMcd7r6f2a604+mUPsvJrXzFu1HSvj5NnM7O19ciKHXgO+Vr4TY7Yr+znn0Pms96Hz9sfPOLDOP//5z9/FxGnfdci62wfHt9kL/Ef4nX5nLozPHGKfuYwzL+e0nGceuXacuV/Y/+Uvf7lmIVx1Cydt77EfFGRABmRABmRABmRABmRABmRABmTgdAYuUnA9VuhpMaKFjrZvQSbCC3bAtmXDWHxjvyW69rxT4MV3hBfsppi28rWa02tb2XRfz511YF7W2zaZFxGHORFZOx9EI/p7TXON+L1JDskH3wjgb9++PVlQIm5Esyl0sQ5yTQ2yBvpbIO369Dr6OLnetu2c4mvG6fpnDm32gnHOex8Ym6I96+11Tl+3fXJyj6HkO3NKDqwB0RXBNX1z/8g/+zdrFJvbtPgMO9PPzIXxuS/kxmvWgbxzLWG3lXuvb/pIPqs8MmZ7+h9Va2bNZEAGZEAGZEAGZEAGZEAGZEAGLlJwRbSIiNKQI0ogDuWJrn7iD2GCF/MRJvrJPnxhgy2iXXwfsoloRYs97V4OnWsfI4ggriTv5JlcWUditV3yxq7XOnNgPGtq+3kcf7MO+NsSlbJ2YiB2RoCL+EM/a0MY63V1ji0s3SQH1oG/PeF7a63kxyv1neIU/ald50w9VgzhawqUrDtxOtbM6dhzclyJkB2na9p5z/i9T3OMfLK/qU/nSLzUpvtPPU4M4jdD8dPr6ni5bjq39OGLV18X+Gtfq/Um5rEttZ3Xxsxh5hHGZ3/Xgesl11JyaTvWcag/4+QzfWXM1g8JMiADMiADMiADMiADMiADMiADMnA6AxcnuE6xVChOh+LUmiH0tKh1qv055h/KgfyYc45YN/FxKL+b+NyzYb1TTNybf9OxLSGb/mN/ruKmsQ/ZbYmdiot3/55waG8cdw9kQAZkQAZkQAZkQAZkQAZkQAYumYGLE1wvebNc2+lvRnkq8D7Ex739uW/BlVx4yrGfdNzL7yZjrGk+rYufH/2lB0IrefVTvFmfT3Oefg2ldrbWTgZkQAZkQAZkQAZkQAZkQAZkQAaOY0DB9etxhRIo6yQDMiADMiADMiADMiADMiADMiADMiADMiADMnCIAQVXBdcf9s/sD8HpuG9gMiADMiADMiADMiADMiADMiADMiADMiADPxsDCq4KrgquMiADMiADMiADMiADMiADMiADMiADMiADMiADZ2JAwfVMhfzZlHbz9dshGZABGZABGZABGZABGZABGZABGZABGZABGTg/AwquCq5+eyEDMiADMiADMiADMiADMiADMiADMiADMiADMnAmBhRcz1RIvw04/7cB1tSayoAMyIAMyIAMyIAMyIAMyIAMyIAMyIAM/GwMKLiW4Pr+/furR48eXb+eP39+9eXLl2tl//Pnz1ec0/6oDb5tDh8/frx68eLF9zVtrePly5dX1GFr/NT+c/pjP9iHuUezP+NZx5s3b77bPH78+IpaZB0c0/f06dOz7u9t9yv53Vd7LB+3zee2dbmJPXzAfu/71jpuWwdY4zX932cO57zm5jo890OODMiADMiADMiADMiADMiADMiADBxmQMH1m+CKONeiG6IJwgUQ3UTkOTd8t83hWBHm2HnHru/c/jouvk8Vt9jniOk5/vDhw9WzZ8/OKrhuCW+d/0M6vq3QeOxabsvxTezvS+zcy+2+crivfTx2v513+I+wNbJGMiADMiADMiADMiADMiADMnB5DCi4fv16/dTnfAIO8QRB709/+tP3pyPz5CT9XAyIGzwdmf4W/zh+9erVtYjLeEQ+7BiLDW2EXkSZfoIzT2gSr+dznByOuShXIkznkPj4wu/r16+/r6vX1Hm0DXPapnPjOOtgXj9hupXDMWtKreK7bejrHHqMmHOM+pwiuGKf/eg6JM5KeCPuFg/kG3/NCf66Rj3WNp0D87f2om2yD6lj4qfFT+Kv8p5rnDXvWMmv65Y4vRdt02udOcZf6r3Vdrysl7ndH18zRvJLHTo3xjifcZmb+RnrWPeRA/GSG3sE1/Dd+cwcM2Z7eX/g3VP3VAZkQAZkQAZkQAZkQAZkQAZ+DAMKrt+EU0SlFlDfvXt3LcwgWkxxaQUrgk2LtogaEXOYHyGkxb2IPBFIMof5UyzZyqEFnYhE8Zc8pxC05St5Ju/ONb7SEoPYnPdaZ95ZE/PjF5u9HBJj1WKHH9aa+D1v7kPGUqfOIWN768ycrbbrkDmrvq4R81IXYvdPPTAv68JPC4/xP/PteR2n92KrLu2z80h/++u85/71mmd+8UU77TK2VwfqQR579vGTtuu4t/bOG9uZR/x1u1rDKsZ957DKixxOrV2v1eMf84fZult3GZABGZABGZABGZABGZABGfi5GVBw/fr1+omwiCMIMIiv/DNzhB5EjJWQAfj0R/xDAOwn2Fro6IukxShEGgQ1Yk5f099WDu17dbyyS9zON7YRAjmftqwpom4Lnr3WKTzhj7lT6NzLgRqRW2JRn+TXLb55dR9zVyJl5jA+c+k9yby9HLbqgO1cf/x1jdJHO311XXsv2oY19Lp7nzrOzAUb/K/qyXq3BFd8dnyOOybnnVPncMgu41t1mHHmeey7neue5zNW13KrDpOHyVCvn1xmzHl+Fzms6t7rIUfmdK08/rn/gLt/7p8MyIAMyIAMyIAMyIAMyIAMPEwGFFy/iV55ovXTp0/XYhbiRASoLZEHoSZizUpQWYkb+GqRNvZbMXLhbI1jH2EyLbnHbiXCZIycESdbeMVf7Dsmws2TJ0++//Nk5iT3jjHrwBz+iXvbJj7tKoce3zsmhxZX4yv5r2xZ0/xn1qzt2J8U2KsD8bouHb9rdEw/c3ov2mbG6H3qOHMv4gO/U3htYS7zaNtf93dM+junLRvmTbv43LKZ8+d57Lud6+7zQ/u3qkO4IsfVGtp/8ph9fX4XOezVJU/v//nPf76uf3K0fZh/lN0X90UGZEAGZEAGZEAGZEAGZEAGfn4GFFy/iUURjBAfEQdbkELMmCId8CNcRYTBvoXLLQEpcVYXT/ub41s5zHl93iJP98/jFvb6uEUcRKKIkvhF6GQuvnqtM2b8TZFpL4c5tnWO79SfOdS2BdiV3WpOr21l0309d9aBeVlv23DcNeqx9tf9sVmtZ9rgO/M6ztyL9t/z6J8+M3fOS3/zyDFfIoQHajyfAF3ZpY92K35qjE/mEWPLd/trNlhDrs2OE9/JeyuPzEsO+Osc8JkvZ35UDuTW6+g8GEN0RXDtfo9//j/g7qF7KAMyIAMyIAMyIAMyIAMyIAMPkwEF129CHSLKHqSM5wnSCBsILQg59CO48KIPP8xf+Yw4FV+08TfHIqIlr1UOGVu1WyJM5038jkMuEZbIhzFa/DPGfNbMU6vJu9c6Rb72h1/safdyWK2Fvlmfru8UxdpH8p5rnTkwnjW1/TyOv1kH/K2EN+y7RtNf72vqkzmJNXNvmxb/Ok7vxaxd26xi4efYvGcdYkfOvGaszr3r3f1dh3BD39u3b//AZHKfbe8trPa1mZqu8sZPxomXOnQOiJfzumD8R+XQ+zxz4Dx7v8pxNd++h/nH2n1xX2RABmRABmRABmRABmRABmTg52FAwfWbILF6gvUuQEbAiYiDf4ShPDl6zniHRJhzxtLX3y54hDpFrZ/nze8c3O6J7Ofwf4wPmGvheto8hBxnTp7/WteJ++1+y4AMyIAMyIAMyIAMyIAM/GoMKLh+/Rv0/URcP9l2biBmHJ6yo+/ccfTnm9klM5CnNrlW52tPfLzkmsy15b1mPmE853nue4UMyIAMyIAMyIAMyIAMyIAMyIAMnJcBBddvgqtgnRcs62k9ZUAGZEAGZEAGZEAGZEAGZEAGZEAGZEAGfkUGFFwVXH26VgZkQAZkQAZkQAZkQAZkQAZkQAZkQAZkQAZk4EwMKLieqZC/olrvmv2WSgZkQAZkQAZkQAZkQAZkQAZkQAZkQAZkQAb+yICCq4Kr317IgAzIgAzIgAzIgAzIgAzIgAzIgAzIgAzIgAyciQEF1zMVUiX/j0q+9bAeMiADMiADMiADMiADMiADMiADMiADMiADvyIDCq53KLjmf1J///693xDcYZ1/xQvXNfsHSwZkQAZkQAZkQAZkQAZkQAZkQAZkQAYeJgMKriUEIow+evTo+vX8+fOrL1++3Eoo3RJcP378ePXixYtb+/eiepgXlfvivsiADMiADMiADMiADMiADMiADMiADMjAr8uAgus3wRWx9enTp1eIpFwQb968uXr58uWtBNetC0vB9de94LaYsF8mZEAGZEAGZEAGZEAGZEAGZEAGZEAGZOAyGFBw/fr1+klTnjhFCA3YCK8Irr///vsVT7tGiEWYjRCLKPv69eurx48fXz8Vm358MJanZfOTAjwxi6/0p2UuNnkidvYnp9kyH3+8yIFcsMUfa6H/2bNn1+Pd7KEAACAASURBVELyq1evrseSy/Tl+WVc0O6j+ygDMiADMiADMiADMiADMiADMiADMiADP5YBBdevX6/FSQRJRMqIp+/evbsWVv/6179eC5dbgmueimUccbNFW+BGhJ0iJ3NWPymAUBrxtS+MzitiLGIqYjDxsSEOfck7NpzTz/iW/47l8Y+9IK2/9ZcBGZABGZABGZABGZABGZABGZABGZCBn5sBBdevX68F0YiWiKOIrx8+fDhKcI1AytOr8ylZLo5TBFdiI6hic8yFlSdcaRMHHxxH1GUseSm4/twX6zFMOMc9lgEZkAEZkAEZkAEZkAEZkAEZkAEZkIEfy4CC67d//p8nQz99+vRdvESoPPSTAucUXHMxTOE1T6vm6VbaPOFKq+D6Yy+i7Jut+yADMiADMiADMiADMiADMiADMiADMiADMqDg+u0J1zwZyk8KPHny5PvvnSJm5qcCOOaf8OcJ1H5i9NQnXPGJv62LME+o4ndrDvYKrl7EW3zYLxsyIAMyIAMyIAMyIAMyIAMyIAMyIAMycP8MKLjWTwpsAYiwylOl+Y+pjhFcmdNPpGKLiJoYPZ6nZLsPW0TgzF+1Cq73f8Gs9sE+90EGZEAGZEAGZEAGZEAGZEAGZEAGZEAGZCAMKLh+/Xr9pGmeYk1hbL1IZEAGZEAGZEAGZEAGZEAGZEAGZEAGZEAGZEAGTmVAwfXr36CZv5Oap05PLajzvQhlQAZkQAZkQAZkQAZkQAZkQAZkQAZkQAZk4NdlQMH1m+DqRfDrXgT/f3vnjiVFsmVR5sMkYAbNCBgAYgvoyJTwFAaA0AqrNIQnURpVIiWiIjKJ7LWjOdmn7jP3jCQjf8EWcpm72f3ZtR0BccJJPHvPXgZkQAZkQAZkQAZkQAZkQAZkQAZkQAZk4FQMKLgquO7+nthTgWYc37RkQAZkQAZkQAZkQAZkQAZkQAZkQAZkQAZ+BQYUXBVcFVxlQAZkQAZkQAZkQAZkQAZkQAZkQAZkQAZkQAZOxICC64ka+Suo8+7Rb6FkQAZkQAZkQAZkQAZkQAZkQAZkQAZkQAZkYJ8BBVcFV7+9kAEZkAEZkAEZkAEZkAEZkAEZkAEZkAEZkAEZOBEDCq4naqTK/r6yb3/uvj/v3r274Oeue//t27eLV69eXXz+/PnOc9/1Xs1391zbc3suAzIgAzIgAzIgAzIgAzIgAzLw0Bk4e8EV0QfxBxFo7zBOLU69fv364uPHj7s59+rpNWp/+fLlxZMnTw4/XDM357OevOwpc0+fPv2HAEZfmHv+/PnF169fT1InNROL+lYx99Z6v1zfpH/XyTPzXnV/m7Gvyj3XOeet82MtnLRfMxExtufCC/2PX1hhbRUzdj3i8+LFiyUHe3V3jNX17P+8X/ncxdzenrq/9LVft1vnd92a997n6BF5OL+ZL7XMefJT97Hnfd16tfcvRzIgAzIgAzIgAzIgAzIgAzIgA+fMwNkLrscKd4gL/JzqsI/N+zP5iL2qFfFk68nCFuBy/enTp01R7Gfqwmevj9cRx27Sv70afnZf8bvOHuJzW+OWyEeNiJ2IcJ2bvtDXnltdd//2hNOVb89t5duqu323rmf/5/2W323Pb+1pr769tevWuyW4kmPFQuJzRoiq/GCbecas8b7S8177lyIZkAEZkAEZkAEZkAEZkAEZkAEZ2GfgrAXXlQiBiJCn+PqpLubfvHlz+SRYC1Ncb/m8ffv28KQo69MHEQYAid1PmG7VcAyseSItsduHua6h18g5164rpm31IXlWAlLqnf2b83mSjj3ENmOf08/U0D7ETK7UvRrZC3lTA/3DLnuEFdb6XOkn99MHP+xhZbXWez6mttS74pu1FQepmzH+q3Ha0TvirWyvmpuxYr9Vd9bnOFkJD/Nc6S1z5J0iI/OcIWtc88XEPD/ynvos9va61Z9+f2geujZq5372ZvJFrLA7+0pt9OnPP/9cCq7Ep1fTz/v9P1Ttj/2RARmQARmQARmQARmQARmQARk4a8F1ig1bAgcvBGwjnq0Em7xYWoTAJ+LP9EGowJaf2BBjr4bkWI34RQBciSAIL6unW7FFhOkaEj+CC7Ezd+zYfYjPao78EXz29j7PKv1L7NW4yreaa1+ET/bdc6vrWU9scg45A+xyHRvGeR7YRDwjRgTBKcgl3kpIC5+dZ3W96l3ybAmNidP7zh62hOL4bI3ZA2eyZXPMPPuhLmwnQ/M+8XofbcM1r4XEo7acS3pE3cTBhtzZR8RMxqvOInn2fLqu1N31dA1Zzzh9Z+2xo/7Vl0LZE/lmrPg6+hcEGZABGZABGZABGZABGZABGZABGfg5Bs5WcF2JCBEZVmJJCzTYtXjJWgsniBgAt+eDDT5T6NyrAdGE2pJrS6gidmoI+FOoyXxG1mct5EP4o1ex26thqw/4zp4xN89g3qdH2S/xUwdrq/1ft4bEY8R3FbNtco0ddc0+zz1gFxvW6HH205zN/eR+7meVMzUdOyZ222c/2T9jhMbYUX+EYOayn95fr8dvb1zVsmc/12a/r7qPfwuQ7DVs7fnfxll0Hakt46yFeWpIrdy3/3xt9uu57RI/7zU559ynH32u2FBPfB1/7g9U+2bfZEAGZEAGZEAGZEAGZEAGZEAGYOBsBdcpXDTwER5aEGv7Fg8RMp49e3b5VCRiRYSKLR9yYcOTZe17VQ29vnc9xbLsh/ktP8SUKZaxtym4bvnv9QGf7ktiTEGp77Fvwah7if9KqPuZGlILvjzdmvtjR+psEbT3QIzeNzWHjWYIu95Pn9fcd+qKTcRbxuY1dquxc2Wd/fMlAnGZm/tgjlpSP/dzD8ytYjO/+ln5r+z25madV913rDzN/Ntvv12KidOfvuQ1cBtnMfve9c1aWJs1xD+2rGOXe0buY5fzTZ55Xvj/61//OojtzVau4Tm+jmuu7Yt9kQEZkAEZkAEZkAEZkAEZkAEZuIqBsxRcjxV6WoxooaP9W5BhnifBIkpt+dD0xMZ/S3Rtu6sOqteJHeGFeUSSPMXWdn29sum9te3qum1nH7DPfts3dhFxsInI2vUgGjHfe5p7JO7P1IAfdRAv4lTXeMw1eSNWTqGLfRCbOF0z8y2QspY+9D76+phajrHpmmJP3S24Y9PMzPX49Z5WNpxZ7zN+jLNXvXbs9R5DydH76rjsEdEVwTXzsybqz/ndxlk0O6kh46yF+Xku1MbP7AN157WE31btvb8ZY6+OrDn6lwgZkAEZkAEZkAEZkAEZkAEZkAEZuD4DZym4rgQn4ECUQBzK01wtOCFM8IMdwkT/SgEEjzxhyFOrEWiu8qEO4jHiz7hXwxbACDOIK6k7daZW9pFcHSN149d7nTWwnj21/7xOPHrYfSBeBMnpk72T4/3794c62E/EH+bZG8JY76trbGHpZ2ogLnnysyUQdu3JE5/0d4pkzKd3XTP9WDFEvJl/1pdcXc91rqlxJUJ2fd1TYlND9tG5+pyofdbG/Wp+L2bHP+Y6OcjTDMW3+9d7yOuma84csfjp10Vqzhpj+ybfdcbVa2PWMOto9rq+7gOvF9aIlXraj55cNZ91YsxYWXO8/h+q9syeyYAMyIAMyIAMyIAMyIAMyIAMnJ3gOsVSIb99yBF6bipM3fScHkINe3u46/o4jxbr9mq7yRqC4uoJbubzT/VvEv8mvltip+Li7b8n3OTc9PV8ZEAGZEAGZEAGZEAGZEAGZEAGHjsDZye4PvYDsf7zfFO5a8EVjnjKsZ90PDVb7Gk+rUuO+/7SA6GVuuZTvNTm05zn+fo6NdvGkxMZkAEZkAEZkAEZkAEZkAEZkIGbMKDguvEf/tykqfr6opQBGZABGZABGZABGZABGZABGZABGZABGZCBX5MBBVcF18vf9eibwK/5JuC5e+4yIAMyIAMyIAMyIAMyIAMyIAMyIAMycDoGFFwVXBVcZUAGZEAGZEAGZEAGZEAGZEAGZEAGZEAGZEAGTsSAguuJGum3AKf7FsBe2ksZkAEZkAEZkAEZkAEZkAEZkAEZkAEZkIHHyoCCq4Kr317IgAzIgAzIgAzIgAzIgAzIgAzIgAzIgAzIgAyciAEF1xM18rEq7tbtt0UyIAMyIAMyIAMyIAMyIAMyIAMyIAMyIAMycDoGFFxLcP348ePFkydPDj8vX768+Pbt20HZ//r16wX3jPcF301r+Pz588WrV68u97S1j9evX1/Qh631686fMh7nwTnMM5rzWc8+3r17d+nz9OnTC3qRfXDN3PPnz096vjc9r9R3V+OxfNy0npv25Wf84QP2+9y39nHTPsAaPzP+XdZwytfc3If3p/vD117aSxmQARmQARmQARmQARmQARk4XwYUXH8IrohzLbohmiBcAP/PiDynftHctIZjRZhj7Y7d36njdV5iX1fc4pwjpuf606dPFy9evDip4LolvHX9D+n6pkLjsXu5Kcc/439XYudebXdVw12d47Hnrd35/uXBs/VsZUAGZEAGZEAGZEAGZEAGZGCbAQXX798PT33OJ+AQTxD0/vu///vy6cg8Ock8UCFu8HRk5lv84/rNmzcHEZf1iHz4sRYfxgi9iDL9BGee0CRf23OdGo6BeyXCdA3JTyzivn379nJfvaeuo32waZ+ujevsA7t+wnSrhmP2lF4ldvsw1zX0GjnnGv25juCKf86j+5A8K+GNvFs8UG/iNSfE6x71Wvt0DdhvnUX75BzSx+TPSJzkX9U99zh73rlSX/ctefos2qf3OmtMvPR7a+x82S+2PZ9YM0fqSx+6Nta4n3mxjX3WOtdd1EC+ro16shfG7Df1OW7/4Whv7I0MyIAMyIAMyIAMyIAMyIAMyMDPMqDg+kM4RVRqAfXDhw8HYQZhaYpLq2Yj2LRoi9DR4kaEkBb3IvJEIIkN8cmJCIh97hGhmO/8LehEWEm82E0haG8/xEvdXWtiZSQHttz3Xmfd2RP2iYvPXg3JsRrxIw57Tf62m+eQNWy3BKe9fcZ/a+w+xGY11z3CLn0hd/+qB+yyL+K08Jj4s9626zx9Flt96ZhdR+Y7Xtc9z6/3POtLLMbpl7W9PtAP6tjzT5yM3ce9vXfd+M46Eq/H1R5WOe66hlVdXTf1sN+e89q/PMiADMiADMiADMiADMiADMiADMjA6RlQcP3+/SBCRBxBkEB85Z+ZI/QgYmwJGcxH/EPM6yfYiMfPhLbFKEQaBDVyzlgz3lYNM/68X/klb9cbvwiB3E9f9kNd+Ykw2HudwhM22LfYSuy9GugRtSXPlkhE7NSQ+rFdiZS9PmvpM4ndXg1bfci+WnhPvO5R5hhnLPacPTGu9s5cbIjR59R5ts5iFZP9bgmuxOyaZ07uu6au4Sq/rG/1ofe2yhv/Hue+5/3M1b3c6sPkYTLU+6eWmXPe30YNe32nPta7T16f/g9Ue2pPZUAGZEAGZEAGZEAGZEAGZEAGYEDB9YfolSdav3z5chCzECgiQE3RJy8ehJqINStBZSVwEKtF2vhv5UiurXX8I0xmpPb47Ykw1Iw42cIr8eLfORGcnj17dvnELTapvXPMPmDDP3Fv39TGuKqh1/euqaHF1cRK/Stf9tRPDmPD3o79lQJ7fSBW96Xzd4+Omcemz6J9Zo4+p84zzyIxiAsr3Sf2Fd5jx9jxer5zMt81bflgN/0Sc8tn2s/7+Pc49933V53fqg/hihpXe+j4qWPO9f1t1LDXF9Y4c2pIfY7+BUAGZEAGZEAGZEAGZEAGZEAGZEAGbo8BBdcfYlEEI8RHxMEWpBAspkgHlIgYEWHwb+FyS0BKnhXUHW+ub9Uw7fq+RZ6en9fkpS7m+7pFHESiiJLERejEFp/e68yZeFNk2qthrm3dEzv9x4Y9tAC78lvZ9N5WPj3XtrMP2GW/7cN196jXOl7Px2e1n+lD7Nh1nnkWHb/tmJ8xYzvtMt88cs2XCOGBHs8nQFd+mWPcyp8eN59bsTtes8Ee8trsPImdurfqiF1qIF7XQMyVWH2XNVBb76N7kV+X0nNe394fqvbW3sqADMiADMiADMiADMiADMiADCi4/hDqEFH2XhCs5wnSCBsILQg5zCO48MMccbBfxYw4lViMiTfXIqKlrlUNWVuNWyJM103+zkMtEZaohzVG4rOGPXvmqdXU3XudIl/HIy7+jHs1rPbC3OxP93eKYh0jdc+9zhpYz57af14n3uwD8VbCG/7doxmvzzX9iU1yzdrbp8W/ztNnMXvXPqtcxDm27tmH+FEzPzNX19797vnuQ7hh7v379/9gMrXPsc8WVvu1mZ6u6iZO1smXPnQNCJjzdcH6fdXQ5zxr6LrZT/d12nrvXwhkQAZkQAZkQAZkQAZkQAZkQAZk4DQMKLj+EPJWT7DeBmQIOBFxiI8wlCdHT5lvT4Q5ZR5j/f8LEaFuJbzZo//v0bn1Yk9kv6u9wlwL13eV1zzny7Vn69nKgAzIgAzIgAzIgAzIgAzIwM0YUHD9/n8N7Cfi+sm2UwM28/CUHXOnzmO8m70w7N/D7t98YjdPbzIqPj7ss/O15fnIgAzIgAzIgAzIgAzIgAzIgAycOwMKrj8E13M/aPfnm5kMyIAMyIAMyIAMyIAMyIAMyIAMyIAMyIAM3D4DCq4Krj5dKwMyIAMyIAMyIAMyIAMyIAMyIAMyIAMyIAMycCIGFFxP1Ei/Hbj9bwfssT2WARmQARmQARmQARmQARmQARmQARmQARl46AwouCq4+u2FDMiADMiADMiADMiADMiADMiADMiADMiADMjAiRhQcD1RIx+6sm59fvsjAzIgAzIgAzIgAzIgAzIgAzIgAzIgAzIgA7fPgILrLQqu+Z/UP3786DcEt9hn3yhu/43CHttjGZABGZABGZABGZABGZABGZABGZABGTiOAQXXEgIRRp88eXL4efny5cW3b99uJJRuCa6fP3++ePXq1Y3jC/lxkNsn+yQDMiADMiADMiADMiADMiADMiADMiADMnBXDCi4/hBcEVufP39+gUhK89+9e3fx+vXrGwmuW4eo4OoLfIsN52VDBmRABmRABmRABmRABmRABmRABmRABh43Awqu378fnjTliVOE0ACN8Irg+vfff1/wtGuEWITZCLGIsm/fvr14+vTp4anYzBODtTwtm18pwBOzxMp8RmzxyROxcz41zRF74vFDDdSCL/HYC/MvXrw4CMlv3rw5rKWWGcv7x/1C9vw8PxmQARmQARmQARmQARmQARmQARmQARl4GAwouH7/fhAnESQRKSOefvjw4SCs/vXXXwfhcktwzVOxrCNutmgL5IiwU+TEZvUrBRBKI772C6TrihiLmIoYTH58yMNc6o4P98yzvhW/c3n9MF6YnoPnIAMyIAMyIAMyIAMyIAMyIAMyIAMyIAOPkwEF1+/fD4JoREvEUcTXT58+HSW4RiDl6dX5lCwviusIruRGUMXnmBdUnnBlTB5icB1Rl7XUpeD6OF+kx7CgjWcrAzIgAzIgAzIgAzIgAzIgAzIgAzIgAw+DAQXXH//8P0+Gfvny5VK8RKi86lcKnFJwzYtiCq95WjVPtzLmCVdGBdeH8WLK+Tl6HjIgAzIgAzIgAzIgAzIgAzIgAzIgAzLw6zKg4PrjCdc8GcqvFHj27Nnl7ztFzMyvCuCaf8KfJ1D7idHrPuFKTOJtvfjyhCpxt2zwV3D9dV+8W1w4LxMyIAMyIAMyIAMyIAMyIAMyIAMyIAMycH8MKLjWrxTYAhFhladK8x9THSO4YtNPpOKLiJocvZ6nZHsOX0Tg2K9GBdf7e+GszsM5z0MGZEAGZEAGZEAGZEAGZEAGZEAGZEAGZEDB9fv3w5OmeYrVF4UvChmQARmQARmQARmQARmQARmQARmQARmQARmQgZ9lQMH1+//BM39Pap46/dnG6ueLUgZkQAZkQAZkQAZkQAZkQAZkQAZkQAZkQAZ+PQYUXH8IrsL/68HvmXvmMiADMiADMiADMiADMiADMiADMiADMiADp2ZAwVXBdff3xJ4aOOP5JiYDMiADMiADMiADMiADMiADMiADMiADMnDODCi4KrgquMqADMiADMiADMiADMiADMiADMiADMiADMiADJyIAQXXEzXynFV59+a3TjIgAzIgAzIgAzIgAzIgAzIgAzIgAzIgAzJwHAMKrgqufnshAzIgAzIgAzIgAzIgAzIgAzIgAzIgAzIgAzJwIgYUXE/USBX+4xT+2ad3795dvHz58uLbt29Hv6g/fvx48fz584uvX78e7YMtPvjOGrz//7P7/PnzxatXry7Pg75xPtfptf38/37Si7AH6/bmn72xH/ZDBmRABmRABmRABmRABmRABmTgHBl4VIIrgsUxosXr169PJqydWnCK+PLkyZMLfqgVsOY8a0+fPr1AAEOMRPSKzxQo6UnHOhWoU3zruAiXqb3nt66xTf19hlzP/WzFyPyW4Eqsjh17xvT3vgTXUzLZ+7ru9Vbv0qMXL14cmOu4+Gyd0V68jrG6xrcZ2uNt5X9bc9dh8pj3h7C3xeZ19rHH0XXqvk5Obf3LjwzIgAzIgAzIgAzIgAzIgAzIgAxcj4FHI7geI2zk8PdEidgcO14n77ExYxchFeEpcxn38rK/iDe55p7r+J9i3OvjFMv28t2VkEYP0pe9eu5jba+Xd1nPnkAallb1bK3txVvF6bnJ0F1x0jWsrmFoS2Ce9nuv02l7ivs9jq5T9ylqMcb1/rC1X/ZLBmRABmRABmRABmRABmRABn4dBh6N4DrFtIiVeWoSISLgcv327dvDE6KsR4SbPi2qYNM+ideCSvzjl/tVDallbyT26olCfOZ+Eyc5EasyF/vU3POr68RI3dlP267EL+Z46jZ+nY/rzKffiTeFNebZO//EH5+Z/82bN4ezmPG67v6VArMu/PJ0MLmoJ7FWfcta17FVQ/a0Grs+Ys7+NF/p0fQ5tobec/diVVfPrc6V9ea87XO95bc1H785dt3p0exBzoMeYc9rhPqIFVvOkTl6zK9AwKfPHNs9JmddfX8Vr+QKR+kbvMwamjvWcubk6j7M8yNmXhvJRT6u+2f6rerufXn96/zB7ll71jIgAzIgAzIgAzIgAzIgAzJwvww8CsEVkQVRBZEiwOyJCwgtESOmYBN/RgSQiCCM8UHwiBAaQYWRuPwkxl4NsVmNLbYkf9t1zswzFxGma8g6cVbzWd8b8Z11zDnypyfE6r23bQtivc8IRelx6sGmf2co8+wjwuPq/Fb9wa/rSPweiUvdmeM6eeKfHl5VQ2L02D3pea6Jl72v9hT73kPX0P2f++994JNeZ+w9J88c92rHtvNP32PvZ4yZc8UCsdlT9tA2xKOn9Aw7bHKe3cermIzP1j7aH5vex14NHa/rwYecjLPumatjcN29mGve3+8fpvbf/suADMiADMiADMiADMiADMiADISBRyG4TmGG4hFeeKJtJZa0KDHFjSlIRaxpQQTRIwJvBBXEK3zTuKtqSH17olfEldSQ2NzPXFljZG2ur3z2asA/tTF2DbNn5JxnkPvsoWNxzXpqjm3ue2wBLfPUFv9VLas5fNlD7yPxMnbclX3X0rZb+RI3Y/p9Kia7BnLknt7Mfq9ypq5jxr0zwr9fE8fEW9nMHPO++9/+bcf5cs/6PJfc//3334f3hdmj+HXsY64TlzH2OYu5Nu9j32xSx6wt57fVg8RJ3tw7+oe5DMiADMiADMiADMiADMiADMiADDw8Bh684HqV0LMSuVqUaAEEoSNPGQJjiyB93Tnjzz8ZjigyQV7VMG227slLvVknXz9Jmvke2cesZcZp+3m91wdsuxfxxafrzH33KrZzjO2c534lMG2dX/xzJoyZY1zV3esdd2XftbTtVr6O3dcrHrbi7Z1F+9Bnzhz7vX7iM8U87Lu+1fVeTOyv24Njcsyc3f/2Z+/s68uXL4dfNcH9qib8ee0guOYLk47Ddc6mezRfS9NntfeczVzb2kOzOffd+bb8Y5O8uXd8eH+oeiaeiQzIgAzIgAzIgAzIgAzIgAzIwIMXXK8SIIB4ih4tSvQaQkfEFeb7nyO3INIiYvtjE//54mm7ubZ13yJabMhB/blfjaxj12vH+MV+rw+999gzcg6IWewzvUudV+W+rsC0dX6pZ6vXV9XRcYnVfeCe9eypbbfypZ7VOH224nUN6WvOtn1m/68S5Vc17c3NeqftMa/D6TPv5x54/aXf2Pb69KUn/A7c9+/fX3I/a+7z7+sZ67r383VKnc+ePTvUu1dD56EefpjDZ+v8WKMvcNH+uaZfiZM5R/8glwEZkAEZkAEZkAEZkAEZkAEZkIGHxcCDF1xbdGp4EB36KbUWIdqnBZEIJ/ghavDUavwYc92iY/uTn9j4Mo/9Vg1da18j1vR/PNXCCjFXQgzz5Eyu1EncWQM2HbNz53qvD/iyx9j2yHx6h/AVu46XdWqO7yrm7AN+iceYPRAHkZtx9gGfFsB7vf8DpdSNPT9bax1rq4bsaTXOs+hz2orXvZtMdt1dM7npT/bD2LlWtR0zR76tOHtrx8SOTfbEXpuhuT731CJnbPu8se/z676yltdsfK87Tl6bz35tdg2dg752b/fObysX8Xrtpnvq+rx+WH8wex6ehwzIgAzIgAzIgAzIgAzIgAw8bgYetOCKuDD/QyWBuz3gEKm2/im2fb+9vm/1FnEywt6WzSnnETBXgj81bAmJp8y/F4sa6EfbUC91Mfb8Q7y+67N8iD2wprt/D7Hn9lwGZEAGZEAGZEAGZEAGZEAG7oeBBy24CsX9QGHfH0bf70Okm19y3LeomSdBV4Lvfde29zqZT9hOsXjP17WH8frzHDwHGZABGZABGZABGZABGZABGZCBn2VAwfW78PwsPPrJjgzIgAzIgAzIgAzIgAzIgAzIgAzIgAzIgAz8kwEFVwXXB//PsX3R/vNFaz/shwzIgAzIgAzIgAzIgAzIgAzIgAzIgAw8XAYUmzVXHAAAIABJREFUXBVcFVxlQAZkQAZkQAZkQAZkQAZkQAZkQAZkQAZkQAZOxICC64ka6bcKD/dbBc/Gs5EBGZABGZABGZABGZABGZABGZABGZABGbgrBhRcFVz99kIGZEAGZEAGZEAGZEAGZEAGZEAGZEAGZEAGZOBEDCi4nqiRd6WQ33ce/tf458+fX/A/xN93Leb3mykZkAEZkAEZkAEZkAEZkAEZkAEZkAEZkIGHxsCjElzfvXt3wc9VTXz9+vUFwuBVdsesIyy+fPnyZAIj8RAsnzx5cvihVuqY86w/ffr04vPnzxffvn071BAf6mEu9dMT1hIr8zcdyf3q1at/5Dql4LqKf9OaT+l/So5OWZex/INEBmRABmRABmRABmRABmRABmRABmRABh4uA49GcL2O8HlKoew6ea8LeoTUlTi8l5f9RXjONfdcX7eGPftT9nGVR8H14b4xrM7LOc9LBmRABmRABmRABmRABmRABmRABmRABq5m4NEIrgiKERk52IiVeeqzxUau3759e3hClPX4TZ9+UhSb9km8Fj7jH7/cr2o4Bj5iv3jx4vAU67Sf+816ck6RFvvUHNutMTFSd/bT9lMMbZ/5KwW2ekc89thP9GLbsVJDnxM2b968ufRLfX0WxKYH7Dnz2PFUMOfY8Wa+9I494o8f9tkX611Xr3WPvL76DcYe2SMZkAEZkAEZkAEZkAEZkAEZkAEZkIFfjYFHIbgimPFP2xHIckAR23LfIyJaxDN8EDUR5dqGa4Q9fnIdH2wjhEbMYyQuP4mzV0NsViM1IQy2KNh2nTPzzEW47Bqyzj5W81nfG7sPsVvNsbaqDdtV77DfisMafZi/siA+icc9+6LXM3f6n96QC1sE1A8fPlz2I/7EwjZnm3MgTvIQg+vcZy1zjv4hIQMyIAMyIAMyIAMyIAMyIAMyIAMyIAMysMfAoxBcI6z1RiKW5enHXpsCGzYIbdiw1k8vRmBrYbAF3oh5+ODbefZqyFpyrYS7PHmZGhKb+5kra9nDXF/57NWw1Qfis+fuWederW31Dj/2veoda9S3JbjOnqzqChddE/tivtciVOcs8rtxZ/7eB/kSi2t/7IEMyIAMyIAMyIAMyIAMyIAMyIAMyIAMyMAxDDx4wbXFz9WGIiq28NpCWYtxiHD95GQLbH3dOePPP3HvHF3LqoZe37smL/XGhnx5AjNzc2Qfs5YZZ/r0/V4fsOtetB/X6Qdj1tq+e5d1RnJO4XUKnrHveJljnLmJSe96Pme/WutYXM/8M29iTT/vfXOVARmQARmQARmQARmQARmQARmQARmQARnYYuDBC65TFFttpAU31lso6zVEuAiVzCO+IrLh02Jbi4btj038Zx1tN9e27slDPOqKDTmoP/erkfXUnfVj/GK714fee+x7XO2T3Klnz3+eJferX/fQ8WbuiNE5P3rRNeXsI7jiv+oX87OemXfLr2vy2jdXGZABGZABGZABGZABGZABGZABGZABGZCBZuDBC64R0LporhHH8k/EGSP4sdY+LcZF4MQesZWnVuPXYluLhu2f2HlKdq+GWW/uEfny+1upo8VWckVQjD0j8+TMflMza7OGGbPj5HqvDy1Uxp5x1kCeiM9bvcOPs0jdq9p6PfvqeF0D19lv/nMs/PuMcva9j1l76r5KcO2zypnPerz3DVUGZEAGZEAGZEAGZEAGZEAGZEAGZEAGZKAZeNCC6xTEunCvTw9yC8329/T9taf2VAZkQAZkQAZkQAZkQAZkQAZkQAZkQAbOn4EHLbgK4PkD6Bl7xjIgAzIgAzIgAzIgAzIgAzIgAzIgAzIgA+fEgIKr/wP97u+LPSfY3Ytv3jIgAzIgAzIgAzIgAzIgAzIgAzIgAzIgA7fNgIKrgquCqwzIgAzIgAzIgAzIgAzIgAzIgAzIgAzIgAzIwIkYUHA9USNvWxk3vt++yIAMyIAMyIAMyIAMyIAMyIAMyIAMyIAMyMDDZ0DBVcHVby9kQAZkQAZkQAZkQAZkQAZkQAZkQAZkQAZkQAZOxICC64ka6bcLD//bBc/IM5IBGZABGZABGZABGZABGZABGZABGZABGbhtBhRcFVz/49uLr1+/Xjx//vzi48eP/7F220Aa3zc9GZABGZABGZABGZABGZABGZABGZABGZCBx8zA2Qqu7969u3jy5Mnh5/Xr1wfhkLmnT59efP78+XDP+OrVq4u///77HwLjt2/fLl6+fHkRv5854M5/H8JlRNPeA9fUwtjz1IrAig97je+p6k7en+njbfuEAc78tnMZ3z8sZEAGZEAGZEAGZEAGZEAGZEAGZEAGZOD8GThLwRUBEcE0IhqCH3P8/Nd//ddhBO4W2xAX49PXN30R3JfYiGj64sWLw54ipKaWrLH/vr7pXrf8k3dr/T7nm4H7rMPc5/9m6xl7xjIgAzIgAzIgAzIgAzIgAzIgAzLwazBwdoIrAiLCaURGQEZUe/PmzUFoffv27eHpTtan2IYwiB1CJWvHvAgQZ/MkbT8lGt8pNubp2fhE5MWemoiRNQTixOk8/ZRu1ueYPrx///5SYO5aIirzhG/n4Tr5sUlc4uGPPetdw9wTdvh1zYmZHqU++p215Os6Y8dIbeQnNyO9Szzy4ZdYvSdycO69NmvutezZ8dd4E/ScPWcZkAEZkAEZkAEZkAEZkAEZkAEZkIFTMnB2giuiHWJbxD7EOa4R4/71r38d1rI+BVdEPQS8CIZXNRp/xFn8tmxbPFzZUEvEwb5uW8RBBMaVCNwiY0RD9huh8s8//zzshxizFu5bsOyc0za96VqxwSf9bf++nrFYm/H6LNo++2AkN/WSj3P98OHDZV+6dxFTsSMX8SJszzPrvF2z177RyoAMyIAMyIAMyIAMyIAMyIAMyIAMyIAM/AwDZye4IrxFiPv06dNBbIvoGMEV8Q4RjnWETAQ6mof4hpDH2jHNbJFvy77Fw9gwF3GUkTisIRByv8ofn4iIibU1TqESv64louR1BNd+cjjxyJ++RdScNXXerHV9mcvY9m2XfkckZY3z++OPPw6CaveU6/RqKx75EisMpAZH31BlQAZkQAZkQAZkQAZkQAZkQAZkQAZkQAZ+hoGzE1z55+MRA798+XIQGRFgEd0i2NEo7Pjn9hFcI0DyT88RDiPW7TW1423ZtdiHDXFb5FzFwOZY4ZX4K6GxhUpERfbbtZCXfeZXLMz625a1jpd9YNN+W8LrjLWK13HavvOmVxFJW3DdegKYuFvxWEssBVffQJtBr+VBBmRABmRABmRABmRABmRABmRABmTgZxk4O8EVEZUnVxETeVr12bNnhxFhLYIdzeIeIS6CawRIhDfWrvpVAcSY4unqEFrsi0+eBEUwRHwl9/TdEwJ7H9Mv9y1UMvfbb79dCsnEpi+MEZqnwDzrnvGwxyb5Mk475rGbe1zZJUbbcx2BOvtOb4gRoZW1VT3Jn/3NvMQ65qxTm6NvtjIgAzIgAzIgAzIgAzIgAzIgAzIgAzIgA3sMnJ3givAWcW1uPIId8xEaET/5J+kRIOODeBdhNHOrkZh5wjTCIHb4Z54R8bcFTuaw58lTYqx8sg9EQmwTr/OsamJuCovEwv/3338/7Cs5sWUt9W3VvYoXgbN7QI6OTXz2TfzsmVgzXu+j7ekP54A9cflhHaGVuQiuOc9Vj6ize5l4ydl7nrXHxtE3UhmQARmQARmQARmQARmQARmQARmQARmQgWMYODvBFTHOJxaF/xj4tZETGZABGZABGZABGZABGZABGZABGZABGZCBUzNwdoIrDcrTnHnaMU83Xrd5PEHZT5YmHmOe7rxuTO19EcuADMiADMiADMiADMiADMiADMiADMiADMjA+TJwloKrwJ4vsJ6tZysDMiADMiADMiADMiADMiADMiADMiADMvCQGVBw/S6gDxlQa5NPGZABGZABGZABGZABGZABGZABGZABGZCBx8SAgquC6+E/7HpM0Fqrb7IyIAMyIAMyIAMyIAMyIAMyIAMyIAMyIAMPlQEFVwVXBVcZkAEZkAEZkAEZkAEZkAEZkAEZkAEZkAEZkIETMaDgeqJGPlRF3br8tkcGZEAGZEAGZEAGZEAGZEAGZEAGZEAGZEAG7o4BBVcF11v/9uLr168Xz58/v/j48eOt5/LN4+7ePOy1vZYBGZABGZABGZABGZABGZABGZABGZCB/2Tg7AXXz58/X7x69eri27dvu2Lfu3fvLvg5FSSvX78+mcBI7S9fvrx48uTJ4Ydr5uZ81iNssp/MPX369IJeZH9cM4cQiiCa+ZuOxKK+jnlKwXUV/6Y1n9L/GI72mDzGn3pP3Ye9mk7ZH2P955uwPbEnMiADMiADMiADMiADMiADMiADMnBeDJy94Hqs8Hms0HXsC+DYvMfGaztiU2/PcY0Ai7jcwmpsEGEj1Ob606dPFy9evPiHOBr7nx1P3cdZx6mFxhn/pvfH7H+PjWP8qfHUfVBwPa839ptyrL88yIAMyIAMyIAMyIAMyIAMyIAMyMDPM3DWgutKRELQylOf/XQn82/evDk88ck6oljA4nrL5+3bt4cnRVc+/aRpP2G6VUPy7Y15qjWx25a5rrvXyDnX6M91BNetPiTPSgTsvXbN5CZentztsyAO9+k5McjR+bOWPREbsXkVD5vk7hqZT8ycfUTp9Dl52h8fcrGWc2U/XMe+19IfxhWTxG6/7HerhtTcPswlT68nFmszHmtzLjHjN88ifcCPHsD/9Ekdjj//xmzv7J0MyIAMyIAMyIAMyIAMyIAMyIAMPF4GzlpwRTSKcASkLbZNaLGLeIYdQiTi2LRDcIq4hU+EwumDDbb8xOaqGmauvm/hK/l7PQLYrDniW9cQP2yvI7jGj7H7kPnVXNbSj9yTm37jwxzrOSvGXMc+49YZEifnh23H6NztzzwC64cPHy5r4R6b6RMecg6pjxHb1Nd5M9fjXJ9n0OtbNRCv97EVP2LqqsftwzV1IKDik7XpT870IWvZ+1Y9ieX4eP+Q8Ow8OxmQARmQARmQARmQARmQARmQARm4HgNnK7iuBKCIRC3MBZgWurBDfEKEYp21PMXHGJFpzwcbbKfQuVdDRMjkilCWGjMSOzVkDts8nZm5HlmftUyxD/u9Grb6gN/sWefmmnp7P+Rpga97iV33uWOtzpV1fGZP4te52z/z8c3aX3/9dehVzoExzMSGcZW395H8Gacv89M+99hyXqsa8FvFClvtwzX7W9mnLsZ5Hls50rOrzrtje329N2X7Zb9kQAZkQAZkQAZkQAZkQAZkQAZk4HEzcLaCa4SrFaARpiKiYdP2LSYhRD179uxSfI04t+fDGsIU/9y6fbuWVQ29vndNDS2uJhbzW34Ibnk6MTbs7dgnXPf6QLzuS+L3GKEuc1Pg6/7HhpgIhvhmbks43Mvfuds/8/HNGoJrnnRN3oyxYWQuvllf7WNvbdrnfuZJjIyr9eY2dhlX9lljnOfB3MonPdvL1XG9ftx/QHh+np8MyIAMyIAMyIAMyIAMyIAMyIAMXJ+BsxRcjxWDIh4BToQurtu/RUnmEeLw2/NhLbGnUMla/8Su5666xod6Y4fo1wJs5ntc2fTe2nZ13bazD9hftY+5TrytJ1w7/7RDBJzCMfZT+OwY3S+u86RvaopvC4zt07HaZpWXc8G3fbhupnqtz4W98iVAznarBvy3+rCXH0YSu2vgus83azlnaoxNvkDY2k98Hf/5Orcf9kMGZEAGZEAGZEAGZEAGZEAGZEAGfh0GzlJwjYA2QY6glX9y3SIlQlTEqCkmIXzhgxjGU6sR1K7yiVDFmH/avVfDrDf3iGv9z8tTJ+tTFIsPY+omd+911sB69tT+8zrxZh+I1+Jp+8WHHPzkqeLp072cPulj4mKbeKl768zx6f3yn2PRC3qKL37xbTF19jz9axtixze1tV/2urKLfc6P/ZADvnK+HSvr2Md31YeOh0/EZXxmvORJvO571rp3xGO/2JOnf+1GYjj+On94eNaetQzIgAzIgAzIgAzIgAzIgAzIgAysGTg7wVUhaH3Qt/kCiHB5mzkec2yZvHsmHzMv1i4vMiADMiADMiADMiADMiADMiADMvC4GTg7wVUgHzeQnp/nJwMyIAMyIAMyIAMyIAMyIAMyIAMyIAMy8JgZUHAdv1P1MR+mtftmJAMyIAMyIAMyIAMyIAMyIAMyIAMyIAMyIAP3y4CCq4Lr5e8E9cV4vy9G+2//ZUAGZEAGZEAGZEAGZEAGZEAGZEAGZODxM6DgquCq4CoDMiADMiADMiADMiADMiADMiADMiADMiADMnAiBhRcT9RIv314/N8+eIaeoQzIgAzIgAzIgAzIgAzIgAzIgAzIgAzIwE0ZUHBVcPXbCxmQARmQARmQARmQARmQARmQARmQARmQARmQgRMxoOB6okbeVPnW329PZEAGZEAGZEAGZEAGZEAGZEAGZEAGZEAGZODxM6DgWoLrx48fL548eXL4efny5cW3b98uMscI8F+/fr1g7a+//rp4/vz5YZ15bJl//fr1T38b8O7du8v8yXeXLzL2xp56D1xTC7WlJ9TE3NOnTy8+f/78j/3Sh1evXv3H/Gof+GKLz2r9unPUyM91/bR//G9knqFnKAMyIAMyIAMyIAMyIAMyIAMyIAMy8FAYUHD9IbgiICI2IjpyOAh3ERufPXt28ebNm8N8BFdGfCJC9vVNDzd5bxrnuv7s6cWLF4c9pQ+pJYIy++zrmUPB1Te3yYT3MiEDMiADMiADMiADMiADMiADMiADMvArMaDg+uPp1PlUJoIjYuPvv/9+GBFceSKTeUTWFiRZQ6icT3tugYQv4m6epkXEbNuInHMu9i0MR/zMGr7xm3muevoze3v//v3lk6JdC/tjn+y385CP+9TQT77O+lqwjX3G1LfyyZ7mGj7URc7EYewaZh/S7+yX/cQ3a8nn6B8IMiADMiADMiADMiADMiADMiADMiADMiAD12FAwfX794NgF0E1wt2HDx8OIuL//M//HEaEOMS9iHSMNDpi3hQgtw4hguGesNci5yoOvsnX19OWeiNi9ho+ERgzEi97+/PPPw/xqXXWQrwWM4nLXOrBp8Xr9id+C9MIpatfKbDnw9pqT6ljrs1+dw05u/hs1dO989o3WBmQARmQARmQARmQARmQARmQARmQARmQgT0GFFx//D7SiIaIkYivnz59OoiIEVwjPiJG9hOueboyguNes1k7RtRrwTHxqC/iKGPyJX9+tUHsGSOsxrbXVtcRXBnJFzGXMfbEasF1Cqx9H0Gz627fVS/2fLq+1NMjNfPTcyuf9He11r5e++YpAzIgAzIgAzIgAzIgAzIgAzIgAzIgAzJwXQYUXH88oZknWr98+XL5VCdPX+ZXCtBYxDz+uX0E1zw9+fbt28NcC5NbB7ESGadtBMHM48PvkWVkLkJo1hlZQ8w8RnjFv0XQCLgtQBIvvzog+2Lk1xmkB+y/BVbq6PuO17XmmhzzCdc9n701Yiq4+gYYthxlQQZkQAZkQAZkQAZkQAZkQAZkQAZk4L4YUHD9IWBGxES0RNxEhGQu8xwQgh9iaARXBL4InIiH/HN5bPYOk3VES+Ju2a0E18SOyIvN9N8TJFfi5lX+v/3226WQPOsmf54m7Wvm+inWXpv5tnq25ZO9J++Mxzy+PR+f9JucEa/3+tUxvPYNWgZkQAZkQAZkQAZkQAZkQAZkQAZkQAZk4FgGFFzrVwqsmtaCK+sIegim//73vy+Fu/ixFgE2c6sR0Q9RMk+ZRgzEP3OMU7jMHE/URlhEZGyfFiNnvORZ1cTcFCCxJ3Z6kJzYZg+s5Rpbauvf4RqhNjXO/nSNqX3PZ67FJ/VzNuTq3nV92U/sI55z7489kAEZkAEZkAEZkAEZkAEZkAEZkAEZkAEZuCkDCq4/hMb+z5xu2lT9fWHKgAzIgAzIgAzIgAzIgAzIgAzIgAzIgAzIwK/JgILrjycb51OQ/eTkdV8c/dRmnuxk5OlLntC8bjztf80Xp+fuucuADMiADMiADMiADMiADMiADMiADMjA42NAwdV/Sq4ALAMyIAMyIAMyIAMyIAMyIAMyIAMyIAMyIAMycCIGFFxP1Ei/bXh83zZ4Zp6ZDMiADMiADMiADMiADMiADMiADMiADMjAqRlQcFVw9dsLGZABGZABGZABGZABGZABGZABGZABGZABGZCBEzGg4HqiRp5aCTee367IgAzIgAzIgAzIgAzIgAzIgAzIgAzIgAzIwONjQMFVwdVvL2RABmRABmRABmRABmRABmRABmRABmRABmRABk7EgILriRrptw2n/bbh69evF8+fP7/4+PGjL3YZPUsGYBvGYf0hvn+8e/fu4uXLlxffvn17kPU9lJ69fv36H+9T9I2fh1KfdZz2zyb7aT9lQAZkQAZkQAZkQAZkQAaOYUDBdSFmIYAgNFwlhJz6g/X84H7MAe7ZUN+TJ08OP0+fPr34/PnzQQTo+ayTm1i91j6sRQSd83s1HLs2955cpxJcZ/xj67oLO87l1atXu8LWng09yvnt1Xss13sxeu3U8Tr2Tc+LnoRtmO7YD+X6VIJrXivs95QCKX07Zbzr9H2P9+vEOYXtXh9Ym689BGr6tnrvytrPMolf+970dXKK/oS/1X45R/68gM18uXAbr829PrCW94JZY2rpntIT5lPvKXpkDP9CLgMyIAMyIAMyIAMyIAO/HgMKrgvBdX6o3XphHGu35T/n9z40Ttvr3vMBcks82dpH+/DB+cWLFxd//vnnYeT+ujVs2d+FuHKbvd3a17Hzx+x/r37OifWr8p1aID11vNR/TD9ie9W4xfZVfo9x/ZR9u+/9P6S9wNDqvZMaeU/kdTD7tbX2qwmue+9bp3xtbuVhnjzzfLjn3Dg/vuyaNgquv95fhleMOCcHMiADMiADMiADMiADN2FAwXUIrisRiQ9feUKmn+7kQ9qbN28OT8Kw3qJX+7DGPQfFB3Hs+ADPfD9F0x8aid25Ol7PH3v4xOv64rfab9ZWPvmQyj5itzd23d2H9ul9M09ebKc9ubHlAzJr3YcIGfHLXmd+1tPz7J0zjF/OqWuKHSO1kZ/cjJxj4lE7fomFbfZJjrdv3/5jbda88sOfXpML+8Rjjhrik/1u1dB1rXy6T1Nc6vPI2l68ua/0gXn2MfuQPWUkds4hc6saWOu6+xzaL/mZ67OMf3rHmH3ldZ39rs4vObZG8rLXnFPydH9mzfj0HD6pof04w9mjFSdbtWXvYaFfS/SIGlhL7sRJf+LX630WPR/f1dg+XUP2Ai/k6p60D2vpAz7p1/Qhd9feTKzq6jni49tzXBNjLw4+qa19t+bbpq/nfsk553q/xO+6sM15ML9iknz9ntL97lpW13ld49/rW/OxoZauk/neV9fQtbHX+LU9890HfOb7ZnIzpk+rOq7y7The+5dwGZABGZABGZABGZABGZCBFQMKrkNw5QMcH8TSrL0PjXxQi0iASMHTMvNDJ3Fa5MkHR/Kwlg99uWaen/6wuVdD6twaid8fQqfd6sPmns/ePmfsed99yNpqLmvUkT4xhy19yYdtRmxYwy7X8e9xxlrF6w/Zbd81kpMayMfZf/jw4fChHt/uJWeGyJH6iRfRA9t+Mq7zds257ripu1nrvbftrKH3kdiMMz8x0ktip+72SR2sEbfX8CUGc11DrhN7Vc9qbquG2ceVXfdjVXP3LmfEmXK2iUdNWWMPM2/vva/Jnddx9k7M2Kz2ylpqnudCDfHHtxnAb9onz2qkHsQofFbrx8RDhI7/zM0ecs5b8fdqIB5nQBz8iZXrjtc9jE961DVwHf8+i/hErGPc4r3z7tUeu86fueuO1NfvFb0PYjUTiY1PC41tg/+Kye4jccI++8S/+8N1epycc1z5pP+xnXuZe+0a4sO46n3vMbb40wfOk5qzb9Y79qwj/o7+pVkGZEAGZEAGZEAGZEAGZOAmDCi4luC6+iBHc/PhcX7I7A9q03d+kM+HvflhuGMkT2z7YLM2a+CDMvb5QEy89ss1fjPuSrSJPeOxPns1bPUheXr/mcs4P0SvRAFssE+eLbFkxsJnxktexrZvu9Sbc2SND/V//PHH5Qf7nEULE1vxUnsLJF1H584855J9M5d7GIy4sKphFQt/9tT2XCd+1538GVfx5usg8cmxWkusjOlv7hm3asi+Y7uqZ8abNh0jeTLXtlkjV88n92qcuef9VpycY77MSc5+nXNGvY5NmMR/Vc+cY0/EYb9z7ap47KX9uN9iaBU7c1s1zL107/JaT768r02f3KfPsc/Y9aeeY8djWA5Hx8Zc2fW+WZ/3zWX8uzb2jk2YmP65p9b0JePWe2nyXDV2HSvb5M7a7FfOjZGf5n+yv+oD8duOe+yI1V9WzDpSj6N/uZYBGZABGZABGZABGZABGbgJAwquJbjOD3yzsXxY48Modqz1B7X+cMk1H1ZZx64/OEYEWH0AJj7/3PPZs2eXT45dVcNc37qfHzKxywfQ6/is4mz57/UBn+7LKsb8ED3tV+cVMWaKBTPWVfnbvvPmzHOOrEVwZWT+qr10PGwTK0y0f/L13Nx37vHfq2HmTcxVjqx1HzKXcRVvVUPir9YSi3EVj/mtGrLvxFj5J/eWTcdInsx1vKzt1ZkcGWduYjCX9Y6fOUb6hG2f5ZZt++1x1Hbzmlz9vpb1rXjM83Rr7BjnXnvtmOtZw8yd+PTm2PdWzhFbete97HrIgygXkZFxvne0fa6vYhm71ByfnxlnjHlP39jnjM0ctoy9vvKPHbFmHO5zNt2jjrnyYe6qHs1aiNk1NPPMZ20Vl7VZ04wXpn7//fd/nHf2dcy5b+3Vef8iLgMyIAMyIAMyIAMyIAMyMBlQcC3BdfWhbTasPyT2dX8I5JoPb/kAiN3WU1gdI/n5YLgnurbPrG/rnlr6AyUfZvuSRDFYAAAFoUlEQVQpn5Xf9MHmGL/E2usDNvMDcfwyph+57w/ge/7TDlti0bfEYlzZZb3tuc75pff58E6MiDmsYZsYPTIfHmZeYvU/G45fM5U5xrYnFrUl714N2K7OvON1Hq6J19z0+lY8asEP29TH3rf2k5hbPGzVMOte2TGXWlJPepDa0rucUepgnb0zZi0xMp/aV2PnJkbyxrbjZ44x/Zv7y3zb9jX2sEife/6Y66419qt4xKYOao8d46y114697hpm7qyRn97ntcR8XpvTp/uFHffH1nKMXWrasiVf6tyyuWoe/7z+2B/iMHnj13vMHGOYRRjvs+qamQ+Tfd1xbnJ91eu9ayHPZIj17L33SU/6yVV8ez01r+Jhl/WMs47MO/oXZhmQARmQARmQARmQARmQgZswoOD6Q3CdH9bTVD6I8oE+T8Hkwz3r/UFtfrjkQ2F8+NAbgWbm6Rh8GMwH9Pgz7tWQOlcj8VJDPrjGjryrD59bPrMG4s6Yid1j9oF992H2q326Bvzy4Zoa0kfsiZ09sJ/slZH7jknf8yRbznDG27LvunNeOUdiRHCNGJQ6koe41Em9XK/y9p5Te++va0s88pDj/fv3l33YqwG/7lN6N+eJm1o7F/PzzFfx2B91pQ/Zz96Z763t1dD5u989nzqyp6zBA0+Upw85o/S9zylr1NLz3G/9JM/MP/vTfcWne8x99jX9YtdsJ1f2tFXbjJUc2O/Fm3vKaxO/uZZ+/2wNLR4Tmx9iETf77NfmrLt7cNXrYqvGvXnyIVjSy2m3tzZt9+67bs4bXtMH/HrPfYassf/uAXN7Z9R9pb+dZ6/GrbWt1/SsgVxhpdd6P71PuMh7bnL3evv1nvJ6iU9Gct50r4nluP1+aG/sjQzIgAzIgAzIgAzIwK/GgILrD8GED6b50PerQXAf+6XXUwy4jzoeas4tseKh1nvTus6RB4Wcu/0LBaJbi7Q3ZfIYf854vo9FJL3PP0+23j9k8m6ZPIYhbTwTGZABGZABGZABGZABGThPBhRcd55QE/rzhN5z9VxPwcB8SjRPXTIiwt23uEX+rinX/VTqKfrwUGLch+DK3ueXdfd57hF7OeuV4HuftT0UTqzD938ZkAEZkAEZkAEZkAEZkIG7YEDBVcH1P/457F2AZw7f4GRABmRABmRABmRABmRABmRABmRABmRABs6RAQVXBVcFVxmQARmQARmQARmQARmQARmQARmQARmQARmQgRMxoOB6okaeoxrvnvyWSQZkQAZkQAZkQAZkQAZkQAZkQAZkQAZkQAaux4CCq4Kr317IgAzIgAzIgAzIgAzIgAzIgAzIgAzIgAzIgAyciAEF1xM1UqX/ekq//bJfMiADMiADMiADMiADMiADMiADMiADMiAD58iAgusDE1zzP5+v/ofpcwTQPfnGKgMyIAMyIAMyIAMyIAMyIAMyIAMyIAMycE4MKLjeUHBFGH3y5Mnh5+XLlxffvn270ePXW4Ir88RnPCcA3YtvqDIgAzIgAzIgAzIgAzIgAzIgAzIgAzIgA+fEgILrDQRXxNbnz59fiqDv3r27eP369a0IogquvvGc0xuPe5FnGZABGZABGZABGZABGZABGZABGZCBc2VAwfUnBVeeZH316tXF58+fLwVWRFEEV9YY82sBWizFnjWeVuXJ2CnY5mnZ+AIe9pnPyBxr5Eos1jK/Byw2ifnmzZtDDcT4448/DrFevHhxmGONmF3LXlzXfKOUARmQARmQARmQARmQARmQARmQARmQARn41RlQcP1JwRXhFEGS8enTpwdh8sOHDwchM8JrhMopuGKfNYRPnoxtEJnLeuY7RuYYscO+57ieQizCKXlb8KXe1ILg+u9///twzzz3qW3WN3N57xupDMiADMiADMiADMiADMiADMiADMiADMiADPwfAy24/i+zx5tbB2SiMwAAAABJRU5ErkJggg==;" parent="ihkdVbjDrNtI75KqLu5v-48" vertex="1">
                    <mxGeometry width="690" height="310.3" as="geometry"/>
                </mxCell>
                <mxCell id="ihkdVbjDrNtI75KqLu5v-44" value="" style="rounded=1;whiteSpace=wrap;html=1;fillColor=none;strokeWidth=3;strokeColor=#675CFF;" parent="ihkdVbjDrNtI75KqLu5v-48" vertex="1">
                    <mxGeometry x="12.379999999999995" y="113" width="677.62" height="35.69" as="geometry"/>
                </mxCell>
                <mxCell id="ihkdVbjDrNtI75KqLu5v-49" value="" style="group" parent="1" vertex="1" connectable="0">
                    <mxGeometry x="-200" y="240" width="372" height="437" as="geometry"/>
                </mxCell>
                <mxCell id="ihkdVbjDrNtI75KqLu5v-34" value="" style="shape=image;verticalLabelPosition=bottom;labelBackgroundColor=default;verticalAlign=top;aspect=fixed;imageAspect=0;image=data:image/png,iVBORw0KGgoAAAANSUhEUgAAAhQAAAI3CAYAAADDQsJ9AAAgAElEQVR4Aey9b6xl11nm6Q/9qSWkOMBAB3cakkJ0iFqRLHe3ZDdRgiXL/AlTtrqdgNSJupsM8rhDTwQemCQEYw80UGVIBAWW0rbDNQIHu1xFHONKquwyvlWussu4XGUiQsXOP+zECprMKP4wanX3rNFvVz3nPmfV3vuce/ape8895/mwtdZe613v+653PXu9z97nnH0ue+2118qsx/Hjx8s3v/nNHInBtmMALM6K44ybfQ9I7BK7YCAYEAYuU2WWkk08R2KwKBiYBcMZk80wGAgGgoH5YGAQocgizGcREsfEMRgIBoKBYGCnYyCEYsBHPjt98eN/NrBgIBgIBoKBeWEghCKEIt89CAaCgWAgGAgGBmMghCIgGgyiebHb6MmdUjAQDAQDOxcDIRQhFCEUwUAwEAwEA8HAYAyEUAREg0GUO4qde0eRtcvaBQPBwLwwEEIRQhFCEQwEA8FAMBAMDMZACEVANBhEr73292X9X3+pHLz37+egK3cL87pbiJ5gKRgIBrYSA9tGKL766CfLVb/8++WqP3ruEiShV8tn/8GXyqea48tl/QtbCarHykcv+2h5rI2oPP7Rctlll20cN9xdXmyTG2tD34UxU8lv5Vxla/sJxemPfql89qj8mVS+WO6+4afK3YaLF+/5qfJT97zYYJH62Dp95LENjH7h7vJTWg/KC30+5qOPT7Kf/q3c5GIreAsGtgYD20Ionv6j3y//8dGvlIZUXAJC8ZV7v7yNd8sTCIUnpzHiMGHBSWQLSygm+L6Zec4oO29CIXIxthFdIBN9hOGxj1xW+vrH9M041+jYfrxlDbIGwcDFGNgWQqGFuFSEojW5HP1a+dRHX2kezZ9/cvG1cnq0ofsTjY073UbPR7/WPOk4eO8r5596/OtXyldG4y4O6GuvnScUd4/ucu1OmCcUnYTCnkRcuAMeS2pthKK6W96Qf6x89Ia7y90f0dMQ8wHfx56U+NMU7tw1ZsrESFwvPA3yjzwaUvfRr5WD9I3ifj7m9H323lfO9zX9r248AXitfS1ea9q/Vtbv/fLIXvNEwuzLj0/9A1/btjWa/IRiI5Yb45unEJ3rd16ujVDQtvHEYyPe6PvoPfbEo9LtTz0uczLp6+ftvbjcmIeuv5SJSTAQDMwTA0tFKEhUG0nlwkceH72QrJrEs/Hxx8ZTjPOP6zcel5PQzstBKD4FgRiNpW8jWZ07d64899xzzR9jbSzKBWJwITmMJSFPBJeNJ2ySziiJIVcnijZCMZZAPEme90H6xnxoSMhGUtvw+7UyngzRMU5E2ud7/oLciOfGeZPYv3CeOHz2KHE+H9fz66Q4evy9jp6NtThft+9poNfIXSuJvBCfi/0eJ05K9mPxGn2soRicH3P+6YONr0jAeAxbNivW1rEx+nisincbBphPhYOxtR3DQ4vt9BtxTXz82k89eJgHBpaKUCggrckFUiByMbaxjpMEdGi8ytdGY8dlL05UgJLEYAnbEoj8a8omsStZnU/mSmjNE4SpCMV54qCEeNmIAHT7QAIa2RmLQ62Lu+oN//C5fb7nL8Q2QtE8sRgl/nFCcdHTjOYLnePx9bXQE4qNp0rjG8BorcbmdF7mYr+dfJ2X6YwL69espxOKC7Zb1raNUDRJf0RQxr93sbEW4z616SEeF+my73E0uGqZf9rHsZJ4JB7BwKXBQAjFhUfpnqiUnFR2EYp2UHYn83H58QQynijGE3kzrrozpY2ko7vd115zfd0+dCbOmghtMjENIRTE+TzBuDSEYjzuXEgeq/MX1jRxId4bBODCR0eTnlBUxLEhi/aEYkPfuE99hGJjzKXZFC6OV+wkJsFAMDAZAyEUF37yOPrIo3lEv/GRx+hz+ubpxsUJ72KQdSfzMdnRnS+LNJ5MxuSU2DsIxSi5NPpERHp8GLM7DpCLEqZsT1HOTiiIqT6Kqj7ysLWY5gmFP/VojeFoHhfHu4tQNERPT4t6yIHsXUQEmjF6YoXdDRI4bnPcpzG7I78vfOThT8C8L/V8pBEMBAPbiIFtIRSjn4zys9ELx55nx5ObNuhZytGTBQ/s6GOLFjtN4tLPTKsvZfJTxNHYYYSiSRKjR99KMuf9Ge+zjxuahORf6ttISM3n6dL3kbvtp5A9hOKix+buB+PMlhKpx7Gqn/8+xEbs+A4LJGxEMDo+8vDvuozIHLo71mISoRgfp+9ntKx14/948gZjntwhBaOPkeoYNITM+i88bRgb08RQ5O7CkyS13TP+HYoRIWwhlWM6zY8aK/lVSdc6p32W/TNjgptZMbAthGJWZ5d3XEUALnycsZFslgvgI7JRkZPlXd/lWr+sU9YzGAgG2jAQQrEgSW3sbpS72eqz+bbF26ltIRTZjHYqduN3sBsMdGMghGJBCEVA2g3SxCaxCQaCgWBg8TEQQhFCkS8xBQPBQDAQDAQDgzEQQhEQDQZR7hwW/84ha5Q1CgaCgUuNgRCKEIoQimAgGAgGgoFgYDAGQigCosEgutSsN/pzZxUMBAPBwOJjIIRiJxGKL/238rP/8b+VL2+Tzy/98cfKP/y3f15e2ib7M20oT/338gN7/2tI005as/gavAYDOxID20QovlTue+8Hy+vfdP74z0/OiXnx0qGxn1va+x3qFxLZi4JIVOM/29RLiexFT5X8TMlt0EXyX8vv/PP/UT71pY1YkeD/zR+/1AK8l8on/+3t5R++fuO4YxMxPvrrG+NcfyuhePLekR2X3fr4bMSltn1s7/9XfvaB/7clTt1jah05T6yCgWAgGOjHwPYQiic/UX7mj790foN/8hPl9W/6RPnLQcn2wiQnEYoxsrERmIZM9BGGltdebzWw2pJiP6H4WPnkuY05Tu3vuT8v/2aGpxDdvszgwzywMKbjYjI2dTzG9CzCXOJD1i4YCAYWEwPbQyjGNumny3/eVkLBUwg9kehYpDZCUb0Se+Otlo+Vj95wd7l79PrmSvfYkxJ/7fWF/3m48Orr8dcpkxD/ezk2FrfXyvkk/uflDj2J+PUTF+7CeUIxI6HgicNIj+JxYsNGB9loJRSQE/n2+nvL0Qv+I3vHH1uf27MnHjxh0ZMVnprc8evnn4b8mz++MOeRL+NPZDTGN50vP/A/8pSiwo/HJ3VhPWWwEAzMioHtJxQ8oXjvZ8qX5rHZjSVr/d/ChaRd9Y0SNu16OjGSqUhAG6EY89f/G+L8xyQiGM3/LujJSENCnERsAJenJCOfmn/+NB86vgdAYv6HrxdxIOmrPp5gp/rew1jy10ceGySgAVjP04uLCQX+2HiIwgUCcN5v9bnfG/E4D+gNHc3HMIxvCAfzHO/bIBEd+ojhNn7/ZNYLNONqTOQ8mAgGFhUD20soXvxM+Zk3/Ua578U5AQRCoOTdJHz7DoUTgCaxX0jYTigaGScHF/xqJRT2/Qr98dMXkK9smk/+B1TjgKh1QYamIxQb31vofirRJGN/CuCxqOutTyguxGEzhKJ60tB8n8MIRaffFxGb88SjeULB90BG/olQUIoAqRSxMlxt8xdax9fb/Krjn/N81yUYCAZ2KAa2j1A0ZOKDZW5fyGQBLHmf38Cr5D5aJCMNFz01sD7JtxCK5nsXI/LiYyqb5lM/oWh/ctHMo+cJRWdilu+UoyQ8RSLrk90soeggMeNPM5wInX+ysjEnkYbXSj+h0NOOnvl1xDCJvidmjqHUk+SCgWBgAga2iVDwvYk5kwkmasm7l1Agd9lGAu8mBxc22w5CoY81GrujJwrdhOK83IZdT2b4MNJ30aL1fYdCv/LwxOxJok7S3tdSnxeheK3jo4fX9N2PNr/P+6qPL/yjkW5CcZ5sbJCQljm99lrJdyja4+IYTD0xCgaCgSEY2BZC8Ze/tvGTUf10dPSrj4uS6SYWuIdQNN9luPCFRycT54PHEwZ958I+bmieXni7/Quo933k7nL3DfqIoodQvPZa6faDcWZL3+u4EI/Jv/JwQjH+McCkZDsGoDZCcdHHELePvrh5Punro4bzpQhB82TEPo6QH91PKC48Tbkw5vyXLyd95AE+xuer72pszCu/8tiIxSaupyHXYsbmbjYYWDkMbAuhyOY2y6aepDgrbtrI2Ky6Mm4W7GZMcBMMrAIGQih2Eose+MXCtqcJ519+1fIlxp0Ulz5f892JlbtLWoWNO3MMQVlEDIRQ9CWj9CUZBQPBQDAQDAQDU2EghCJAmQooi8iG41Pu0oKBYCAYWBwMhFCEUIRQBAPBQDAQDAQDgzEQQhEQDQZR7hAW5w4ha5G1CAaCge3CQAhFCEUIRTAQDAQDwUAwMBgDIRQB0WAQbRcbjt3ciQUDwUAwsDgYCKEIoQihCAaCgWAgGAgGBmMghCIgGgyi3CEszh1C1iJrEQwEA9uFgRCKEIoQimAgGAgGgoFgYDAGQigCosEg2i42HLu5EwsGgoFgYHEwEEIRQhFCEQwEA8FAMBAMDMZACEVANBhEuUNYnDuErEXWIhgIBrYLA1tGKF74yuny/JeeTfIKgQkGgoFgIBgIBpYQA1tCKF585W/LzZ98Tzn1xadmBtFf//Vfl5tvvrn8u3/378odd9xR/v7v//4iXdPIbBdzi93cNQQDwUAwEAwsMwYuOaF49f/6RvnFP/0P5S+ee+giAjBtYP/u7/6ufOhDHyoQBsb83u/9XnnggQfG9E0jM629yOWiDwaCgWAgGAgGNoeBS0oo/u//51vl1//8l8vdT/xe+fa3vz1GADazUMeOHWtIhMZALPbs2TP2lGIaGY1PuTmQJF6JVzAQDAQDwcAkDFwyQgGZ+J1Hf60hFNQnOdLXz9MIfyLB0wg+9qDUuD4ZyAYflfR9XCI9KXPRBAPBQDAQDAQDm8fAYELB9yJ+99Hbi5MGnkbwVOIX/uQ/FD7yGLowfWRBurtkvvjFLzZPM/RxieRTbh4siVliFgwEA8FAMNCFgcGEAiLxm5/+UHn42Y3vNPB9Cb43MQ8ygeNdZGHaJxR85+IXfuEXxp5odAUk7blYgoFgIBgIBoKBzWNgMKEg6PyK45a1nykvfPm55pcc/KKDtnktyDTfj5gkA/mAVHT9QmRevkbP5kGYmCVmwUAwEAzsfAzMhVAAhCf++rPlf7nnX5efvefGQT8PbQMVZKDrVx48fYBM9MlIJz815cuc+fhj5wNXa5oyaxkMBAPBwGJgYG6Egu9NHDx1f/nLzx+e25MJB4l/sRISoT4RCs7bZCARPJXQlzL5+ERjUy4GCLMOWYdgIBgIBnY+BuZGKAKGnQ+GrGHWMBgIBoKBYGBWDIRQLOHrT2cFQ8ZlIwkGgoFgIBiYFQMhFCEU+QgoGAgGgoFgIBgYjIEQioBoMIhmZbMZlzuhYCAYCAaWBwMhFCEUIRTBQDAQDAQDwcBgDFz26quvlhyJQTAQDAQDwUAwEAwMwcBl3/zmN0uOxCAYCAaCgWAgGAgGhmAghCKEKoQyGAgGgoFgIBgYjIEQioBoMIiGMNqMzR1RMBAMBAPLgYEQihCKEIpgIBgIBoKBYGAwBkIoAqLBIMrdxXLcXWQds47BQDAwBAMhFCEUIRTBQDAQDAQDwcBgDIRQBESDQTSE0WZs7oiCgWAgGFgODIRQhFCEUAQDwUAwEAwEA4MxEEIREA0GUe4uluPuIuuYdQwGgoEhGAihCKEIoQgGgoFgIBgIBgZjIIQiIBoMoiGMNmNzRxQMBAPBwHJgIIQihCKEIhgIBoKBYCAYGIyBhSQUn/nMZ8ov/dIvDZ7cvFnvU089VW644Ybyt3/7t3PxbVZ9f/AHf1De9773la997WtT+0FM3/nOd070Hd2LGPt5r2X0LccdUdYx6xgMLA4GFpJQkNBIgIsGlFkJQNc8ZtUXQrE4F1DX2qY9axQMBAOrhoGZCQV3x9wlX3bZZb3HZu+k0XvLLbcUki2k4h3veEd561vfOrojp002a90QEfWJkNR+ql3J3OegvnoMCZynEtzho5/y0KFDjW/4p3N/eoEu9w97zIPxtJ85c2ZMH/pdpn6agD7GooP4uO4u0Lo+YuM6mZNihU5kZYN2PaVok6vtMY65c8hH9HF0xcR9k/1ab86zIQcDwUAwsHMwMIhQkHT6Hv/ThwwJelpQkGhImIwhUXmyoY8ETqmk74lPdfqVyGhT8nV9yKCbhIlvLkebdDEHxivhS6/Go5PxbpNz2mWXsYxDRraw4WOQIeFLn/vjtjRv6UZf2yF9Pj8RCmyoLn80X597n5zbRA4iQSn/pI826rRT4pdk6EOPZFxn6u3rmrgkLsFAMLCoGFg4QkFCUxIk0Xjio90TKf1K9pRKUAp2nbh0jh6StMgJ8tKFDP1KiNJF6QSgHu99tT7X3aUPGZ+r66vH1+euU3UfT1t9LjlKn6/XXaaW877a91oHsdy9e/doXbUOjHM9qWejDAaCgWBg52Jg4QgFyUeJpk6cJCo9pldJEj558uTY3b0Aqbt06aMd/eipE2xtCznZ0Hgf43X01ueuD3tOhOSfj0Fe9lTq6Uw93nVLV10i00VQlNBlh5L5ogNbqvfJub3aH9eBnM9T47Q22HY/1Z9y524qWbusXTCwmhgYRChIkp6U2uptibQLbCQZ5CmRmZSopEeJD3m1UdbtOifh1UmutiU9+KKPK3yM15Gtz50EdOn2MV0y6K776nP56qXrrv1z3+hzAlDXff28z23V/rgcMecjrL17946Iio+lXo+v+3O+mptT1j3rHgzsLAwMIhTcySr5ty08fciQVNr66zYSi+6O6asTDUnSP6ZAVgmPusa6nMugT3f9dcJ1W4whKeIDcxDJ8TFeR45zdKNHxEW+0Vf7jQ3XgR3u1BmPPuzrzt37at3Ith2S0zywJ320yTfppl92vd4l5zY9dm063AdksSmShjxtsul6U29f28QlcQkGgoFFxMC2EwpPLiQeJR+CVScqtelJiBIk7Uqg6mNsX7snc+mtk2etS8kXu/zKQ1/QZDwHvjMGYsEdufRJv/Sp3fVRFymRDs6lm/loPLr1xVX1t5Wu7/bbbx8RI9lFH3NZW1sb+So7JPg+OeYqElCvk/rqdvSJSMiOfKCvbQ5py8YZDAQDwcDOwMC2E4oAZWcAJeuUdQoGgoFgIBjow8AgQsGdtu6au0rdjfc5kb7Ng7R+IuPx18c6ievm45qYJWbBQDAQDMyGgZkJRQI+W8ATt8QtGAgGgoFgYBkxEELR8aXGZVzszCmbWDAQDAQDwcClwkAIRQhFvgwZDAQDwUAwEAwMxkAIRUA0GESXiu1Gb+6kgoFgIBjYORgIoQihCKEIBoKBYCAYCAYGY2BlCUX9HoqhLHge+vQeC36xoXc84Bd1/xUHdb2Dw981obZ6LnovRN2e853D/LNWWatgIBhYdAyEUMzphUpDCQXj9bIq/SQUIlADyPuoM4axyCFf/0xXJMUJSq0z59mogoFgIBgIBoZiYGEJhRJnfWden9cJtC0gfoevxCoCwBsk0Vm/u0GJ2PvkU58+vfERGfnWJt/mp7dhX756e/32Se/TnGof+v5HQ+Pb5qu+lNlogoFgIBgIBiZhYKEJBQlVybFtIvQhQ6Jv66fNE7Df0ZN8IREkUuTQIwLAGP/4gD7ZQcblREQ8mSMrvV32u/ylXcRFOiSrdnSqzUvk5Vvdjk/e5vWu+bpM6tlMgoFgIBgIBvowsFKEwgMBAfA/7PLE73LUSdROKJToITT6bwoRCp54ePLu01vb4Rx5noo4oZFcly78QJ5xyEhepfzX+aRys/KT9KU/m1AwEAwEA8uPgaUnFICYBEmy5RAZEAHQExBP1noSoDGUTiiUtGtCwdMK/xMuXUBt9tEn/U5ANAYbNalATv5LzksRC/mnPsbIRj03+uo2zVfjUy7/RpA1zhoHA8HAUAwsNKHg8b2SblfZ9oi/KyhKnCTcPkJBknW9Ssg+Hhs1odC/j0q+9qMeX/f7ef0ExW25nNelH/ve3uWPZOhvm6/6U2ajCQaCgWAgGJiEgYUmFNxVk0i7JkEfMiTSLhlPpsjpVxHTEgps8KRAdki8egLgSd71eXuX/dpfdNZJ3c9dv8a6HdpqEiI590FtXjqh8Pm6TOrZTIKBYCAYCAb6MLD0hEJ37XrCQfIkIHWC9oSupMoYyMTa2lqT7GmfhlCgX/o0prbftij4Jrn64w7pq8kT8+CjFo1DrtY9iVB0zbe2VevNeTaXYCAYCAaCAWFg6QmFJpoyoA8GgoFgIBgIBi4dBhaaUPA0QHfeXaV/LBCgXDqgJLaJbTAQDAQDwUAfBhaWUPQ5nb6AOhgIBoKBYCAYWCwMhFDkD2Eu+s5FLtLFukizHlmPYCAY2AkYCKEIoQihCAaCgWAgGAgGBmMghCIgGgyincCc42Pu8IKBYCAYuLQYCKEIoQihCAaCgWAgGAgGBmMghGLOIOI9EPU7JNpYMS/K0jsx2vrTdmmZdOKb+AYDwUAwMF8MhFCEUAxmpbko53tRJp6JZzAQDOxEDKwsoajfoDnkPRf+tkqePPgTCn/7pf7q3Nv0lMLbJLcTARWfsxEGA8FAMLCaGFhpQkHy57XTXeCnT//h0ScDgRAxcEJRf/xBHwe6KDWmT67LbtpX84LNumfdg4FgYFExEEIxkFDU/wlSn/vCQyDaCIXLUHe5ui/n2UyCgWAgGAgGFhEDIRQDCUX9dMEJRdvHKm2Eok9uEUETn7KZBQPBQDAQDNQYWGlCMY//CnECQXD9nCcN/l8j/uTBP/Lok6sXLOe5iIOBYCAYCAYWEQMrTShI6kO/Q6GnC5ACFhid+lKmEwX9RXjbE4o+uUUETXzKZhYMBAPBQDBQYyCEYuBHHgSUpxL8MoNfitx+++3NUwkIhEgE7ZCMtbW10RMLSATtlH1y9YLlPBdxMBAMBAPBwCJiIIRiDoRiERc2PmXDCQaCgWAgGNhKDKw0oZjHdyi2crFiK5tDMBAMBAPBwKJiYGUJxaIuSPzKZhEMBAPBQDCwEzEQQjHnV2/vRBDE52xewUAwEAwEA0MxEEIRQtH5ptCh4Mr4bFDBQDAQDKwOBkIoQihCKIKBYCAYCAaCgcEYCKEIiAaDKHcg87kDue+++8oVV1xR3vSmN5UHH3ww65JrMxgIBnYUBkIoAtgdBdhlIi8HDhwob/ze15e37XpDc/yrK99SDj3y6fLIpw+Uf/nP3jxqf+M/+s5y5MiRrFOu1WAgGFhoDIRQBKCDAMqbQie9cXRWEsALw3hR2GbH87KwWf4CfjPj+A8X5Dfj276Hz5Zdtzxc3vux9fLVV14tt956a/nQ+64tZz/7yfJXJ54op44fLU8/8Wh5+i8/W04df7ycfvrJcvqRT5T/dNOPlDvuuKOx9Yv3PN3oQNck2/7CNI8H68VL1fzQ213R6f2bnWObT8RKtvSmWOTcP/rdR+/z9jb907TpjbbyA5/qcbLpfcxfY9z3euxmz7F1ww03NC/FaxuLrXnEvk232hQT7EzyR2PmXfpLAffs2TN68d8sdvxvDxjvuh3fmrfW1f8eYRa7GbPxhDaEIoTioo11MxcIG59frJsZ2yerzX2WTZwNcpYkNO04bVSb3fAhARACzRtC8eH3XVte/erflpMnT5ZHH320HDx4sDkOHTpUnnnmmfLKF8+UD77n7eW2224bjUPPJEKhTVM+kiTbNs5aDnnJzSPJEKt3vOMdzeZe26oTgOJSy3X5LvlpSnCkeblPPhYZkowIBaVwVPvk42apzyO2s9j1MT6n7fKHGOsaH7rOjifmdsstt4wIm+Oauq4Lj4HHJvUNkrCZWIRQLDih4CJhU+PioNSmyAXRxrB1gahPFyugUJJWX31RoRs79NckQZstfW0+4NvRo0ebPu68OGi7//77m1K22DTQQYlPbf7WbbKnsX3+eayI3aSLQfNqG+cxph99dQwVX+lp800+9BGKb3/726XtmEQosKvYyg4lvrKWxNLb67pv4sj6JlzL+jk2tYa044efS5Y2xxJyHPS7bclTTus7/qKLNWEcJVjRuXQKT+4f4zxu8gVfJUe/fEWXZNpiSh9rzyG8MobxunbVJz85F66Q2717dzNeduUf8UAOeY+l5kU7h+Q1764SW8jrOv34xz/e+Ewbdrhm6VMc5S8lY3lqiB/Icy47tT+KI/67PsnXMdu/f/9FscMGh88NP2RfPnibx0i2unygH92+ZhqTcvOkIoRihxAKB7wuREpdSLqwKSXbJ+d92gi0uWkD00XssnUf9nQB13q4IGt510X/tP66Htmp54m/6tNc+jYF+dI2DnvaBBVj2XNf0I+euk/r4fb7CAU+7Nu3r/zhH/7hGLGYRChcv9fxiUSGX2y6bfFQrJBlLPNEnoTRtpG7fsVENqTDZaQTfNAve8IVpexQqn0a32UHWcbu3bt3tF7qUym77iProzViLqw1/fKVsfgjGc7Vj7x0U4KH+imMxlHq+hBu0CObtKEDOWFI59hXnOW7y7l/yDG+9s39pM6Y2h/ZIQb4U8cL2z4fYanNN8kxRnK1D36OnObt9TY/6Zdv9KPHY09d16zboI687NR9+Cy/676cb45UhFDsEEKhCwiAA35tCjrnYjlz5kzT7rK6ILgY2XgpadOFqU2IUjq1Uegi01gfL73ui+ukjgwXORuLfJIuStlRn3RSqk8+IOMbFOfy131gbC3rer0+zTh0MW8ObUj1nKQTfZKV3+qjnIZQQCp0rK+vz/yRh8cZ28xD/ssnZLytjrlv1hrjpeTR4+11XXI1foiR4qSYomsa390G8sKCt3sdO5qr/JFtYsOhds2H0jGHfJudOraMky3GyI6uD/qxpQSOny6nc/Qi6zaJk5Im/dLtc+2rI884yei89gcZySGDH/LLbcqHOnY+V9lqKz1WXpdfGsO521W7++2x8X7iV2NP/XV81Z5yc0RC8Qqh2GGEQheqEpdKLho+d/fkrUWm5ML3zVF62Pi4KCm1CWpz0JP3SYQAACAASURBVAUsWdnyixMZbXiSkx7sKlFoc+IC1vi6z/2tfcCO26eu+bgPbXN1vV7vGyc/2+JT+83c8Ad9td9ur49QHDt2rEAg/Dhx4sQgQlGvg+6i5RP+al1ow3dPclpPl9FYzXPSE4p6w8Ymh/R4qT7GTPJd47ROfU8okJW/rBN4RT/zYi2ZA3OVDDqlH5+EO+rul2S0/pKTDfQxRvFTPNFPn8fa5dCrc83PdQv3klOf+y3fvJR9+aPxnNf+KC7PP/98M2f6XV56GYuv9Ctxyx9Kt6UxXuKzYqo6urQ+kpUdzuuYKB74LLKlcSrln8eIusZKLuVsREJxC6HYYYSCheMCVhLXQlLqoqHf26nrItQFpc2FC1cXsC7sPj1c2GwUsu++uE7q2K2Tr/vRZ6fuw27XxY8P3tcn63HpG9c3L59TPefab7fXRyjavj9B26wfedSbK+dOKPDTExp+ai41Roinz4P62tpas7ZqJ14apzZK2jnUhoywozaVyGFrku+Sx1+IhLDGnIRnybSVPk/seQJUvW0uyPpcpLurnX7NibrbrePvcj4OP3Rdyl5bWetrk3G96pfdejy+QrSIr8+Zett5PV76J5U+P6/LL42XXeyAH62P261xo7GUij1rxTllFw59XOqbIxghFDuQUHAxsfFR6gLTRU6pC4ULjETLxVPLuQ5dbNq4alnGK2HXsm6v7uNirHUhL9/p9/F9/npfbUdzwU/1yd++DaFvnM9ZcoqP+1LPgXHMj3nVtvsIRdsTim9961szEwrFAd/lo/znnDm03c3hv3xn7DRxrOfp5+gQHt0PcIE/8g9/RHgm+e76p60zJ+aGfO2TdAir8olSMav7NIbSfeccWxrndn1e6HNC53LSgb+1XdoUTx+DHDYp3be67nN3HNf+MA5bfq3KL9mvfcMfDuSkW7Gs/dC5x9jrPk/XVdtEThhFTpiu50Of8OUxkB8pN0ccuuIVQrEDCQWLqYudC16bF+3atGivE5suRvXpYtcY6ZGcNgf0Utc4XcC0o0Pt+pa29NDP4b5KT21bOtpsagNzW2qrbeAbd1buo2TaSvlWj1MM8Is+NiPZVLzoY678ugUZl61jgO1JhILvwNRPKiY9oSBezKFtbj4H+S45YtnmI/1aI+ajddK4WUrFGH3uh/tX2/I+HzOLfca4vi5sSMbn7LHoijP6u7Dp6yPcIKu6fHE59Pm5EqrwxXk9J4+fJ1bk6kNzIq58AZd51f4wpk0PY3V9YdNjIh20e1+bHvlELIRDr9MvP10X7Y4nnqAwnrFaP+EFu7ou0YFMrVe+ygf5lfJi3EwTkxCKlgtumsBFZjbArXLcugjFS391pLx87vRFx9e+cLoc/7Pfmek9FKsc58z9m+XOO++c+LRiUpxI3CR1l+PcSYT3bbZ+9uz5l7MtSrlZ/yN/cQ4IoQihGNswlukiqe9QdDdCuR13JBAKf1Mmd4c/9SNvLXs/8K7e47p/8UOFdwWwNpt5U+YyrWXmcvHm3RUT7tQhFF3907RDHHSn7/LzJBRch+helNLnmfr0ePNYhVCEUAzaeBxMqW/uInzxxReb12/zxsxJB4+TE9/NxTfxWux4LcqTCfkRvAzHSwhFCEUSVTAQDAQDwUAwMBgDIRQB0WAQhdkPZ/aJYWIYDAQDOx0DIRQhFCEUwUAwEAwEA8HAYAyEUAREg0G001l1/M+dYTAQDAQDwzEQQhFCEUIRDAQDwUAwEAwMxkAIxYqA6OTJk+XKK68sl19+ebntttsGAydsfjibTwwTw2AgGFgmDIRQLCmh4Lfou77/ivK2XW8YHX96373lyKHPlBt/7EdHbbuu+K6yZ8+eEIwlxcEybVaZS5JvMLDYGAihWJJE8vCJLzYvTbr2V4+UL3z5lXLw4MHyE1e/pZza/7vl+ROPlVPrR8qpE+vlxOf2l2eOP1GeO7lePv/kwXLPh95drr/++oZQSMd7P7ZevvrKq70kQ6+55aU0en1wfbFLRq+8pd9fm1u/ha8ev5lzbPl/I/hYvRLY/fD+edV9vn3+zMtemx5/mRdEccgLvOpXJmt+fWvOGP1nQpt/aVvshJD1yfoMwUAIxRIRCicCBw4cKD95zQ+Xcyf/ovAXxIcPH25IBkTjkUceKfwZFcD5o1/56XLdddeNyMNTL3yl3HzXU72EQglahIBE3fVWPZKPEjmlyId0zOs1vtuVwP3iU8JlntvlD7Z9XeZFKOr1wk6tWzJaY49N6klUwcDyYyCEYsEJBRs3SZnEqw27LXnzdKGLUNR/OOXnfYSivkPVhlAnS/mFr5JRwsFXtTMHJTvkJMN4jVNJH/PmUOKSHXSoj7raaSOZ8WddjNm9e3cjpz8tkx9+F++xdD3omobs+Bhsok/25M9dd901mgPzwz5/sEQcGcMfHOF3bbPLz651qWMmP/ARux43n5uPwwfORY44Z06HDh1qfJYurZOX6GReeUKx/InD1z31rLcwEEKx4ISChSIRkHDYrLXhawFV9hGKhx56qOzbt685XnrppbF/tOwjFNJdl12EQklK/SSmSYTCE7rskDCVlJSwnTiIYKBfd8OyyVgfg06de6KkTh96pQ//OacdfbRTyq+20sejU+vj/ngdHdjhkF+Kgc+bMR47t9Pmh9rwQfPxOvbcDnGj323KN42nT38HjSz4o485Ku6yK1nktHbqS5mEEwysBgZCKHYAoWCzZgNnI9dmX1+g0xIKEYsHH3ywIRazEAolQiVf+UfSwi8lzDopkmw8ETFeSc7nw3ifJ+M4Rx+l7Hii9rr8k5zO0cPhNpUIGY+85uT+dNVdLzJ+7v7Qh15sI0Nixq7k5afkOO/zs8sf2hmn2Hkd+7Wdtrn6GI8N7SJL2EGX7MhvZBgTQrEayaMPh+lbTQyEUOwAQqEN2zf0+oLtIxR8h2J9ff2iAx2zEArGkThEcriL5VBCIWGSLEmqfpft82AuJDRPSpoTyYp+P9Bz5syZRh47yHrS9roSteT8nDbXS70mOerXePlVl/X83I77wzh0MV/ipvi4vHQr8U/yU/J1yTjFVHV8oc0JBXURCkrNmVLja0Khdmw6cdDc6vbat5yvZpLJuq/OuodQ7ABC4cnF7679Qu0jFP6dibo+K6Fw254828gASYo5+BjqntS8r6u9TsBu1+u1nJ8rydLmNuu666v7dO56afPzejznJGT+spz5uXzb+bR+yheVPs7rIiqS45wDGceUj3FC4XV0OKGoCQnr7SRNNlOuTmLJWq/mWodQLDihIBGx4ZOMHnjggeZOkg28vmD7CEXbEwqSH+RiFkLhiRM/SIh+9yrf5DtJijZPVnWfxlB6suKc+aJfSVn6ONdPRb1e++fntV18V0LFjpK7bFG6b3Xd545fIk/uj8ag3xOt/FLsfN59fkpfW+kx9rrPEzv4QT+H5t/mj75DoT7ksas1od398Dl4e+qrmWCy7qu17iEUC04oSARKUlycdVLSBTuJUBw/fnzsy5h6UtFHKEgOSiiyo1JJCd+UkNSnsk6KtOM/YziUvCXvJYlLctJfJzVP2uojUepXHkp+6tO5++4JXv7Krst3xUG6GQMx4OMMxqnd9dMu8sBcJeMxkU36u/zsWxe34XX0uR3FXj7gP76ura2N1lzxUPx1jqzafM3kc75DsVpJpMZAzld3/UMoFpxQTHtxdhGKs59bKy+fO916PHvoT8onP/KeTb+HYlqflknuzjvvbJ6QDJkTCV2JHD1K5k4ihug/e/Zs87RgUcohc8nY1U1KWfudu/YhFEtEKHbd8nDRmzIfe+yx8tYf+N6y9wPv6j1uvvHqctNNNzWJCFKCDn+fRS7u81/+hFDMGgsRB386gS61z4tQ8OQAvYtSzhqvjNu5CSVrt9prF0KxJISi7ULmC4C33nrrxIOPQ9rGp21nbQ6L8mRCfgQ/Ows/Wa+s11AMhFAsMaEYCo6MzwYTDAQDwUAwMC0GQihCKPJ0IhgIBoKBYCAYGIyBEIqAaDCIpmWvkcudTjAQDAQDy4uBEIoQihCKYCAYCAaCgWBgMAZCKAKiwSDKHcfy3nFkbbO2wUAwMC0GQihWhFCcPHmyXHnlleXyyy8vt912W0jEiqz7tBtB5JI0goFgYCgGQiiWNLHwVsNd339FeduuN4yOP73v3nLk0GfKjT/2o6O2XVd8V9mzZ08IxpLiYOgGkfFJMsFAMDAtBkIoliSR6KVUerHVwYMHy09c/ZZyav/vludPPFZOrR8pp06slxOf21+eOf5Eee7kevn8kwfLPR96d7n++usbQiEd07zYSi9l0iubeR20QKfXhdPHwRsi1eevk+56fbNkN1NCoPS/HvU4+TqvF0jV+nWuV1Njp88fyV+K0uMLUaxfprUZm/UrvjW/tjWXXsbk1dtJQMJDytXCQgjFEhEKJwIHDhwoP3nND5dzJ/+i8Odghw8fLpAMjkceeaQcO3asSfJ9/+XRtxlAEkQUSKBODupXTEuPEpISO8RDOiQza7ldCdz99fltlz/EVjGlPi9CIVKmV4e36ZaM/3+Jxyf11UouWe/VW+8QigUmFNqgPSmwobdt2F3/5QGh0B+BtZV9hKK+Q9UGIb+UXPyuVH0iDRpD6cnO29vqyOoJh+Yv3SRM9VFXu+6c9edgu3fvbuT279/fJFb5hL/EEHknQq6HPs2vzT+1+Rj8RJ/syZ+77rprLLFjnz8Rg3QwZu/evSN/3GaXn7S3/VlZHTP5gY/463FzOz4OnzkXOVKMDh061PgsXZq/l+hkXnlCsXqJxHGQ+uqufwjFAhMKLkw2aREIJS8lWL9w+wjFQw89VPbt29ccL7300hjB6CMUrr+u45f8IAEpMXsiUjKiTXPhdeDI1n2un4SppKQ5O3Fwu4oNNvSRh49Br849UVKnD73Sx5w4px19tMt398/rPh6dnpDlj/vGWOxwyC/FzufNGNrb/HT7dR15zcfr2HM7xI1+tynfNN6JC7KQBfqYo+Iu+5JFTmunvpSrm2Cy9qu19iEUC04o2KjZvEkIXq8v1GkJhYjFgw8+2BCLWQkF9vGJ5KIERBs+ekLxhIu8JyL6lMB9Psi5TiVGJXn6kfdE7XUlasnpHD0cSqzyV3f7yLf547553fXS7ufuD33oxTYyJGbiJHn5KTnO+/x0H+o64xQ7r2O/ttM2Vx+Dj4oN7SJL2ESX7MhvZOr1r/3L+WolmKz3aq13CMWCEwolHSUET8h+sfYRCr5Dsb6+ftHB+FkIhXxSgupLIt6HvCcxEpAnd80HOZKXH8idOXOmSWKMQ9aTttfln+T8nDbXS91jin/q13j5VZfYxC/JuR33h3HIoJt4QCiQdXnp1jpP8lPydck4JXrV8YU2rRdjfC18zsxd4/HVCYXaGe/rqrnV7bVvOV+t5JL1Xr31DqFYcELBRcnmT+JiQ/dN3S/YPkLR9t0Jtc1CKDyZ4IMSoycs+daXlEhEXYSCJCcdKmWHcbR50vZ6LefnSrK0SW9b6fra+mlzvfV5PZ5z1o6PfBQnjW87n9bP2jcf53URFclzzoGMr4GP8bXzOjocA+gRCVPpJE02U65egsmar9aah1DsAELB5s0GzWat5FNfqH2Eou0JBckMUjELoagTofwjGXlCwkclLuqeZKWD/nounqykg2SspIyNWl+bbsnJFufI+VMF4qmEii+Kr2xR1v75OfIieehnjWRH36GQPPo90covjfd59/kpfW0ltqXP6z7Per00/zZ/9IRCfejELnORHffD5+Dtqa9WYsl6r+Z6h1DsAEKhzdyTUX3BTiIUx48fH/sy5jRPKEgOSii1PSU83ZEqESNHXe110lEyo7/ucxskLumoE56SGj4oaXuM9CsPyalP5+6Dx7Sek8t3xUG6NR8+zmCc2l0/7T5nyZCcNVfZJBZdfvati9vwOvrcjtZLPmAfX9fW1kZrrngo/jpHVm2+ZvLZv0NT9+d8NRNN1n011j2EYgcRCk9G9QXaRSjOfm6tvHzudOvx7KE/KZ/8yHvKddddN7oLf+qFr5Sb73qqfPWVV0dtta1VPL/zzjubpxtD5k5CVyJHj5K5k4gh+s+ePdus2aKUQ+aSsauRgLLOy7XOIRQLTih0t+93um0XIYRi1y0PF70p87HHHitv/YHvLXs/8K7e4+Ybry433XRTk4ikw1+Q1WZr1dq4M4dQzDpvEYeaEKp9XoSCJwf4uCjlrPHKuOVKMlnP1VnPEIoFJxRDLka+AHjrrbdOPPg4ZIidjF2MDWNRnkzIj+BiMXCRdcg6bBUGQiiWmFBsFYhiJxtWMBAMBAPBQAhFCEWeTgQDwUAwEAwEA4MxEEIREA0GUe5McmcSDAQDwUAwEEIRQhFCEQwEA8FAMBAMDMZACEVANBhEuTPJnUkwEAwEA8FACMWKEAp+7fG6172uXHXVVeX06dMhESuy7tnks8kHA8HAVmEghGJJE8uHP/zh8kNv/O7ytl1vaI6fufHHy+FHHy73fuIPRm30/dMffFPzgqWtAlzsZHMLBoKBYGA5MRBCsQSE4gtffqV5oRUvtuLlVFys11xzTXngN/59+fz6p8uzTx0tp06slxOf/bPyzIlj5dnjj5czJ46Upz/12+WdV765PP74482bMXmhlevou+j9tdB6DbO38XIlHXo7pL+6edKLuvpst/XVb6F0mfoV1N43zzrz1Mur+vyZp03XpRdlEff3v//9o1dou8y0ddZKrzXXGL1kDf3MT+0qtb7zelGX9KZczuSTdV2+dQ2hWBJCccNvHi28NlsX6dVXX10O/PbPla9//evN35azyR88eLA5jhw5Ul544YXyN08+VK696gfL4cOHR+N+8Z6nR6REuuqyThwkmrYEg02RDSU7kYt5J/ntSOB1XLabULAuEBrKvv/7qP1uO0eHE4q2taTNx7IGkI263WVSX74kkjXNmgoDIRQLTijYnHWnr1JJWYvIE4ouQqE/AWsr+whFnVBkixKf2giEy4hAKLmQ4PjjLNpdrq3uTzpESGSXJMdBLPSUg3h4bLDJH1TRT4Ldv3//6MmB/JK8/EO/EiJ9k+YnvxkvX5gf9j7+8Y+P/KFOW22Hcw76GIcOn2uXn13rQjvj5cv9998/9oRCftKPTa1DbYc+dFFKF+tBPHwOmr9KzQUf+uQknzJJKBhYPgyEUCw4odBFp4ShJKp2yj5C8eKLL5Z9+/Y1x4EDB8b+cbSPULj+uk4C57XeSmCeCCWrBKPExbkSricqyavUPJWUSGRKgLQxllKJUImfUkSLfo8T59KBnMa4nMugG19JpPKrrRTxYaz8cTvyh1I2lawpGcd8JOe+ed39bPNDbejUUwV8o05bm5/yx+0gK0LguhSPvXv3Nv7is8ZjW7L4qfHyKeXyJY2sada0CwMhFDuEUJB06o1cizotoRCxoDx37tzMH3ngiydsT0r4pORKgpGPSp5qQ4eSr2QolZRIUpx7Yqz70KHERsl5mw7GYevMmTNjCc/9lAxt7k9fvR7j5+4Pc4CgoBsZ+UzdyZjmevLkyU4/+/xRYkePdNHmfrXFRzo9Hq5L7Vov+pw4EHeOul16UyYBBQOrgYEQih1AKEgOJHBP4n6B9hGKb3zjG813KNbX18fKId+h8ESOH12JkQQjP+ukxpz4WIJSMtIFcfJD8651uB+ewGs5nYtQuG7q6ME2pfrU5r7VdWSUZOW7zt0fErKeeNCOP7U85yIBIhTyReUkn5wESBdttZ/eR534ygYl/rkuEQr5ja/Mg4PxIkuMcaKBXI7EIBhYHQyEUOyATY+Nm42+K6H0EYq2706obdaPPJSgSTRsFpz7nTZ+4rNvJJ7EaOe8i1AoKft42fE+t4M9xafNP8ZBKPSRQK3bz9sSqPer3mWH8e4P8vjGx0T4QeKlrY6bziEU0/gpP1Q6CfB4t/nJehEP/FHcfN6uC/31fDhXm5MR1bEpv1KuTkLJWq/2WodQLDihIDFwB+kJu75o+whF2xOKZ555pvkuxayEwpONkhDJRX4p0eicUnJKNMg4OZAsuv0ul2SnudeJkT7ZdZu1nJ8jpzGKLf2uC1/1REF+tZXuq+anObk/jJUt2aYNu3oiwLn75nWNRb7ND7X5ujBm0nco5LMIhfvjuuSr5tblj8dDPqVc7QST9V+t9Q+hWHBCwWavuz6V2th1sU5DKPhypp5MqOwjFHVCkS2VSir45P4oSbUlPyUcxogkSJ+Xrlsfd9CPTrflJEBxoqzl/Fz+KZbIo7urfVIc0C1dfGlRj//dH9ePvOZKnaTP0RVH6Zafff54nxMKxU66PIbuv0gMthQPj7/mhB75o7lQan19jt6f+moll6z36q13CMWCE4ppLsouQvHQb72/vHzudOtx7rknyxP/5Zdneg/FND4tk8za2lrzhGHInOoEjy4Sryf3IfrPnj3bEJVFKYfMJWNXLxFlzZdjzUMoloRQXPurR8becnn99deXD77n7WXvB97Ve7z5+76zPPvss5t+U+aqbADcqfPkgXLWOespQH3nPk9CwVMD/FuUctZYZdxyJJas42quYwjFEhCKtov36NGjhT8Em3Ts2bNn5kTZZjdt27ORLMqTCfkRHGwPDhL3xH07MRBCsaSEYjtBFdvZ1IKBYCAYWD0MhFCEUOQJRTAQDAQDwUAwMBgDIRQB0WAQ5U5k9e5EsuZZ82AgGKgxEEIRQhFCEQwEA8FAMBAMDMZACEVANBhENUvNee5cgoFgIBhYPQyEUIRQhFAEA8FAMBAMBAODMRBCMRBEbS8s2gwz5+2EbW8d3IyOecsOndO8/Ym+1bvTyZpnzYOBnYeBEIqBhGIo6EModt5FM3TNMz5rHgwEA8uIgZUlFPqvAv2/QVc56dXIfjfPmw/9vxn8fxD0tkTs6H8s6v9GQIZ/4GQcdvfv3z/2ambkISDynTc4IotO9bl+ACtZzQ8btMtv7Hif/o+h1rOM4M+csqkHA8FAMDA/DKw0oSA5k0AFKJKtEi5t9CmBS6YulZiRZSyJmFKJXDYgGsgynuTPQZ1+1RlXkxAnNCIN0q0+2aVffdKJfg5suX58wZbLSZ/PqZ5vzud38SWWiWUwEAwsEwZCKOZMKPT0AZCIAEA2nFA4gGpC4eMhAEryrq8mDTUBkE7sog89jNc4zhnD0xBK+txWrc/9TT0bYDAQDAQDwUAbBkIo5kwo2ggAgSdJ6+MJl1HyR8aTetu5CIoTA+mGsEAgOJdOEQp9pKESPTVpcNt1HzpzJAbBQDAQDAQDfRhYaUJBYleS7So9+bcF0pOvJ2VkRQDqcd6u5I9MPb4+R5ZjM4Si68mI+13brvtq/3OeTSUYCAaCgWCgxsBKEwqSs+7qCQwJnENBok8JXG116cm3JgAiDi7DeNo5qKNf9Xo85/pOhZ42yB+Ijnyt9btO6hzYQg59jKvHuO26r55zzrORBAPBQDAQDNQYCKHYoo88IA16CuJPPdRO6UldCwUZYBzfhbj99ttHBGdaQqGnGbIt8lKTBrct8uLf55A/KbOJBAPBQDAQDLRhIIRiIKFoC2racrEFA8FAMBAMrBoGVppQcJevO/eu0p8mrBo4Mt9siMFAMBAMBAPTYmBlCcW0AYpcLqZgIBgIBoKBYGAyBkIo8pPI0ZdQc8FMvmASo8QoGAgGgoF2DIRQhFCEUAQDwUAwEAwEA4MxEEIREA0GUdh6O1tPXBKXYCAYWCUMhFCEUIRQBAPBQDAQDAQDgzEQQrFkIOIdEl1vx5yFKc+qj/dabPY9Fnpnht6V0eVv/Q6NLrm05+4wGAgGgoGtw0AIRQhFLysNodi6izEbX2IdDAQDOxkDK0sodDfc9f4JtU96DwV3y/xrJ4fuyGnTH4GpTSDxPtfNHX1tUz7qbZn06zXa6KvbJY8c9o8ePdr8W+nu3bsb3fv372/OscX4mixwjr+Mpzxz5kwjL3347jZoly70+dzwrZ67YlCXmgdPVjj0hMJjIlu1j5y3ydU2cp6NOhgIBoKBS4uBlSYUJDISUhfI6EOGJNoloySqxKqEp3PGizjQ5x9H0EfydB1K2LLLWI1Hp/7bg7raGXPLLbc0etyG68J/ncu3Nln14Rc+uAw6aOOg7v4gB4EQGUBmGkKBvOQUB8XE/16dNs0XOeKITepdcl1rlvZLu6kkvolvMLCaGAihmAOh8IRGklWC5KLy5EefkqJfcHW7dOgJgZK0J/d6jPS5jAiExuucsci7rPspXbUM8sxN411fPb4+d51eh3jIP9rrc8n6fPt0u5zGplzNzS3rnnUPBrYWAyEUcyAUulsGvCQ0Hs/7oacKfpftQK/blTBFKJTAnQAwnnGyo6TsMp7wka/PXRYbToTkn8tQR0Y2VWK7Hq85MEa66lL+yHf6nVBQlw1KkbFad5dcbS/nW7u5JN6JdzCwWhhYaUJBgvKE1VZXEuu6MOrkRmLtGtPVV7crOU8iFPJJiZlxTgC8Hdn6HN/1dKWeh3S7Pq+rX2U9vj6XXF06gaBP54qBCInHyHX3ydW2cr5am1vWO+sdDGwtBlaaUJC8lLDagEcfMiTitn7aPLlxzhj/WIC7b935I6sEjiy6OWjnKQbJUUlfdiEntEu3voOBXmRoZ0zfdyg03nUzDh16etLmN7YhNbLpPlNv81tPG/BN80a263BCIH3o8Hb5LaKGnJ4K9cl12Ux793okNolNMBAMzIqBEIqeR/KzEAoWQomRJx5K2FogEqCehChB0tfWrkRKHzL4o+SuPulSIlc7dvUrD42vfbv99ttH+uo+kQHXx7x0Xtutx6Ob+eEzfX0H5AN92GQcc3E7zGVtbW1EIkR+kNdTHMbXcn0209e/JolP4hMMBAObxUAIRU/Cm4ZQbDbgkc9FGgwEA8FAMLCMGFhpQsEdtO60u0p/irCMALjUc/InL3WM9ZHNpfYh+rN5BwPBQDBw6TGwsoQi4Lr04EqME+NgIBgIBlYHAyEU7+1fOgAAIABJREFUEz7fz8WwOhdD1jprHQwEA8HA7BgIoQih6P3CZC6u2S+uxC6xCwaCgVXCQAhFCEUIRTAQDAQDwUAwMBgDIRQB0WAQrRIDz1xzxxkMBAPBQDsGQih2GKHgVxN6R0QfqPkFhd5N0SeXvvYLI3FJXIKBYCAY2BwGQihCKPKEYodhIJvc5ja5xCvxCga2BgMhFJcomfibHuv3L/j5NO+58Ddv1q+05imE9OmtnN6mpxTeJrlcZFtzkSXOiXMwEAysAgZCKC4hoSD59716epo3ceo10yIGTijqjz/o4wC4lBrTJ7cKIM8cs5kHA8FAMHDpMRBCseCEwv8IiwuiPveLBALRRihchrrL1X05v/QXXWKcGAcDwcAyYiCEYsEJRf10wQlF28cqbYSiT24ZQZ05ZbMOBoKBYGDrMRBCcQkJxTz+K8QJBBeIn/Okwb+D4U8e/COPPrlcdFt/0SXmiXkwEAwsIwZCKC4hoSCpD/0OhZ4uQAoAIDr1s1EnCvquRdsTij65ZQR15pTNOhgIBoKBrcdACMWCEwouCp5K8MsMfs1x++23N08lIBAiEbRDMtbW1kZPLCARtFP2yeWi2/qLLjFPzIOBYGAZMRBCsQMIxTICL3PKhhoMBAPBwHJhIITiEhKKeXyHIhfccl1wWc+sZzAQDCwrBkIoLhGhWFbAZF7ZDIOBYCAYCAbaMBBCEUKRV28HA8FAMBAMBAODMRBCERANBlEbU01b7mCCgWAgGFgtDIRQhFCEUAQDwUAwEAwEA4MxEEIREA0GUe5CdsZdyH333VeuuOKK8qY3vak8+OCDWfdc+8FAMDBXDIRQBFBzBVTIxeKQiwMHDpQ3fu/ry9t2vaE5/tWVbymHHvl0eeTTB8q//GdvHrW/8R99Zzly5EhwkL0gGAgGBmEghCIAGgSgS00geFPopDeOzuoDLwzjRWGbHc/Lwmb5C/jNjOM/XJDfjG/7Hj5bdt3ycHnvx9bLV195tdx6663lQ++7tpz97CfLX514opw6frQ8/cSj5em//Gw5dfzxcvrpJ8vpRz5R/tNNP1LuuOOOxtYv3vN0owNdk2z7C9M8HqwXL1XzQ293Raf3b3aObT4RK9nSm2KRc//odx+9z9vb9E/Tpjfayg98qsfJpvcxf41x3+uxmz3H1g033NC8FK9tLLbmEfs23WpTTLAzyR+NmXfpLwXcs2fP6MV/s9jxvz1gvOt2fGveWlf/e4RZ7O6kMSEUIRQXbXyLBGA2Pr9Y5+WbNvdZNnE2yFmS0LTjtFFtdsOHBEAIFCMIxYffd2159at/W06ePFkeffTRcvDgweY4dOhQeeaZZ8orXzxTPviet5fbbrttNA49kwiFNk35SJJs2zhrOeQlN48kQ6ze8Y53NJt7batOAIpLLdflu+SnKcGR5uU++VhkSDIiFJTCUe2Tj5ulPo/YzmLXx/ictssfYqxrfOg6O56Y2y233DIibI5r6rouPAYem2Wth1CsOKHgImFT4+Kg1KbIBdHGsHWBqE8XKxeIkrT66osK3dihvyYJ2mzpa/MB344ePdr0cefFQdv999/flLLFpoEOSnxq87dukz2N7fPPY0XsJm0MmlfbOI8x/eirY6j4Sk+bb/Khj1B8+9vfLm3HJEKBXcVWdijxlbUklt5e130TR9Y34VrWz7GpNaQdP/xcsrQ5lpDjoN9tS55yWt/xF12sCeMowYrOpVN4cv8Y53GTL/gqOfrlK7ok0xZT+lh7DuGVMYzXtas++cm5cIXc7t27m/GyK/+IB3LIeyw1L9o5JK95d5XYQl7X6cc//vHGZ9qwwzVLn+IofykZy1ND/ECec9mp/VEc8d/1Sb6O2f79+y+KHTY4fG74Ifvywds8RrLV5QP96PY105hlLEMoQiiai9wBrwuRUheSLmxKyfbJeZ82Am1u2sB0Ebts3Yc9XcC1Hi7IWt510T+tv65Hdup54q/6NJe+TUG+tI3DnjZBxVj23Bf0o6fu03q4/T5CgQ/79u0rf/iHfzhGLCYRCtfvdXwikeEXm25bPBQrZBnLPJEnYbRt5K5fMZEN6XAZ6QQf9MuecEUpO5Rqn8Z32UGWsXv37h2tl/pUyq77yPpojZgLa02/fGUs/kiGc/UjL92U4KF+CqNxlLo+hBv0yCZt6EBOGNI59hVn+e5y7h9yjK99cz+pM6b2R3aIAf7U8cK2z0dYavNNcoyRXO2DnyOneXu9zU/65Rv96PHYU9c16zaoIy87dR8+y++6b9nOQyhCKJoLUxcQAAf82hR0zsVy5syZpt1ldUFwMbLxUtKmC1ObEKV0aqPQRaaxPl563RfXSR0ZLnI2FvkkXZSyoz7ppFSffEDGNyjO5a/7wNha1vV6fZpx6GLeHNqQ6jlJJ/okK7/VRzkNoYBU6FhfX5/5Iw+PM7aZh/yXT8h4Wx1z36w1xkvJo8fb67rkavwQI8VJMUXXNL67DeSFBW/3OnY0V/kj28SGQ+2aD6VjDvk2O3VsGSdbjJEdXR/0Y0sJHD9dTufoRdZtEiclTfql2+faV0eecZLRee0PMpJDBj/kl9uUD3XsfK6y1VZ6rLwuvzSGc7erdvfbY+P9xK/Gnvrr+Kp9WcsQihCKsYSsC1WJSyUXDZ+7e/L2i4IL3zdH6WHj46Kk1CaozUEXsGRlyy9OZLThSU56sK9Eoc2JC1jj6z73t/YBO26fuubjPqCjnqvr9XrfOPnZFp/ab+zhD/pqv91eH6E4duxYgUD4ceLEiUGEol4H3UXLJ/zVutCG757ktJ4uo7Ga56QnFPWGjU0O6fFSfYyZ5LvGaZ36nlAgK39ZJ/CKfubFWjIH5ioZdEo/Pgl31N0vyWj9JScb6GOM4qd4op8+j7XLoVfnmp/rFu4lpz73W755KfvyR+M5r/1RXJ5//vlmzvS7vPQyFl/pV+KWP5RuS2O8xGfFVHV0aX0kKzuc1zFRPPBZZEvjVMo/jxF1jZXcspchFCEUF5EELmAlcb8AdNHQ7+3UdRHqgtLmwoWrC1gXdp8eLmw2Ctl3X1wndezWydf96LNT92G36+LHB+/rk/W49I3rm5fPqZ5z7bfb6yMUbd+foG3WjzzqzZVzJxT46QkNPzWXGiPE0+dBfW1trVlbtRMvjVMbJe0cakNG2FGbSuSwNcl3yeMvREJYY07Cs2TaSp8n9jwBqt42F2R9LtLd1U6/5kTd7dbxdzkfhx+6LmWvraz1tcm4XvXLbj0eXyFaxNfnTL3tvB4v/ZNKn5/X5ZfGyy52wI/Wx+3WuNFYSsWeteKcsguHPm7Z6iEUIRQXEQouJjY+Sl1gusgpdaFwgZFouXhqOdehi00bVy3LeCXsWtbt1X1cjLUu5OU7/T6+z1/vq+1oLvipPvnbtyH0jfM5S07xcV/qOTCO+TGv2nYfoWh7QvGtb31rZkKhOOC7fJT/nDOHtrs5/JfvjJ0mjvU8/RwdwqP7AS7wR/7hjwjPJN9d/7R15sTckK99kg5hVT5RKmZ1n8ZQuu+cY0vj3K7PC31O6FxOOvC3tkub4uljkMMmpftW133ujuPaH8Zhy69V+SX7tW/4w4GcdCuWtR869xh73efpumqbyAmjyAnT9XzoE748BvJjVcoQihCKESlw0Oti54LX5kW/Ni3a68Smi1F9utg1Rnokp80BvdQ1Thcw7ehQu76lLT3y132Vntq2dLTZ1AbmttRW28A37qzcR8m0lfKtHqcY4Bd9bEayqXjRx1z5dQsyLlvHANuTCAXfgamfVEx6QkG8mEPb3HwO8l1yxLLNR/q1RsxH66Rxs5SKMfrcD/evtuV9PmYW+4xxfV3YkIzP2WPRFWf0d2HT10e4QVZ1+eJy6PNzJVThi/N6Th4/T6zI1YfmRFz5Ai7zqv1hTJsexur6wqbHRDpo9742PfKJWAiHXqdffrou2h1PPEFhPGO1fsILdnVdogOZWq98lQ/ya1nLEIqWC2JZFzvzunjzW6aYdBGKl/7qSHn53OmLjq994XQ5/me/M9N7KJYpbpnL5q+LO++8c+LTiklxJXGT1F2OcycR3rfZ+tmz51/OtijlZv3fifIhFCEUYxf0TgTxdvlc36HoboRyO+5IIBT+pkzuDn/qR95a9n7gXb3Hdf/ihwrvCiCOm3lT5nbFPXY3TwDmGTPu1CEUQ3RCHHSn73rmSSi4DtG9KKXPc1nrIRQhFIM2hmW9MJZhXi+++GLz+m3emDnp4HHyMsw5c9hesrFI8V+UJxPyY5Fic6l8CaEIoUgiCQaCgWAgGAgGBmMghCIgGgyiS8V2ozd3m8FAMBAM7BwMhFCEUIRQBAPBQDAQDAQDgzEQQhEQDQZR7iB2zh1E1iprFQwEA5cKAyEUIRQhFMFAMBAMBAPBwGAMhFAERINBBNs9efJkufLKK8vll19ebrvttrnovFQsOnpzhxYMBAPBwPwxEEIRQjFT8ue36Lu+/4rytl1vGB1/et+95cihz5Qbf+xHR227rviusmfPnpls5IKf/wWfmCamwUAwcKkwEEIRQjFVsn/4xBeblyZd+6tHyhe+/Eo5ePBg+Ymr31JO7f/d8vyJx8qp9SPl1In1cuJz+8szx58oz51cL59/8mC550PvLtdff31jQzre+7H18tVXXu21q9fc8lIavT64vggko1fe0u+vza3fwleP38w5tvy/EXysXgnsfnj/vOo+3z5/5mWvTY+/zAuiOOQFXvUrkzW/vjVnjP4zoc2/tCVZBgPbh4EQihCK3sSuixMy4ETgwIED5Sev+eFy7uRfFP6C+PDhww3JgGg88sgjhT+jYuwf/cpPl+uuu25k46kXvlJuvuupXkKhBC1CQKLueqseyUeJnFLkQzrm9Rrf7Urgij+lEi7z3C5/sO3rMi9CUa8XdmrdktEae2xS374kktgn9sJACMWKEwo2bpIyiVcbdlvy7iMU9R9O+XkfoajvUAXKOlnKL3yVjBIOvqqdOSjZIScZxmucSvqYN4cSl+ygQ33U1U4byYw/62LM7t27Gzn9aZn88Lt4j6XrQdc0ZMfHYBN9sid/7rrrrtEcmB/2+YMl4sgY/uAIv2ubXX52rUsdM/mBj9j1uPncfBw+cC5yxDlzOnToUOOzdGmdvEQn88oTiiQwx0Xqi4OHEIoVJxRcjCQCEg6btTb8+iLtIxQPPfRQ2bdvX3O89NJLY/9o2Ucoahs67yIUSlLqJzFNIhSe0KWfhKmkpITtxEEEA/26G5ZNxvoYdOrcEyV1+tArffjPOe3oo51SfrWVPh6dWh/3x+vowA6H/FIMfN6M8di5nTY/1IYPmo/Xsed2iBv9blO+aTx9+jtoZMEffcxRcZddySKntVNfysVJKFmL1V6LEIoQimbTZwNnI9dmX28M0xIKEYsHH3ywIRazEAolQiVfkgn+kbTwSwmzTookG09EjFeS8/kw3ufJOM7RRyk7nqi9Lv8kp3P0cLhNJULGI685uT9dddeLjJ+7P/ShF9vIkJixK3n5KTnO+/zs8od2xil2Xsd+badtrj7GY0O7yBJ20CU78hsZxoRQrHbS6sNn+rYXGyEUIRSjO2nf0OsLs49Q8B2K9fX1iw50zEIoGEfiEMnhLpZDCYWESbIkqfpdNuNIYsyDg7onJc2JZCUZleg5c+ZMI48dZD1pe12JWnJ+Tpt0qqxJjto1Xn7VZT0/t+P+MA5dzJe4KT4uL93IiFDID5Xup+TrEjuKqer4QpsTCurYYjylbFBqfE0o1M4YJw6aW91e+5bz7U0miX/iH0IRQtEkI234fnftG0QfofDvTNT1WQmF2/bk2UYG8J2k42Ooe1Lzvq72OgG7Xa/Xcn6uJEub26zrrq/u07nrpc3P6/Gck5D5y3Lm5/Jt59P6KV9U+jivi6hIjnMOZBxTPsYJhdfR4YSiJiSs9zTkR76kTKILBrYGAyEUK04oSERs+CSjBx54YHRnX1+AfYSi7QkFyQ9yMQuh8MSJHyREv3uVb/KdJEWbJ6u6T2MoPVlxTsJCv5Ky9HGun4p6vfbPz2u7+K6Eih0ld9midN/qus8dv0Se3B+NQb8nWvml2Pm8+/yUvrbSY+x1nyd28IN+Ds2/zR99h0J9yGNXa0K7++Fz8PbUtyZhJM6Jcx8GQihWnFCQCJSkAEqdlASeSYTi+PHjY1/G1JOKPkJBclBCkR2VSkr4poSkPpV1UqQd/xnDoeQteS9JXJKT/jqpedJWH4lSv/JQ8lOfzt13T/DyV3ZdvisO0s0YiAEfZzBO7a6fdpEH5ioZj4ls0t/lZ9+6uA2vo8/tKPbyAf/xdW1tbbTmiofir3Nk1eZrJp/zHYoktRoXOV8MTIRQrDihmPZC7CIUZz+3Vl4+d7r1ePbQn5RPfuQ9m34PxbQ+LZPcnXfe2TwhGTInEroSOXqUzJ1EDNF/9uzZ5mnBopRD5pKxi5GAsg7LtQ4hFCEUY4+Uuy5wCMWuWx4uelPmY489Vt76A99b9n7gXb3HzTdeXW666abGhnT4C7K67K1SO3fmEIpZ5yzi4E8n0KX2eREKnhygd1HKWeOVccuVxLKei7OeIRQhFDMnMr4AeOutt048+DgkF/3iXPSzrsWiPJmQH7POI+N2Phazhou5hiEUIRRJ9sFAMBAMBAPBwGAMhFAERINBlLuFxbxbyLpkXYKBYGArMRBCEUIRQhEMBAPBQDAQDAzGQAhFQDQYRFvJgGMrd1zBQDAQDCwmBkIoQihCKIKBYCAYCAaCgcEYCKEIiAaDiLuFkydPliuvvLJcfvnl5bbbbpuLztyFLOZdSNYl6xIMBANtGAihCKGYKfnz7oRd339FeduuN4yOP73v3nLk0GfKjT/2o6O2XVd8V9mzZ89MNtoAm7ZsZMFAMBAMLCYGQihCKKZK9noplV5sdfDgwfITV7+lnNr/u+X5E4+VU+tHyqkT6+XE5/aXZ44/UZ47uV4+/+TBcs+H3l2uv/76xoZ0TPNiK72USa9s5nXQ2kT0unD6OHhDpPr8ddJdr2+W7GZKCJT+16MeJ1/n9QKpWr/O9Wpq7PT5I/lLUXp8IYr1y7Q2Y7N+xbfm17bm0suYvHp7MZOJ1ijl6q5PCEUIxSgZ920EkAEnAgcOHCg/ec0Pl3Mn/6Lw52CHDx8ukAyORx55pBw7dqzR2/dfHn32IAkiCiRQJwf1K6alRwlJiR3iIR2SmbXcrgTu/vr8tssfYquYUp8XoRAp06vD23RLxv+/xOOT+uomsqz9Yqx9CMUKEwpt0J4U2NDbNuw+QqE/Amsr+whFfYeqTUF+Kbn4Xan6RBo0htKTnbe31ZHVEw7NX7pJmOqjrnbdOevPwXbv3t3I7d+/v0ms8gl/iSHyToRcD32aX5t/avMx+Ik+2ZM/d91111hixz5/IgbpYMzevXtH/rjNLj9pb/uzsjpm8gMf8dfj5nZ8HD5zLnKkGB06dKjxWbo0fy/RybzyhGIxkoevTepZEzAQQrHChAIAsEmLQCh5KcH6JtFHKB566KGyb9++5njppZfG/nW0j1C4/rqOX/KDBKTE7IlIyYg2zYXXgSNb97l+EqaSkubsxMHtKjbY0EcePga9OvdESZ0+9Eofc+KcdvTRLt/dP6/7eHR6QpY/7htjscMhvxQ7nzdjaG/z0+3XdeQ1H69jz+0QN/rdpnzTeCcuyEIW6GOOirvsSxY5rZ36UiaZBQOLgYEQihUnFGzUbN4kBK/XF+i0hELE4sEHH2yIxayEAvv4RHJRAqINHz2heMJF3hMRfUrgPh/kXKcSo5I8/ch7ova6ErXkdI4eDiVW+au7feTb/HHfvO56afdz94c+9GIbGRIzcZK8/JQc531+ug91nXGKndexX9tpm6uPwUfFhnaRJWyiS3bkNzL1+tf+5XwxEkvWYTXXIYRixQmFko4Sgidk3xT6CAXfoVhfX7/oYPwshEI+KUH1JRHvQ96TGAnIk7vmgxzJyw/kzpw50yQxxiHrSdvr8k9yfk6b66XuMcU/9Wu8/KpLbOKX5NyO+8M4ZNBNPCAUyLq8dGudJ/kp+bpknBK96vhCm9aLMb4WPmfmrvH46oRC7Yz3ddXc6vbat5yvZhLLui/OuodQrDih4GJk8ydxsaH7pu4Xah+haPvuhNpmIRSeTPBBidETlnzrS0okoi5CQZKTDpWywzjaPGl7vZbzcyVZ2qS3rXR9bf20ud76vB7POWvHRz6Kk8a3nU/rZ+2bj/O6iIrkOedAxtfAx/jaeR0djgH0iISpdJImmykXJ7FkLVZzLUIoQiiazZsNms1ayafeEPoIRdsTCpIZpGIWQlEnQpIL/pGMPCHhoxIXdU+y0kF/PRdPVtJBMlZSxkatr0235GSLc+T8qQLxVELFF8VXtihr//wceZE89LNGsqPvUEge/Z5o5ZfG+7z7/JS+thLb0ud1n2e9Xpp/mz96QqE+dGKXuciO++Fz8PbUVzOBZd0Xa91DKEIoRnfCnozqC3USoTh+/PjYlzGneUJBclBCqe0p4emOVIkYOepqr5OOkhn9dZ/bIHFJR53wlNTwQUlbCY8Y6VceklOfzt0Hj2k9J5fvioN0az58nME4tbt+2n3OkiE5a66ySSy6/OxbF7fhdfS5Ha2XfMA+vq6trY3WXPFQ/HWOrNp8zeSzf4em7s/5YiWYrMdqrUcIRQjFKDl5Mqo3gi5CcfZza+Xlc6dbj2cP/Un55EfeU6677rrRXfhTL3yl3HzXU+Wrr7w6aqttreL5nXfe2TzdGDJ3EroSOXqUzJ1EDNF/9uzZZs0WpRwyl4xdrUSX9d6a9Q6hWHFCobt9v9Ntu/ggFLtuebjoTZmPPfZYeesPfG/Z+4F39R4333h1uemmm5pEJB3+gqw2W6vWxp05hGLWeYs41IRQ7fMiFDw5wMdFKWeNV8ZtTXJJnFcvziEUK04ohlz0fAHw1ltvnXjwccgQOxm7GBvTojyZkB/BxWLgIuuQdRAGQihCKJLsg4FgIBgIBoKBwRgIoQiIBoNI7DRl7lSCgWAgGFhdDIRQhFCEUAQDwUAwEAwEA4MxEEIREA0GUe5IVveOJGuftQ8GggFhIIQihCKEIhgIBoKBYCAYGIyBEIqAaDCIYKf82uN1r3tdueqqq8rp06fnolOsN2XugIKBYCAYWHwMhFCEUMyU/D/84Q+XH3rjd5e37XpDc/zMjT9eDj/6cLn3E38waqPvn/7gm5oXLGUzWPzNIGuUNQoGgoEhGAihCKGYSCi+8OVXmhda8WIrXk4F4K655prywG/8+/L59U+XZ586Wk6dWC8nPvtn5ZkTx8qzxx8vZ04cKU9/6rfLO698c3n88cebN2PyQivX0Qdcfy20XsPsbbxcSYfeDumvbp70oq4+22199VsoXaZ+BbX3zbPOPPXyqj5/5mnTdelFWcT9/e9//+gV2i4zbZ210mvNNUYvWUM/81O7Sq3vvF7UJb0pk0SDgflgIIQihOKijbu+uCAUN/zm0cJrs9V39dVXlwO//XPl61//evO35WzyBw8ebI4jR46UF154ofzNkw+Va6/6wXL48OHRuF+85+kRKZGuuqwTB4mmLcFgU2RDyU7kYt5JfjsSeB2X7SYUrAuEhrLv/z5qv9vO0eGEom0tafOxrAFko253mdTnkxgSx8RxFgyEUKw4oWBz1p2+SiVlAaqPUOhPwNrKPkJRJxTZosSnNgLhMiIQSi4kOP44i3aXa6v7kw4REtklyXEQCz3lIB4eG2zyB1X0k2D3798/enIgvyQv/9CvhEjfpPnJb8bLF+aHvY9//OMjf6jTVtvhnIM+xqHD59rlZ9e60M54+XL//fePPaGQn/RjU+tQ26EPXZTSxXoQD5+D5q9Sc8GHPjnJp0xCDAa2HgMhFCtOKHTRKWEoiaqdso9QvPjii2Xfvn3NceDAgbF/HO0jFK6/rpPAea23EpgnQskqwShxca6E64lK8io1TyUlEpkSIG2MpVQiVOKnFNGi3+PEuXQgpzEu5zLoxlcSqfxqK0V8GCt/3I78oZRNJWtKxjEfyblvXnc/2/xQGzr1VAHfqNPW5qf8cTvIihC4LsVj7969jb/4rPHYlix+arx8Srn1SSMxT8y7MBBCEULRJDWSTr2RCzTTEgoRC8pz587N/JEHvnjC9qSET0quJBj5qOSpNnQo+UqGUkmJJMW5J8a6Dx1KbJSct+lgHLbOnDkzlvDcT8nQ5v701esxfu7+MAcICrqRkc/UnYxpridPnuz0s88fJXb0SBdt7ldbfKTT4+G61K71os+JA3HnqNulN2USXDCwGBgIoQihGN1hehL3C7SPUHzjG99ovkOxvr4+Vg75DoUncvzoSowkGPlZJzUSHh9LUEpGuiBOfmjetQ73wxN4LadzEQrXTR092KZUn9rct7qOjJKsfNe5+0NC1hMP2vGnludcJECEQr6onOSTkwDpoq320/uoE1/ZoMQ/1yVCIb/xlXlwMF5kiTFONJDLkRgEA4uDgRCKbErNxs1G35VQ+ghF23cn1DbrRx5K0CQaNgvO/U4bP0k2vpF4EqOd8y5CoaTs42XH+9wO9hSfNv8YB6HQRwK1bj9vS6Der3qXHca7P8jjGx8T4QeJl7Y6bjqHUEzjp/xQ6STA493mJ+tFPPBHcfN5uy701/PhXG1ORlTHpvxKuTgJJWux2msRQrHihILEwB2kJ+x6U+gjFG1PKJ555pnmuxSzEgpPNkpCJBf5pUSjc0rJKdEg4+RAsuj2u1ySneZeJ0b6ZNdt1nJ+jpzGKLb0uy581RMF+dVWuq+an+bk/jBWtmSbNuzqiQDn7pvXNRb5Nj/U5uvCmEnfoZDPIhTuj+uSr5pblz8eD/mUcrUTWNZ/sdY/hGLFCQWbve76VGpj18U6DaHgy5l6MqGyj1DUCUW2VCqp4JP7oyTVlvyUcBgjkiB9XrpufdxBPzrdlpMAxYmylvNz+adYIo/urvZJcUC3dPGlRT3+d39cP/JZ14zoAAAgAElEQVSaK3WSPkdXHKVbfvb5431OKBQ76fIYuv8iMdhSPDz+mhN65I/mQqn19Tl6f+qLlVyyHqu3HiEUK04oprnouwjFQ7/1/vLyudOtx7nnnixP/Jdfnuk9FNP4tEwya2trzROGIXOqEzy6SLye3IfoP3v2bENUFqUcMpeMXb1ElzXfmjUPoQihGN3Rdl10EIprf/XI2Fsur7/++vLB97y97P3Au3qPN3/fd5Znn31202/K7PJl2dq5U+fJA+Wsc9NTgPrOfZ6EgqcG+Lco5ayxyritSSyJ82rGOYQihGKmRHb06NHmD8H4U7C+Y8+ePTPpz4a0WBvSojyZkB/Bx2LhI+uR9QADIRQhFEn4wUAwEAwEA8HAYAyEUAREg0GUu5PcnQQDwUAwEAyEUIRQhFAEA8FAMBAMBAODMRBCERANBlHuTHJnEgwEA8FAMBBCEUIRQhEMBAPBQDAQDAzGQAhFQDQYRMt4Z8IvV173uteVq666qpw+fToxynUSDAQDwcAEDIRQTAjQMibLzOniR5Mf/vCHyw+98bvL23a9oTl+5sYfL4cffbjc+4k/GLXR909/8E2D3hmR2F8c+8QkMQkGlgMDIRQrSih46VHb640v5YXNq5f1embs1+ez2OaFUOjhtczTjv/qK6+W935svXlR176Hz78B8pprrikP/Ma/L59f/3R59qmj5dSJ9XLis39WnjlxrDx7/PFy5sSR8vSnfru888o3l8cff3xTL+rSa6Y193m9vZL5+uuw6/nLbv3Cq1pu6Lm/ErvPn6F2+sb769R598mQGNdvHdX8WD9/Vbj7w5i2P6NzmdSXI2lmHbvXMYRiBQmFNt+tJBTalLXR1+ezXqSQib7/7WjTK0Lx8IkvjkjI1VdfXQ789s+Vr3/9683fsJOEDx482BxHjhwpQ/+OXbFWktd5m3+baduuBO4+ai2J2Xb5I4KKX9SFM/dz2roTinq92nRLpotsTGs3ct2JKrHZGbEJodgBhEIEQHe4bGq6wEhMatcmqg2Oc/5Min4lXW3+GkNCRlefHv3B1DQbZpuv8kc23/72t5d3v/vdI7/lm/ugtr55urx8a7MvHSr7CIX+2KytHPJnZ7JNid9aK2+nztoqTpJR/PyJDnW1I8/8eXspY3bv3t3o2L9/f3MuvHhsPL6uB134V/tVn/sYbKJP9uTPXXfdNTZP7INHMMgYXjmO37XNLj9p1z+cuj91zOQHPiLncfO5+Th84NyvD+Z06NCh0R+yuU2vo5N55QnFzkh6vnapz3fNQigWnFBog9NGyOaoZKAN0TdCTzR1kpUObdg6n1bPpIuv1ot++aB5KEnW5z5WfcwFm13+0efxUJKTDe9z3/sIBf+aum/fvuY4cODA2D+o9hEK1z+pjl+am8sSAyUlzQU51TUv4uFxJckyVnLSrXPHB3VsIiN9rJPGEHvaKd23uu7j6/WRP+hQnfHY4ZBfwrHPW2vf5mftg58jr/l4HXtuh7jR7zblm8bTJ+KCLGSBPhEl+mVbsshp7dSXcr7JKvFc/HiGUCw4oWCjUvKoLyg2dW2W9GmTV1JQnzZpJQ02QXSy2WqcZHWupEKpjba2X5+jz311u6pLV30un+q7VfnT5h+JyWOgRIUO2al95HxaQiFiQXnu3LkyD0LBevpc3D/i534jyzmxotR6ca5E7XXNX3I6R09tV4mQ8cgLG+5PV931IuPn7g996MU2MiRm7EpefkqO8z4/u/yhnXGKndexX9tpm6uP8djQrqcX2EGX7MhvZBgTQrH4Ca8PQ+kbvn4hFAtOKNjAPEkL9NqU2ez8IFmdOXOm2fS08bHJ066NlM1PhGIzemS7q0S/J0u3q3rtk87RyXifC3Pv8w+dtU0lAOlx/fK7j1B84xvfaL5Dsb6+PlYO+Q6F7OJb21qqn/nKb5W+noxHlnn3EQrJKXacc0inSvfFY6/x8qsutZaSczvuG+OQQTeYg1Ag6/LSjQzzn+Sn5OuScVpr1fGFNvRKnjq2OPc5ExONrwmF2hnjxEFzq9tlK+XwBJUY7qwYhlAsOKHQBktZX1xsiJ7A1a8NWxuhEoA2UicUjJlWj/R3lWzWnqTcruq1Tzp3nZqzdHX51+e77JEoPKEwpo9QtH13Qm1DnlDgQ9ta+bw92Xm71lMYYG6zEIq2WLsd6q677tN57Y+f1+M5x+7tt98+WgfJa138nDlO46d8UenjvA52ZAdZzjmQ8fXwMU4ovM54JxToETlTKczKr5Q7KyFmvYatVwjFghMKNmQ2PjYvwM7mqE2LTZCNjNLltEFrY/Y+dNSEYlo9ky62Wq/7Kh9qn3TuPmCH+WrD9z7pUTxcru7zce57H6Foe0LxzDPPNN+lmJVQ4Ifm4n7UdU9WigHxYV6U6KGd880SCsVGOlgb+UQMlXRli7L2z8+Rb1s7903y6Bdmaavx6fPu81P62krm5f6o7vMUPpHl0Pzb/CG++KI+xY25SLf74XPw9tSHJajEb2fFL4RiwQkFF5Q2Qt0FaXOjjw1T7drotAnqXJs0myFj1M84yUyjZ5qL2331JCIfZK8+r+cioiSbbf7RRyw0f+pun3bNWXoopyEUfDlTTyZU9hEK5qMk77ao44N8VKk41LI+nzrhad3dltaSWOtXHpJTn849Nm1rI99cXom19lO6GcNc+DiDcWp3/bT7fCXjcZFN7HT5SXuXP27D63X8wRFt8gH/8XVtbW2kW9hU/HWOrNrqeOBbvkOxs5JfvYY5H75+IRQ7gFAE6MOB7jHsIhQP/db7y8vnTrce5557sjzxX365XHvVD5bDhw+P7t5/8Z6ni7/Pwu0sQ/3OO+9s7tSHzAXioESOHiVzJxFD9J89e/7lZItSDplLxs73Wk88tzaeIRQhFKPkOOni8ztH3c2q9DvQSXq2u1+EYtctDxe9KfP6668vH3zP28veD7yr93jz931nefbZZ0dPOdCxrISCO3MIxazrJeJQY0Pt8yIUYBAfF6WcNV4Zt7XJL/Gef7xDKEIoZk4Yy3RB8nEBfwg26eC1zss072WYy6I8mZAfyxDTzGH+yXYVYhpCEUKRBBkMBAPBQDAQDAzGQAhFQDQYRKvAvDPH3LEFA8FAMNCPgRCKEIoQimAgGAgGgoFgYDAGQigCosEgCmvvZ+2JT+ITDAQDq4CBEIoQihCKYCAYCAaCgWBgMAZCKAKiwSDaCcz75ZdfLj/+4z9evuM7vqP5e2/eiLkT/I6PubMNBoKBnYKBEIoQiqVNrD/6zneUt+16w+j4tY/87+XIow+XX/rf/tdRG/27d//PSxuDnbIRxc8kzWBg52MghGJFCQUvFfK3F+70i5mXS/GSqWt/9Uj5wpdfaQjCP/6fXlfWP/mRcvb4o+XUscfKqadPlOOfua+cOnm8/NWJvyxnjz1Snrz7/yj/5Pu+p5GXjvd+bL15cVVfTIifXupFOa+XNGGz7xXTfX19/m62j/noNdNbZdN9nNYmGPbXqzOOV2mzJvLf9VJnTP2yrVom5zs/uWUNt34NQyhWkFBo0102QlETgX/8Pa8rf3Xw98sXv/jF5n8uPv3pT5eDBw8WyieeeKJ86UtfKs88sLe88R999+gJxVMvfKXcfNdTvYSCN0iSkCjZtDz5zmMTmzaZzsNWlw6f0yL40+WnEwr954bInfdpvLAfQrH1yUZrkHJ5Yx9CsQMIhTZB3RFrw+TCZNNUuzZJvdqYc/60ye/WtOlqjO7u+vTwh0wc/odPbZsCfqFXf/ok3TqnTz7KD8n4WHTrnNJ967rr5OlCF6HQn3u1lX2EYtpEqrngax0XrYXiLRnpJh7eJ120MddDhw41fzrFH0/p3P8gS3Hy2Hr8pAe9tW/1ueOMdcHeyZMnm1J6fv7nf37syRZrw6H58DflyNZY6fKTscKA+yN9+M1YYdB1u050cN6mS3pZC64HDuFQfSmXN8llbbdubUMoFpxQKMGw8XJhaKPXRssGy0YqOfqVxLSpK1FIR32ujXmSnkkXpvT4pu7+uo/1XPCNuWij51wJlHlwXo93f/oIxfHjx8u+ffuag7k7segjFK6/r47Orn+aZP6KB/HpWhNkNHf0iTRorRiLD3Wf7GrN0UOcGI8sY4gdR98cFFvJoYf40+428UN+KkHTz8HcNFf0SI6+Nj/7/KltCuc+T83NbUJo8Bt5+S87+ISs+6a+lFuXdBLr5Y11CMWCEwpPQvWF6Js+fZyziZMEKLWhKllo49Xm35Y82vQoMdT263N81cZPX22XNmwqqfrc8I2x9D3++OON/7TJV/rkb22X82kJhYgFJcRiKKFQgmvzTfNnnvgoWc49ydJHm+LsybSW8z5saozrOHPmzBihoG/S4XqR9XOvC1uUtHO3z7yoizQwnn6Rmi4/Gdfll9skNsIy8ugTluu6sIUcMpJzv2t/unxI+2TcJEaJkWMghGKKzdYDttV1Nj/fJGVfyYlE6wcbLwmFRKNkw2ZKuzZXNmt0onszemS7q2TjxxdKZNyOxvh81K+7SpV79+4d+cc4/PY5okP6VPYRCr5Dsb6+ftEx63coZFOxU1zVrlJxd9+p478nTOT7CIWeViDn49BT61biVWzpFw7kV1tZJ22343XGMl/ksa+1qGVqQtHlZ5svtLk+jw192FTMu+rI+Zzks8ZPExNkcyQGwcD0GAihWPBNg02RzZiyBjabpBKI9ynRadNUYtMmzGYtQsG4afW4jbZ67WttlzEkABEk+cmdLYeeTDBfybgd6W/r6yMU/hFHXZ/1CYXmpoTqfqruSVVtKj1h0sbctF7e53Xk/NyTqfS2ldPIud7aTt2Hr/ouAn2S9ycUtOt8Gvu1327TY4Oc6/N6Lcc514d/D8SJjeJd28759AkksUqsHAMhFAtOKJS4RAbYQJVQ2TBFNlxOiVobpvex+GzW6EAX59PqceC01V2P+p2s1H4ggw/MQcRI5/K91un6ZIOyj1C0PaH4m7/5m5k/8lB8FT/3o67jr9ZOcWdOnjAZQ5vm7H1eR87PqStp04cddPBX7P5UAz8n+VrPyePsNrGjdZS/8ssxhT31d/mJTca2HW7TY4MsuhVTr+OXPmbRfCTnNtw3b0+9fS0Sl8RlWgyEUHRsaNMGcCvk2FzZrHV3xQYru2yOatcGrs1U50oA2lzVzzjJTKNHNrtK/EKn+4csduWjfJAOzU3t0qFz5Ny3Nv3ITEMoXn311bEvZE76DoUnNflLKZ81J5X1vJH1WCPHXKTDkz5jtRZaL0gWv/JwudonxQvdImXo95hJL+3EVT5w7ofPi4+fGIcv7g/1Nj3yizG1L8j3+elrLX+kD3seG/rxX2OkV+c+B5+39Gp8V5/LpT6Oj8Qj8ZiEgRCKalOdFLD0L+ZF1UUoTt7/m+Xlc6dbjxeOPVIO//4tm34PxU7GAAl3bW1tjEhsdj4keT0J0FgnAGobUp49e7bx8VKXQ3zM2MXcC7Iu27cuIRQhFFMnF7/70125yu2+44NQ1G/KfMP3fFf5zZt/ouz9wLs6j//z536svPkH/kkTA+mo32exTBsUZIJ1nHVOwkD9lGPehAJc4eOlLmeNQ8ZtX9JK7Bc39iEUIRQzJ5dFv7BJnrfeeuvE4/7771/aGCz6GnX5d6mfTEh/l/20L27Sytos7tqEUIRQJJkGA8FAMBAMBAODMRBCERANBlHuGBb3jiFrk7UJBoKBrcJACEUIRQhFMBAMBAPBQDAwGAMhFAHRYBBtFfuNndxpBQPBQDCwuBgIoQihCKEIBoKBYCAYCAYGYyCEIiDaFIh4jfGVV15ZLr/88nLbbbdtamzuLBb3ziJrk7UJBoKBoRgIoQih6CUFvMRo1/dfUd626w2j40/vu7ccOfSZcuOP/eiobdcV31X27NnTq2soWDM+G14wEAwEA4uLgRCKHUYo9KphykkXFi8b4hXKk+S8Xy93uvZXj5QvfPmVcvDgwfITV7+lnNr/u+X5E4+VU+tHyqkT6+XE5/aXZ44/UZ47uV4+/+TBcs+H3l2uv/76xpZ0bOULoub9YiWPSV+97a2Rktdrt6dZK42ZpcQHXruNnT5/ZtE97RhedFW/3Mx94dXYegmal3pdeFu//rOmzQddB+jSa7fb5Nra+rDS19emK22Lm9yyNlu/NiEUS0oolGQ2u9lCBpwIHDhwoPzkNT9czp38i/L888+Xw4cPNyQDovHII4+UY8eONSTij37lp8t11103Ii9PvfCVcvNdT5WvvvLqqO1SXuDblQg8aV7K+fXp1lovMqGQ/+6r2ijB6bRYZa31p2gibfWbO113Xd8urNR+5HzrE15ifmljHkKxAwgFm6Xu6th0qeuul83R/zgMWW2yGqM7R7+r051hfYH1EYr6r7/9vI9Q9G3gfT5prj5fJSTNTUmotuEx052u4rJ79+6xGHoM3B/FTePcH+pqxxds8C+fjJH+/fv3N+dta+Xxdz3omiY5+hhsok/25M9dd9019tSAGPG348SQMXv37h1hx206ptzPOsYeN8YrXmrHTv2fH1o/xUSyxFNrqbaukrHuV9dYj5HiKvuco4M/X4OccOhcf8aGHeociikxwC/XLZl6Tl3+p/3SJrXEd/viG0Kx4IRCm7s2W0o2NzYvbWrayOhT8tTGqXHSw8avcXUC4EL8/9t7u17Lrus88xcYEGO5LdOMYkllOLIQCCCEDkDGRlsCCEqy0gwvaCUXMRAgMNiEmDbk6k5LCsxIQeCYxTgGUjEBpyWlCMiOxfqAqLIoVRWL5mGxiixKxSpCkLok2lKDlAhf+MJ/YDaenX4O35paa+19zj4fe58zLhbm15hjjDnmWGO8a5195poCFKdOnWrHjx+fXa+99totX+6cAhRjN3ifcNDNxEaZuhO0r1+/Pkta0rAmn1SpQwNP7DGUcFy3fHu9kl/SWtde8E87I5e50snfNvTuR+6V/HKt0NFP2euXbWQ4H576BPPUJ+vMRQ6XemmjXDdz6B/SM+X3dfiqj2O9fPp7/tKyHu1m31iZPFwL8nt6+uTJHO2avkKdvXS9OZZ2VY78cr1J1+tQ7f1LbmX7vbd9AYoVBxQELpMXN8hQ8DIo5lOUQTcDYPKBrwklb7xFAYXA4sknn5wBi50AFOph8DbI29+XrNHkmYmgpzOxyJd2T0Ob/kyKyDcJUTov5Wa9528bPlxp79RX/YZ0GupLvoxnO/VhjP1HNjS8nUCu9K5HOtpTeg7pYh9z03b097rYl4DF+eiJ/+aFLo73JbzhI5Dqx2mP2TVtT11Qypwc620hP+2nfn17SJfq2/vkVjbfe5sXoFhjQGFQFSgQ8Kw7JqAYCtjS5o03BSj4DcXGxsZPXMzfDqBgHgEcPUgMJiR1N2CnfvRl0nENmQgM8EnH+u0f4osM7JdzqJO0fDPiPPQTyGS955/tXm94qzuyc3+Uk+vOem+flJP6MAde8MY+AApok16+0LD+eXpK35fMdf8c63Whv9ddWuRz2bZUV/dFHROcjc2FB2PO1a7pK1mHPtvQ55qQDb9+Deoof3Wvcu8TWtl8f21egGINAAUB0WBFaTvr3EgEPJOUQc8gnWNTN90UoMjfTPT17QKK1MWAPRagXZO2oG1iz0QAn6FEMMZXHZRv27Kfl3Kz3tNlG51TJ3n3ZfLrx2wnX/qy3c+njVz+24f1Jf1Qe1E91cVyaB57kk//0KLP2BsKfVWeYyV0SYvsBBhD89Iu6StZZ162+zXpH2lv5vTtIfnVt7+Jruy/N/YvQLHigIIAB0gwgFIKKBwj0BmoxwBF0hoAhxLcFKAYekMBL8DFdgBFBm9ueNZhksukAR2JiR/QZTKC1vUmL/pdm3aBn+smUQwFGOVQMs4c+MCD0nmZnLLe88+2esgDHU2CyHHdyqIc0tG+XCM89YnUR1r4ayf61Esb5bqn9JTfUAkPZLg+aLQf8pzT87cfWi7bUyUytB10Q3LsH7IrugJE0SXrzMk2crQRY/BSxzH7Q1dX2eCw+kABijUIACYMkgYBzeSB09qmz/8uMKg7ZvBNPvb1jj8PUFy6dOmWH2P6pmIKUGSQ7uURmNGdK4O3Sc8x15T0/JeCiT5lmLSYyzpPnDgxo6Nf+l4P20M2Uhd1gI9vRhwjmfpfHtI5ZhsdoUOvTPCpL2NJb+JTP0t5Q8+a+HMG8+xP/vQP2Vb/SJnwH9MzbaweWeY89UKfpHGtrtExdOGyPa9MPxjzZWWhS67RfuYBUtPGucbebshUR+0MX2w/z6/mrafGC4QcBB8oQLEGgGIvHW0MUNz4xon2+s1rg9fLT3+pffEzH9/Xcyj20kZ7Keuxxx6bPUkvI5MkSDKUh8mwT+qOV7m15AYI6f+0Uzbcmg3LXgfDXgUoClBsJhpuagDFkYeeap6UeeHChfa+d72jHfvExyavB++/qz3wwAMzXvLIA7IqYGw9YPAkDaDYru0EDvl2Al72F6DY+p64F4A033zk2w/Hq9y+bct262u7AhQFKOYmLH7Qd/To0bkXfw6pYLC+waD2rvaufKB8YBkfKEBRgKJAQPlA+UD5QPlA+cDSPlCAopxoaSdaBtHW3HoiKh8oHygfOBg+UICiAEUBivKB8oHygfKB8oGlfaAARTnR0k5UTxcH4+mi9rH2sXygfGAZHyhAUYCiAEX5QPlA+UD5QPnA0j5QgKKcaGknWgbRbnXulStX2p133tluu+229sgjj6yV7ltda9HX02L5QPnAOvlAAYoCFCudlDmL4cgv3NHef+T2zetPnvhCO//0V9v9H/7gZt+RO97eHn300ZVeyzoFhtK1Eln5QPnAVn2gAMUBBBQeXNQfaLRV51iWntMZ8wjoRfh5KJYHa505c6Z99K73tqsn/6C9cvlCu7pxvl29vNEuf+Nke+nSs+1bVzbat5870z7/qd9o99577wxQyGORg7U43Gm3DijKY5z7tU+N9bTLtFmfR1PvlczUd1GZ/WmezPOYcvVPvtTxr/328V6nalcSPsw+UICiAMWuPdVvF1AkEDh9+nT79bt/ud288ueNj5OdO3euATK4zp49255//vmZ/lPfEhm7wXn7QUKihCaT79icrfQvmky3wnOrtLmmVdBnTP8EFOwHIALdocePGM+5Ao4CFJXA0y+qvr/+UIBixQEFQZUnaIKqbx7Gnti8maTjo0dczO/fFBiQfTo3eNuPPPgpn1K+BHE+iMTcXhePJEYeNCkXnsrr56k7bxfGAIUfIhsqpwDFoom0T2TqROna1T/thY2xSY7JSxvxESq+98DF2vuPUmln6DNJZv+YzVJP6u4hvNgP5vHbE0r1efjhh2/5vgd7w6WtOB0V2tw/eKc+qWcCgtRHftiDuUM+mX5BHboeQCRP9gLf8qNctHO86vubVMr+h9f+BShWHFBwcxJcTdAEeQLu1E1r8jMZmNxMACYcgjd8KKXtx0wglD3fMVr4TdGqz1DSmAIUp06dasePH59dr7322i1fPZ0CFFO2yjHWM/aRJ3RVX2wxZi9o0s4kUNarrdw72jmmXO0GH+ZBA6375J6l3lnXttLBRyCSMtFDPZFJcmaci7W5VvhIx9iQnim/r/cy9d9cJ3OQp86UAJoEQKxL3oxLr26OVXl4k1nt/f7vfQGKNQAUBnmC8SIB1GCdtARhk2DWuQlNQgRpZUHDGImnTwImqJwHLfMdo51y5AsveUPTX4sCCoHFk08+OQMWywIKbTakm+sUDEhLm3WZZFlLJmrGhkADdDmGzNwreVy/fv0WQNHbaqidfHs5OcaakElJP4CCdVHP9TAuqBnTk3lDuvTyWVfvH/gMdAIE6sjRVx2TLvXu9YG2rrJB+cD++UABijUJQgRUE/u8G8aEl0kqgzS8MrATpGnTT0IhmEOPHJKAcnu+OQ/anm/KdBxeXsrI9UwBCn5DsbGx8RMX85cBFK4L/VMX665TvS3RP5M09IIBeOZY1qHLNnzkaen+QMd+0J/7qW592SftlJN15rFe6JHvXvQ0rD0BhfpZqmevh+3kl7ZhHJnanFIdsh+6XJM6O38Rm6hLlfuXaMr2h8P2BSjWAFAQUBcN4Ny4JsgMtgRpn/qyDr0Jk2BNAlgGUCgDvr0cg4rrSVrHpgDF0G8n7NsuoHDt6KoOfZlJtR/LhMlYJs0cyzp02Ua2ibXnn+1F6JJvL6cfQ1d/i8CY9PmGgn7bi8hPfeXnW5q0DWPJLwFFT0cb4JK/A/F+oEw/7+VX+3Akstrn1djnAhQrDihMeATNL3/5yzNgMS/5CCgItgTj5OGTc4IGArvJXVplUMpHvgbwnhZZ0MJPWvk6RsnND9+hp9spQDH0hgI5gIrtAAp1RN95AQl9tQlJlnWxlqEkrX1yLOvIyjZ1k7a2gcfFixc3/2RCP3rO07VfU9o5ZcLP/VNf9ep9w/ExPZHJ3KErZWIveUHLWrQppWtDL9+KuB7pUgb0yS/Hqj68H2WXsstu+kABipFAuJtG3wpvgqYJnXkEVpP0GB+DMEGZi/l98ibQw4exnp8yGUOe8uVrEDchZbB3Ljx5+k3ejsFPnv0a5gGKS5cu3fJjzEXeUGRSS3lpA3Ua08u1S8da4NXzzqSpfbB9/18dQ/PknXuVNtPuyMXm6pBrUif3lh83Mg9dUh/qQ3zUiznok7pAz/qG9BzTR37IS9vAC/31HdfpmpjnGnLdzPOCdmxMmirfslfZomyx2z5QgCIC1G4bu/jPv6HHAMWNb5xor9+8Nni9/PSX2hc/8/F2zz33bCabF179QXvw8RfaD994c7PvINmfhHvixIml1kaS902AtkkAYN8y5Y0bN2Y67na5jI41d/59WTYqGy3iAwUo1hRQ5JOiT4yWPvUt4gCrRgOgOPLQU82TMi9cuNDe9653tGOf+Njk9eD9d7UHHnhglrzkkedZrNo6l9UHMEHy3y4f3wD4RkA+Ow0o8El473ap/lVW4isf2D8fKECxpoDiMMj7dm0AACAASURBVN00vLY/evTo3Is/hxwmu6zDWnf7zYT818EWpeP+Jbqy/d7YvgBFAYpKwuUD5QPlA+UD5QNL+0ABinKipZ2o0P/eoP+yc9m5fKB8YJV9oABFAYoCFOUD5QPlA+UD5QNL+0ABinKipZ1olRFz6VZPdOUD5QPlA3vjAwUoClAUoCgfKB8oHygfKB9Y2gcKUJQTLe1Ee4n+OX75zjvvbLfddlt75JFH1kr3vbRTydqbJ7Kyc9m5fOAtHyhAUYBipZMyhy8d+YU72vuP3L55/ckTX2jnn/5qu//DH9zsO3LH29ujjz660mupwPNW4ClblC3KBw6eDxSgOICAwmOi9/tYYg5NyqO3FwkgHkrlwVZnzpxpH73rve3qyT9or1y+0K5unG9XL2+0y9842V669Gz71pWN9u3nzrTPf+o32r333jsDFPJY5GCr/oAw2ovouQjN1CFRU2OL8F6UhvV4fPZeyUzdFpXZH93NPI/eVv/kS72O3j54Canf42qv1x4XoChAsWMJtL/5twsoEgicPn26/frdv9xuXvnzxsfBzp071wAZXGfPnm3PP//8TP/tfByMtx+ALkp0z+Tbr2U77UWT6XZ4Lzon17QK+ozpnYCC/QBECO7wo/70VwHHfoPmsfVU/3olwtqvndmvAhQrDCiG3jQskqSdlx8H698UGJA9rtvgbT9yuMnoh4ZSvgRxPvxFf//0SOCnH3lTHwfr53lD83ZhDFD4IbChcgpQLJpI+0SmTpSufche2Bmb5Ji8tBEfB+OLolysvf9YmHaGPpNk9o/ZLPWk7h7Ci/1gXn76m/bDDz98y8fF2G8ubcXppMzv/Sb1ST0TEKQ+8sMezB3ySeQii4s6dD2ASJ7shZ9dTx2Spuo7kyDKjmXHrfhAAYoVBhRsJAHWoG5SmxdEpXOeyc15Jhx49zL6MRMIZc93jBa+U7TqM5Q0pgDFqVOn2vHjx2fXa6+9dstXR6cAxaI3BOvJz4jnPHRVX2yhbXsbQJN2JoGyXumYC1/aOaZc7QYf5kEDrfvknqVuWde20sFHIJIy0UM9kUmCZpyLtblW+EjH2JCeKb+v9zIBDelLyqFUZ0oADXpDr/7yZlx6dXOsykqA5QP75wMFKFYcUBjgCaJZn7ppTEoZbJlvEsw6fExCBOleBsG/TwIG+JwHH+Y7RjvlyNen0DH9FwUUAosnn3xyBiyWBRTaDJ173VynYEBa2qzLJMs8+rQ7Y0OgAbocQ6Zzksf169dvARS9XkPt5NvLyTHWhExK+gEUrIt6rodxQc2Ynswb0qWXj216/8BnoBMgUE+/cUy61LvXB9q6ygblA/vnAwUoVjwImbwMuIKCqZvGOZmkMkjDKwM7QZo2/SQUZECPDJJADyjkm/Og7fmmTMfh5aWMXMsUoOA3FBsbGz9xMX8ZQKG90D91se461dsS/TNJQz8FKAQX0OU8+MjT0v1xP+jX7uo1VPZJO+VknbmsF3rkuxc9DWtPQKF+luo5pAt9yS9twxgytTmlOmQ/dLkmdXb+IjaBtq6yQfnA7vtAAYo1CDYEWAI3wXORAGqCTFp4CEayzk1mwiRYkwCWARTKgG8vxxuaBEFCSlrHpgDF0G8n7NsuoHDt6KoOfZlJtR/LhMlYJs0cyzp02Ua2ibXnn+1F6JJvL6cfQ1d/i8CY9PmGgn7bi8hPfeUnkErbMJb8ElD0dLTx//wdiICGMv28l1/t3U8iZeOysT5QgGINAAVBneRL8CQIu3ljpYACeoKxSdPAKz95UZrcpTXBUcpHvvLpaZGljtLK1zFK9Ibv0NPtFKAYekOBHEDFdgCFOmqHMXuqrzbRfqyFugkTOvq0T45lHbpsUzdpKwseFy9evIU3es7TtV9T2jllIsf9U1/1Ys+UQ+n4mJ7IZO7QlTLTNtDCW5tSKhO9fCvieqRLGalb9ld9eC/KLmWX3faBAhQjgXC3Db8V/gZVk/O8udITlLlI8n3yJtDDj7GeL4Gafi4COSXJQL4mGBNSBnvnwpOn3+TtmLzh2a9lHqC4dOnSLT/GXOQNRSa1lJc2UCfXmnTUXbt0rIX+nncmTe2D7fv/6hiaJ+/cq7SZdkduJuBe11wXP25kHrqkPtSH+KgXc9AndYGe9Q3pOaaP/JCXtoEXa9N3XGfaVf/MdedaoR0bS7qqVyItH9gbHyhAsUaA4jAEzzFAceMbJ9rrN68NXi8//aX2xc98vN1zzz2bAOWFV3/QHnz8hfbDN97c7DtIQYVEfeLEiaXWRpL3TYC2SQBg3zLljRs3ZjrudrmMjjV3b5JN2fng27kAxYoDCp/c8kmfGzOfFH1itPSpbx1vYADFkYeeap6UeeHChfa+d72jHfvExyavB++/qz3wwAOz5CWPPM9iHW0xpTNgguQ/RTM1xlx8yjcC0u40oMAn4b3bpfpXefCTVu3x6u5xAYoVBxR18/z17EyCo0ePtnkXfw4pe61WsNntNxPyr31frX2v/Tic+1GAogBFJeHygfKB8oHygfKBpX2gAEU50dJOVE8jh/NppPa99r18oHwgfaAARQGKAhTlA+UD5QPlA+UDS/tAAYpyoqWdKBFq1euJpXygfKB84HD6QAGKAhQFKMoHygfKB8oHygeW9oECFOVESzvRXj6N8J8eb3vb29oHPvCBdu3atbXSfS/tVLIO5xNi7Xvt+376QAGKAhQrnZQ//elPt19658+09x+5fXb9s/s/0s597an2hT/+L5t9jP39X3z37DTL/byZSnYF8/KB8oHD7AMFKA4goPDQK8r9cu7t6PDdv3pjdqAVB1txOBW633333e3L//5ftG9vfKW9/MLFdvXyRrv89T9rL11+vr186Zl2/fL59uJ///32a3e+pz3zzDOzkzE50Cp5jNmgP057J08iHTqFUj2Uu9v7gw4cnY2cKX3Ua6fLRdfZH6al3hyG1R/opo7Mye+f2F9lJfTygf3zgQIUBSh2BXRsF1D8k9+72Dg226Bw1113tdO//1vtRz/60eyz5fA9c+bM7Dp//nx79dVX23eeO9U+9IFfbOfOnduc9zuff3ETlMirLzkl0pMiTX62e9qttvcjgfc6mpj3C1D0+oy1E1D0+4DuPdCTZgxsjMmp/v1LNGX7w2H7AhQrDihMzB6rTTkv6TmHI7idl8dxm2gck5+B2gAunXPle+zYsdmTY68LfOSpbOYQTEgaJADH7c9AwxuKMUDhR8CGyilAsZXEjv6uPfWi7trRXxrt5VoZo24/bdbMV0OZc999983Wf/LkyVlbG6Rt8mNcyQde7lOvW7ZzDjLhpzz1efzxxzfXwFzk8yE3bMWcsf0d05N+vgnC/CFdWKc08EcPLvr1MdroykfU0IV1JK+sYwdo6g3F4UhSufdVX+09L0Cx4oDCG8jAu8hTmclPIGCizwDumLSUJiOCPnVl9rS2KU2AJpscM2n0fHOe66OcAhTf//732/Hjx2fX6dOnb/ni6BSgSP7z6uil/knL2kxergU669oLG7o/2M4Pb0knb9u5H9SRCY382DfnwI9+ytStr+d8eLoHqU/WmY8cLvXKPXXdzKF/SM9eB9vyY47+gRzGU0/BBjKgBSywVnTXnvKUFjp1c6zK1U42tT8Hf38KUKwJoCAQE2BNMFM3J8HWRAKdyYC5/ZhB32RFyUV/zoOPc00KlAb8rCctc5SBTvIe0n9RQCGwoLx58+a2/+SROqCniTT7qbO21Bta2tiHUnvQFkRk3fVLZxs+vVwTJvOhX2S/1Tf50pft1IcxfQEaEjhypVdP6WhP6an8vpQfc+GfAIA+bZprpj99F9nSqc8Qv152tQ9+8qo9Xr09LkCxBoCCgEviNnnPu5H6oEwyIVmSRAjQycegnwnSAJ7zkNnzTV5ZH6J1LsliDFhMAYof//jHs99QbGxs3FIu8xsK7YhuaRP7LVmbeltiz+vXr8+SHfOhzaSddW0sXbZ7u8A/dWHPlOl89epL90u6lJP6MA8aeONb/okh6eWtz8zTU/osk1+CBuXrZzmGHPuhY0wgos59f8qs+uolmdqTw7MnBSjWAFCYVEhsi9ycBn9K6E008OnHDPo7AShIfMrs5ai3ukDbr2cKUAz9dsK+Zf7kgQ5jbybUGRpsZ9tS27nmTNpZ7+myzdxMoPLuy+TXj9lOvvRlu59PG7mf/exnN/dBevcl24vqqS69/AQNjCW/HMs6dAkovA8EWJQJvlJ21Q9PEqu9Xp29LkCx4oCCgErQnJf08qYiWBNsTVQkCNr0k0h8W8EcaSlpE7SV5ZjJ1La08DWgq6e0Bn9o58lU9ylAMfSG4qWXXpr9lmK7gALdXKs6DJWZ1LRRAjDtkUk76yZm6bKtbRzDpuqEDU3u0ClzSEf7oHff4Zn77p9jpIW/+0efejk/1z2lp/z6Un7oAa/84SZ9KcexnAM/dJQu+adu2V/11UkutReHby8KUKw4oCBBkBTyGgqwefOaSEzqzDUxQWdykCf0zidQk2QYQ84U+IBnJiTlMlfZ8k6+jivTchFAwY8zfTNhOQUoWGufSJWnjtrBNZPUpLHMtZnw++SXshzDPv6Xh7ZwzHbaJu05tk/Qm4DVz1LeroU/ZyDH/uRPf/qSNGkXdYT/mJ5j+sgPHj1Nynad2tU2a7DP9VnCzz+F2Ffl4UtgteertecFKFYcUBymG2YMUJz6D/+yvX7z2uB181vPtWf/67/e1jkU62zbxx57bAYMl1kDwCGBZgKAZfg698aNGzNgttul8qpcreRS+3H49qMAxRoCinxSzKdrn0pJDOt4MwMoPvS752855fLee+9tv/3xX23HPvGxyes9P//T7eWXX97SSZnraCN05gkeQLFd/QUO+XYCXvbnW4ntymAe/rgX5TI61tzDl/Rqz3dvzwtQrCGgOEw3BH8u4INg865HH3102wn2MNlzL9e6228m5L+XaypZu5eMyrbrb9sCFAUoKhGXD5QPlA+UD5QPLO0DBSjKiZZ2onqyWP8ni9rD2sPygfKBZX2gAEUBigIU5QPlA+UD5QPlA0v7QAGKcqKlnWhZVFvz68mofKB8oHxg/X2gAEUBigIU5QPlA+UD5QPlA0v7QAGKcqKlnaieLNb/yaL2sPawfKB8YFkfKECxj4CCQ4X6swCW3dCh+duRw1kEY6cUpgx4c0BS9lW9AlP5QPlA+cDh84ECFAUoBsFAAYrDFwwqAdSelw+UDyzjA4cWUHgqYH/SZN+e9wbBbwrwXQGf6PMkS/vcJBI1MvimAt9ZgD8nH1J6QiHt/P7E2LcNtipn3gmayY+3Dqk7byK0jd+DcC30+5ZiiM61V1nBqnygfKB84OD6wKEGFCRBkvWYgzMGzVQiNgknGCAR22a+oCRpBTTzAIV08vNPDIIM+xeRM7UO+cEfe8BPQIEM644xTl19qE/RMV5X2aB8oHygfODg+kABih0AFPnVwz6pAiL8MiRjggtuKtsk87E3FDk/b8TtyJkCFL2cvp2yE0RkPWmoT431tNU+uEGm9rb2tnzgcPhAAYodABQCBm4aEr1/GrD0TwQk2K0Cih44eGNuR84UoOjlJKDwLYnr6f/E4duKKTr1rvJwBJba59rn8oHD5wOHGlCQ3DNJDtUTAAzdIJl4GScxj83px2z3byjg6VuPnr86OHcIJPRjfVseWfZyst0DoXzz0Ndz7TmWsqp++AJN7XntefnAwfeBQw0oeLImmY85OmPQDCVt52TipY85+RsKkqq/P8gxn+ZJwPRT+qTPHN9q5Bz4Mwbt9evXtyxnah3qA3/koIt6KxMa9Uldsy6g6Om0V5UHP6jUHtcelw8cTh8oQLHDgIIbCZABIOCNh8DAG4y3Bb4JOXbs2Ow/PUjUOeezn/3sLf/lkWMm+e3KUY+hMuWgg2BHcIDeyD9x4sTmWxjXA6iYohuSV32HM+jUvte+lw8cTB8oQLEkoKgb42DeGLWvta/lA+UD5QNb84FDDSh4AvdtwVjpK/x1dyz/pDG0zv4tyrqvtfTfWhAoe5W9ygfKB3bCBw4toNgJ4xWPugnLB8oHygfKB8oH/ocPFKCoA5dGf5RaN0kFyvKB8oHygfKBRX2gAEUBigIU5QPlA+UD5QPlA0v7QAGKcqKlnWhR9Fp09aRTPlA+UD5wcH2gAEUBii0BiitXrrQ777yz3Xbbbe2RRx7Z0twKJAc3kNTe1t6WD5QPFKAoQDEJCjhb4sgv3NHef+T2zetPnvhCO//0V9v9H/7gZt+RO97eHn300UleFXAq4JQPlA+UDxxcHyhAsWaAwoOkKOfdmBxUxQFV8+hy/KnL32tHHnqqfeh3z7fv/tUb7cyZM+2jd723XT35B+2Vyxfa1Y3z7erljXb5GyfbS5eebd+6stG+/dyZ9vlP/Ua79957Z7Lk8c//00b74Rtvbkl+6rKVOmvNb6psZe4ytACu/NR88vJfdRfZq5y31boHiiFnSp+t8t0KfZ6m6rzUhYPPhv5l2YPahsan/p3Z+wCentSq3HnllK9Mjc3jW+MHN1HW3i62twUoDiigMMlsNdgCBhIInD59uv363b/cbl758/bKK6+0c+fOzUAGQOPs2bPt+eefnwGG//Zv/mm75557NsHDC6/+oD34+AuHGlDsVRByr1cZUGiL1NU+Svx0UV8l6futG0GbR8Ynz7F6gYbFksOY/aq/7DfmAwUo1gBQECx9uiPoUvepl+DoMd/0Q2uQdY6Hc+VTnU+GvWNMAYq//du/bWPXFKCYCuBTOrnWXK8JybWZhHoZaTOfdLXLfffdd4sN0wapj3ZzXupD3X50QcbFixdnR5LL/+TJk7P20F6l/ZMPvBZJjjkHPeGnPPV5/PHHN49IZ43Y6KGHHtr8dgxHv+s7KTN9KvXsbZx2Y772sp+96t/euH/aRFrs6V7aN1YyN/Uam5s20q7Kpw2Pp59+egZOACi2fdOFHOpc2hQboFfylqZf05j+1V8J+aD6QAGKFQcUBneDLSXBjeBlUDOQMWbyNHA6Tz4Efuf1CQAnnwIUp06dasePH59dr7322i3gYgpQjN08fcJBNxMbZepO0OaDaOgsDWvySZU6NPDEHkMJx3XLt9cr+SWtde0F/7QzcpkrnfxtQ+9+5F7JL9cKHf2UvX7ZRobz4alPME99ss5c5HCplzbKdTOH/iE9U35fh6/6ONbLp7/nLy3r0W72jZXJw7Ugv6enT57M0a7pK9TZS9ebY2lX5cgv15t0vQ7VLvBwmHygAMWKAwoCl8kLxxwKXgbFfIoy6GYATD7wNaGkwy8KKAQWTz755AxY7ASgUA+Dt0He/r5kjSbPTAQ9nYlFvrR7Gtr0Z1JEvkmI0nkpN+s9f9vw4Up7p77qN6TTUF/yZTzbqQ9j7D+yoeHtBHKldz3S0Z7Sc0gX+5ibtqO/18W+BCzOR0/8Ny90cbwv4Q0fgVQ/TnvMrml76oJS5uRYbwv5aT/169tDulRfAYvD4AMFKNYYUBhUBQoEPOuOCSiGAra06ehTgILfUGxsbPzExfztAArmEcDRg8RgQlJ3A3bqR18mHdeQicAAn3Ss3/4hvsjAfjmHOknLNyPOQz+BTNZ7/tnu9Ya3uiM790c5ue6s9/ZJOakPc+AFb+wDoIA26eULDeufp6f0fclc98+xXhf6e92lRT6XbUt1dV/UMcHZ2Fx4MOZc7Zq+knXosw19rgnZ8OvXoI7yV/cqC0QcNh8oQLEGgIKAaLCitJ11HJeAZ5Iy6Bmkc2zKyacAxdjvJ+jfLqBIXQzYYwHaNWkL2ib2TATwGUoEY3zVQfm2Lft5KTfrPV220Tl1kndfJr9+zHbypS/b/XzayOW/fVhf0g+1F9VTXSyH5rEn+fQPLfqMvaHQV+U5VkKXtMhOgDE0L+2SvpJ15mW7X5P+kfZmTt8ekl99BS4Ogw8UoFhxQEGAAyQYQCkFFI4R6AzUY4AiaQ2AQwluClAMvaGA13YBRQZvbjbWYZLLpAEdiYkf0GUygtb1Ji/6XZt2gZ/rJlEM3dzKoWScOfCBB6XzMjllveefbfWQBzqaBJHjupVFOaSjfblGeOoTqY+08NdO9KmXNsp1T+kpv6ESHshwfdBoP+Q5p+dvP7RctqdKZGg76Ibk2D9kV3QFiKJL1pmTbeRoI8bgpY5j9oeurrLBYfWBAhRrEABMGCQNAprJA6e1TZ//XWBQd8zgm3zs6x1/HqC4dOnSLT/G9K3F1BuKDNK9PAIzunNl8DbpOeaakp7/UjDRpwyTFnNZ54kTJ2Z09Evf62F7yEbqog7w8c2IYyRT/8tDOsdsoyN06JUJPvVlLOlNfOpnKW/oWRN/zmCe/cmf/iHb6h8pE/5jeqaN1SPLnKde6JM0rtU1OoYuXLbnlekHY76sLHTJNdrPPEBq2jjX2NsNmeqoneGL7ef51bz11HiBkIPgAwUo1gBQ7KWjjQGKG9840V6/eW3wevnpL7Uvfubj+3oOxV7aaC9lPfbYY7Mn6WVkkgRJhvIwGfZJ3fEqt5bcACH9n3bKhluzYdnrYNirAEUBis1Ew00NoMiTMi9cuNDe9653tGOf+Njk9eD9d7UHHnhgxkseeUBWBYytBwyepAEU27WdwCHfTsDL/gIUW98T9wKQ5puPfPvheJXbt23Zbn1tV4CiAMXchMUP+o4ePTr34s8hFQzWNxjU3tXelQ+UDyzjAwUoClAUCCgfKB8oHygfKB9Y2gcKUJQTLe1EyyDamltPROUD5QPlAwfDBwpQFKAoQFE+UD5QPlA+UD6wtA8UoCgnWtqJ6uniYDxd1D7WPpYPlA8s4wMFKApQFKAoHygfKB8oHygfWNoHClCUEy3tRMsg2oM894knnmh33HFHe/e73934iNpBXmutrZ5sywfKBwpQFKCoRLdDPnD69On2znf8nfb+I7fPrn9053vb02e/0s5+5XT7h//gPZv97/y5n27nz58vu++Q3SuRVSIrH1gNHyhAseJBzeOM86TDg3TzrML6PIrZY5UXte/xp27MDgHzAC/O6vjUb36o3fj6F9s3Lz/brl662F589mvtxb/4ert66Zl27cXn2rWzf9z+1QO/0j73uc/NAMXvfP7FGQ94zZObhymNHTc9j8fYeH+aZtL1R1Dn2E7W8XEP4ZrSZydlJq9F1omveOy6c9HbQ66GfEj/qoPEViPpuW9V7vx+FKBYcUBx0J1+3QEFgMA9AlB8+jc/1N784f/Trly50r72ta+1M2fOzC6+GfHSSy+1N753vf32x3+1PfLII5vzABPzAAXJKJMV9Wyrw3ZLeO03aN1vQLGI7XpAwb4I7sZOIMW2dZrmzievRfaraPbW7gUoVhxQZML1ScePERGkCGZ8/MonpEwK/ZPTIkFNecjgA1M+MdqvHAKpAbSn6dupU3+Dy1d58He+tAbkfgwdck3I8aNY8uWUT2wEXSZgx+UJTY6PyVQnSkDAGKDwo2l9OQ9QIHfKXsrPRGafZa7NZMcYc3i65mLd2ir9hDp0fJvC/T958uTmnrjnzOeCVrlps7Sl40Ml89VFv/7DP/zDWR/91PGHXg5tLsaYB22udUzPHhCkTvKDBr79epKntoMmdUt+1OWJblN0/bxq720iLHvvjL0LUKwhoDBwEqAIpCZggpuBzqRiYDc4zgtqzpMnN5p9JjpK5WRdfVI/6cZuWHkrTx7KQm/5Cahck7SuKXXp+eaYiUG+8hniKx/1yXVMAQrojx8/3v7oj/7olq+zzgMUyX+qDn9tlnTaSJuwJulcJ6U2cM2UrpHx3Dfa8oDOOUmXNPAmyWO71K2va1vmqk/KUR9KZZrsKZmH/0uXumU99ex1yLZrUIa65HzG/JOH6+Srt+jBpZ7wlZb5+Bplyqv6ziSxsuPq2LEAxRoCCoOWAdmASmkioE6AM4hRZnvsJux5Qpd8aRMoCZDoIT38lakcxg3Ki8rLxHL9+vVNOc5PXfo15Zh6aaukdQz6fj20pXUdyu7LRQAFoMJrY2Nj23/ySNnoP/Z1S3QXKDEHWhIge9aPsX7tQ6k9ejra7KP7QRve7hVtaehLXafq/Zxspz6sAYACb2jUmfrQWvlzUybw1HMRfbAV69UeAgP0yLp89XHGUi7zufr+KR1qbHWSY+3F1veiAMUBBhSCC24Mgu+8BAkdQZN5BlP6COAZuA2Q9Fv3dbWlf2ow+I/dnL28DNIXL178CV3Qy3X1a8qxnm/S9mOuQV3VAXt5Mb9fwxSgeP755xsAIq/Lly8vDSjUfUgf9HOd6k2Z9jL5QYu9XDOlew6PpLMtoEje1J1H6Zh9vc2yDc2QHOyf+tD2jQf9rl29GIcvtgE8CSjUxXKeTvLDH9BLObR9K5F1/UQ6dEA/LnQRBOlfSZd2qPrWE1fZbDVtVoDiAAMKAqlBjDLbYzekCSuDL3WTEvMMkARO2pT+zR05tA3iyl9UnkGagG4CUw48Upd+TTnWryNpHZNvv57UFZ6sJQGV41OAov/thO1l/uTBGnIf1CNLaDJJT42xNm1ASRv6nodt9sPEmnz7unvIvH4s2/IVEGQ79WEOugFSWRv7RR/0uS+2ARSL6Jm6yE/+lPCjH3nyyzpjvZ607fMeyFKevexqr2aCrH3Z2r4UoDiggCKTpgGewDYvoDnP5MIN1fcxlokNnvC2z3YG+7EbU97SOlf5BGfH+sTvXGhdozrkGLLlSymtfB1DFrS5PmmHkvQUoBh6Q/E3f/M3235DwXrG/syRttVGrMm15DpzHazTNZsEtVXSwcs2dM7RxownL2zmG4XUra+nrr2dUx/mKUvZ6pk+nbpl3bnapNfDtutEL9YrPe0xQOEc9B+Tk+tUVpVbS1Rlr/WwVwGKAwoouAEJ8j4dEWAz+I7doAZF5iaN/QkcHDdgmnSktS3dUCktCQgwAP9MGsxR96kx5soDnvJ1HQT+XL8604eeJN2UmzIFKb3+8wAFT/S+mbCc94YCueqc9F5pogAAHX9JREFU8nIv0ZlLoJB01F07NKl7Jj/o4Oma5U/Z02XbxK8O0MNrrD+Tca8nbfcFfvy40T8TpD7JH3r5UCfRczE//W07+rhOdIaXsnIN8k27qis6aA91pNTX5JdjVV+PRFn7tNg+FaBYcUCxXUc2qRjgKDMIbpdvzXvrxhoDFK9983x7/ea1n7j+3+9ea5f+7D9u6xyKdbY7/9aMPy6zBuYDHEjO8hEAkOTt225548b/OFhst8vt6lfz3rrvyhara4sCFAcUUHDT5VO2T08+YdHur90AHHstby+DDYDiyENPNU/K5G/8//hX3teOfeJjk9c9//Mvzc5XQNetnJS5l2vbKVnsP28elkn6AAd8tX/C30lAAX/WvNvlTtm1+KxuUj3Me1OA4gADisPs2Pux9u9///uN0zIXuZZJsPuxtoMuc7ffTMj/oNux1ne4gU4BigIUS78uriByuINI7X/tf/lA+QA+UICiAEUBivKB8oHygfKB8oGlfaAARTnR0k5UTyf1dFI+UD5QPlA+UICiAEUBivKB8oHygfKB8oGlfaAARTnR0k5UTyb1ZFI+UD5QPlA+UICiAEUBigEf4PjmO++8s912223tkUceKRsN2KgSSCWQ8oHygfSBAhQVKCtZ/v+nGR75hTva+4/cvnn9yRNfaOef/mq7/8Mf3Ow7csfb26OPPlo2q/umfKB8oHyg84ECFJ1BEm2ta51TBTlkaRH9ORzI0zTHDhBahM9+0mxH76cuf292KNWHfvd8++5fvdHOnDnTPnrXe9vVk3/QXrl8oV3dON+uXt5ol79xsr106dn2rSsb7dvPnWmf/9RvtHvvvXdmW3l4sNUiNhg68dF5U0c0M2/oWx5T/OS71XKK59TYVuVM0bOnHi2+VzJ7fTwYjmO4P/nJT27eJz3dIm3uMY85h541cZAcB2m5zp4Pc/I48X682vV2YNV8oADFAQMUJqUMXmNOZ1ATUIzRrXr/dgFFAoHTp0+3X7/7l9vNK3/eXnnllXbu3LkZyABonD17tvGxL+zw3/7NP2333HPPJlh74dUftAcff6H98I03N/vG7KW9xxKICYz1JA9PG+1PMp3HL3lspQ7f/pjrrczfCdr9BhTYPD9wxt4sc58koPAedZ9zTNu5twUoCjToE+tQFqBYcUBhYPHDVwYY+3nC4SI4mXjsk5aAZZ9JyaBmPwETHvLCeXsaA6py4I9ezBlLkv1N0OstT/t5swIveCYocpx+5ELjeK+37Sm9eLswBij8kNdQOQUo0HEsEaMTtue7FkM0jLsu6mk3bISd8w3FPH7Od6+wBZe81RWZOZZ7jo2ffvrpmVxk20794ed8eCEP2dnPPPiq01iZe8zeMo/fslAig/Lhhx++JbFjGy7Xg/9Aq58rK/VJPZmrH0k7ZDNooIUm9ezXBo32UIeUDR/avUxlUyKf/eZKXZOm6gU0VtEHClCsCaDIwGJAM8BRGrxMCAYsAy39jsmr52Pgo5RWPjlmwFVmz2fM0Z0HL2jg3fNQt1yT8wze6jKkW+riPHmmXlOA4tSpU+348eOz67XXXrvli6FTgCL5j9VzP6TB1iRp1sUatQ/j0tOXgMK5jsPDviyxUdqpt7c+BI12Sp7UmaNO/Zg6aWv4uB5o0QUZykndsq6/SQcf9ztlood6IpOkyzgXerpW+EjH2JCeKb+vux7XDV94DumpHGjVGX7MSX2ynsA55zAPOcqTd69ftQtQrKIPFKBYE0BhoDXgmBhoG+QIQllPh2O+T04GKYOwvAmI0FBmHT4GWOYig9JAOCYz5WddufkkaZ9BN+X3Y728pGUtaRva6pk6LAooBBZPPvnkDFjsBqBARy7XxXrUFXvQxgYmRcco6c83BjnW83MPh/jRl34hz15uykNn5yBXHny2nfnQpj5T9eQLXbazzpr0QfoBFKyLetoHOnUY05N5YzqlraAxwacu6plykx9y9ee+nj4KjXS5vl7v5F31AhSr6AMFKNYQUBB8MkmaOOjPOg5HkCdxG4QpTQIERwIbgStpmUNfBj0D7BCfXuaYo0sn35QxpUs/Jh+DsGukpE/gZKm81GsKUPAbio2NjZ+4mL/TgIK1mRRdF+twP1wjdEOJi36Tf66Puvy0gyV27+chM/1Cnj1dtuEjT0v9EjrsTr98e/2yjXzn0p9yss4YNoEe+Vw9PW3WnoBC/SxTFvT9pb+7F8hEVq9nynGOMijdP+YO1ZGbPF0b/cxZxHa97tX+yf0sm+yNTQpQDASTVXI+A7OBE92oZ5I0cRCMsg4tfQZPA55BqudNYCMIUmYdPjkXGfCQTy9zzH49z1zHlC6OGZB7eck3eY7pQf8UoBj67YR9Ow0o0DcTkHXWxHptW+a+sw5sY/Lv14udTKr9WD8Pee5njmW9l4fu7knPP9uL0E3J6cfQFRDmnzvUKwEXc2wvIj/1pa6/I4s264RPr0svRxsyJ+VmPW0NHW3u0fy9iPtNmTyhr6tssKo+UIBixW9QAhZJhICkE/V9jJlo+mSbYwSuDFA9H8cpez45ZrA10PW06tmXKc856p1jzBuSJzBiTazDZJa0yafXM/WZAhRDbyjgBajYaUCROmkT1pP91FmXCTLH6B8DFNBhI+2kbeDfz6PP/cyxrKuH8hhLnZADj4sXL96iE/vFlXr3dfdKOni5370O2kl91SvvE/g4PqYnMns9bKuPe4E+8FR26qmclCmdtmfMOmMCPeU4pnzK5Jf9VS9Asao+UIBiDQEFzkSQJICSWE3KOhnBif7+qQc6EoCB2mAmyDh58uRsnkHUoMg4l/3OM5BKNxQU1clS3eB33333bfJ1PQZqZKVMx+lDLmtQXk9rG1rXqnzLeYDi0qVLt/wYc5E3FOhoslVOX07RaEftnHOZl8nbsSl+0LhX2IJL+/bzkNnvJ7bjvzxyTUPz5J22Ro798kUf9kwdXIMlvPVpfrTIPGyiXZJ/z0e9mIPcpIX/mE+gi36kHpTazb1IealnylFP5fMfPa5d+cpKHtKkfOroNjbW01a7QMYq+EABihUHFKvgJPutg8Hd4GowHktMi+g7BihufONEe/3mtcHr5ae/1L74mY9v+xyKRfQ66DTsHYl2mXWSuH3Clw98E/jYv93yxo0bMx1XpdzuOmpeAY299IECFAUolgruvbP6JObTaZY+nfVzFmn3fAUXi8wdogFQHHnoqeZJmRcuXGjve9c72rFPfGzyevD+u9oDDzwws5k88jyLIVnV91ZQB0yQ/LdrkzEwudOAAr9Fx1Upt2uvmveW75Utdt8WBSgKUGw7uB+0G5TX7EePHp178eeQg7b2Ws+twXZV3kyoR+3PrftT9lhNexSgKEBRybF8oHygfKB8oHxgaR8oQFFOtLQT1dPCaj4t1L7UvpQPlA/spQ8UoChAUYCifKB8oHygfKB8YGkfKEBRTrS0E+0lAi5Z9cRVPlA+UD6wmj5QgKIARQGK8oHygfKB8oHygaV9oABFOdHSTrSOTwuvv/56+8hHPtJ+6qd+anbA1o9//ONDaYd13LvSeTWfTmtfal8KUBSgODSJ9IO/9r+09x+5ffP6t5/5P9r5rz3V/s///X/b7GP8vvv+10Njk0oClQTKB8oHdsoHClAcUEDB6ZIcJMWpgjvlLPP4ePgU5SK0nnS5lXnz+DruoVMeXEX/3/2f3tY2vviZduPS19rV5y+0qy9ebpe++kS7euVS++blv2g3nj/bnvu//6/2937+Z2f6y2MrB1ft9AFL6D3Fc2pMW+xEyR55zPReyez1xp85aIpDzT75yU+OHuHdzxtq90dusyaP/Xad/bw6CrsSb+8T1b7VJwpQHFBAQfAdC4y7dRMsCgwM3gKK3dAHMNADgb/7s29r3zzzn9v3vve92QesvvKVr7QzZ840ymeffbb95V/+ZXvpy8faO3/uZzYB0Quv/qA9+PgL7YdvvLnZN6av69ppu+9XAs917jegACDn10Xx72X8JwGF3+Bgjaw5x7SBe7vsCa3yq/LWRFT2OBj2KECx4oDCJE2Q85sW8xIWtB55zVMXX38kEPKtAy76CJA9HX3c2Mo8duzY5lMbtN70OS91cV4G5tQD/gZv+0kM/byeRtmun7WQXOCR8tWPcgpQ+KGvoXIKUKD/2PciWAN25WjpMRr0cg2uX1vJm7XlWNqCtfKxLj4S5kfe+o93aUt4ZPLL/jGbpf2oo5NP7QLU/MQ2fB5++OFbEjt7xeV6OH0UXfQ5ZaQ+qSdzkSUd5ZDNElCknv3a4Kc91SFl63+9zF6+n0tPXZOm6gcjIdY+LrePBShWHFDg4AQ7gqFJlIA4z/GZY3A1IBtQmWvAJ2GZtAyWBlyDbPIyeBOonSed8yin+CcPdMl5Uzz7dfR80iZTgIKjs48fPz674JHAYgpQJP+xeq57iAZbpb3ck34t0LgfyVM6bAb/fswvkmor+GBTQA60zGHvuIb0s899kA4++lPKRA/1RKZvEdTTtcJHOsaG9FT2UOl6XDd84Tmkp3KgVWd4Mif1yTrAB1rAR85hHnKUJ+8hHatvuWRU9lt/+xWgWANAYXDunzqnbkACoIHRYDwUDAmWPsE5TiCmjzFkUPaJL8fVw3kGfef2/F2P/HNe1pmfupM80NF1mUxMDOpBuSigEFhQAix2E1Cor/ZxbbQzyaI/fe4HY7716OlyDHs6J3lcv379FkCRdhqrJ19osp1194SSfgAF66IuaGA+44KaMT2ZN6ZP2goaE3zqop4pN/khV1/p6/q3vKXL9fV6J++qr38yrD1cfg8LUKwBoDDIkZhNRvOcn4Bo4jUY98kGfvQZNB1HRsoikPYBV5BAyTj65DzrQ/xJAvAbmtfLSt17PWmzRoN/2mQKUPAbio2NjZ+4lv0NBfL7BJc6qW/aTvv187Cf+5FjWe/lYbuetz7APGzOuHxTt76OfOf2cnodsD/0yHdPexrWnoBiTM9eD9v6AXLoQyayej1TjnNSlr7C3KE6vJOna6OfOYvYTp2rXD5BlQ3Xy4YFKNYAUBDgDIoZ5KduNgKhtAbWDIZT48qjRAaBNAGFcqVzzDblFH+TG3zhlfOyzljqTrJgDa7DBI0sdbKcAhT5J46+vttvKEyq6mnZJ2Ds4DpzLOvMzXYmSfkOlYvQJd9eTj+Grv7GgDHp800B/bYXkd/rrR8gizH2HD69Lr0cbciclJv1tDV0tLl38vci3n+UybPXs9rrlQBrv3Z2vwpQrDigMGkSxL785S/PgMVQAu1vjKmEDi0BtQcCBkoCKoHT4D1E61jKyXlDc+RP0Ec2NOiS81yva8wxk4p8etq0wRSgGHpD8Z3vfGfX/+SBfqzLtWkH1tgnRvpcZ45lHX7Zpm7SVhY8+FGufzKhH7tre9pDl7aWLvc5ZTLXfVBf+qDJPYaP42N6InNIF/rUB7vQRh94Kjv1VE7KlE7bM2adMYGechxLfZJf9ld92IfKLofPLgUoRgLqqtwMBLFM7gQ6gcCUjiZi5p48eXIWzA20zDPAMg4/EpFvNJxr8EaHlKlOzE3dct4Uf4M2c9EJ/ZJPzs1+57kO6YaC/yKA4s0337zlB5nzfkPRJ9Ih+8+jcQ2siwtbwqefhy37dbI//X91DM2Tt/sJ/9wz+dKP7dShXw+82Xf48aNF5mFz7Z78ez7qxRzmJy1y9JV+DF2G9lO76ZMpL/VMOeqpDP4Dx7UrX1nJQ5reHug2NtbTVvvwJdPa879uBShWHFCUk24vMI0Biit/+nvt9ZvXBq9Xnz/bzv3nh7Z9DsU67hWJlES7jO4kbp/w5SOgYMy+ZcobN27M+KxKucxaau727umy2+rbrQDFmgIKn7B4+uovn7oO8w0IoDjy0FMtT8q8/Wff3n7vwY+2Y5/42Oj1737rw+097/p7s+Qlj/6ArINkV8AEyX+7a/LJvn/LsdOAAh9Hx1Upt2uvmrf6SbH2aPt7VIBiTQFFOf3WnZ7kefTo0bnXn/7pn247wda+bH1fFrHZqryZUI9FdC6a3fGFsuvq2rUARQGKSp7lA+UD5QPlA+UDS/tAAYpyoqWdqJ4YVveJofam9qZ8oHxgr3ygAEUBigIU5QPlA+UD5QPlA0v7QAGKcqKlnWiv0G/JqSet8oHygfKB1fWBAhQFKApQlA+UD5QPlA+UDyztAwUoyomWdqJ1fGLgvz3e9ra3tQ984APt2rVrh9IG67hvpfPqPp3W3tTeFKAoQHEokumnP/3p9kvv/Jn2/iO3z65/dv9H2rmvPdW+8Mf/ZbOPsb//i++eHfNcwbGCY/lA+UD5wNZ8oADFAQUUHHzVHza0mzfH2AFHQzKh5ShnxrYyb4jXUN93/+qN2YFWHGzF4VTQ3H333e3L//5ftG9vfKW9/MLFdvXyRrv89T9rL11+vr186Zl2/fL59uJ///32a3e+pz3zzDPth2+82TjQKnkMyer78kjofmw77aFTKOXTH0dt/06XHmGNT03ps9Nyk59+wsFWjz766FJHYMMrv23i+uCdR8z38vM7KTlW9a0lnbLXwbVXAYoDCCgMvqsIKAzeu3maJ4Din/zexfbCqz/YfPty1113tdO//1vtRz/60eyz5STHM2fOzK7z58+3V199tX3nuVPtQx/4xXbu3LnNeb/z+Rc3Qcm8QMiaSEo7aff9SuC5VvdsPwEFsvUZ6st8UyMBhaDMPRviLc0Y2EhbVf3gJsva2/l7W4BixQEFAY4klZfBb8jBDf7SE4TlYcKjFHRIJ0/7eYPAh5YYN5Ajz3HnwTv7ez7S0W9gto+kwJcwCdTOg5d6QpeJw3UcO3Zs86NVOU97TAGK/nPl2Z4CFFOJ3XWhN9eQTurmGnJtOV/bwMd++rARtsIe991332xf/OhbvwfQ50eykg9jU/qpZ85BJvyUpz6PP/74LfuDb/AZc2zFnLF9Sh9KPenPNwfq0ttMPdARmvSXXFvOQ2faeX8gm4+tobO8lJklPKGpNxTzE0rareqHz14FKFYcUHhTGggXeUoyYBtcDawEXviZLOinTb98nWsih4djznOMeSYE50Ev3RB/16EuOU9d5NnT9utI+dqJcgpQfP/732/Hjx+fXadPn77la6NTgCL5T9XRSbv3dKzVpKSNoLeuXVmnNscGfnhLOm1nG3ptlTaXH/o4Bzr6KXv9sg2987W7ctQndWMucnL/3cdc95SeKb+vIzv1sY68lIPdoE2Z6uYcxgQu0AIWGBMoMa58aaFz7xyr8vAlzNrz6T0vQLEmgILAScAzMUw5NkGQwMoc6AiGPqHlPOkykNqnnJxrAoPe4Cw/5ymTfvuSvwlF/tIwrx+DB/0mV3VRRo6pB+WigEJgQXnz5s2l/+SBbNalfqkTdfrTbqyHNuumdB7toaSt/aWzDR8uEyuysKtJE3rt3es01E6+jGc7dWMMvsiGhsSMXOnVUzraU3oO6WIf87Rd1nt70x5aa85J29Cf9wY6Kke9oWFOAYrpZOJeVXl47VSAYg0ABcGMpGpinXfDSm9A74OmiVt+0FmfN1deBOEEFjlvir9jBv2cl3XXmLopm5LxHJOecgpQ/PjHP579hmJjY+OWcid+Q4HsPsGlXuir3SwBAdevX58lMdeVSTvrJmrpsq1t5EvpnqqXY85P3bLuHkmXclIf5kDDmtk7/3SQ9PLVLvP0lL4vmWeit44uCcSYg431LUrXTOl8dBVsyQudmc+YwIExeWV/r1u1D28Crb2/de8LUKwBoDAwEiwXcWCCH8lEegIjAZWS+X0bOpPPvLnKN+nAl/k5b4q/8zJQq2s/hqzUbYqvelFOAYr8zURf3+0/ebAW15369gkYO0y9oXAfcx59Jszk3deTdz9mO/nSl+1+Pm3k8psb1pf0Q+1F9VQXy5yXdeypHGhpc0GTb2xyDr4qoMg682kLKOCTgIS694l6VXlrQil7HG57FKBYcUBhos7gOO+mdY6BlmCagCLHSQjwNlDmGHJyrrQE2n4s52XdOfK3LY+khSf9rrWnTV2gZX3ype01BSiG3lC89NJLs99S7DagYK0mK9dKMmadlKyPftpbBRTaSh7YRjtiU31BWZTaa6iEXoCSdk/dnAf/3AcBiPNz3VN6ym+oRAf5ZT3XqS8xzuX6h/QRUDgGPXJZi3JSj1xD9lf9rfuubFG2KEARiWgVbwgCZv+UNBTwUneDJPOg5VfxCSigJXDK1/8aIKgalE1A9OVcx50LH/jZ77wx/imbgM+v7ElGzstxZMif/l4X5mQig4ZrEUDBjzO38oZiKJEqL0v0zbXkGHXXwNr6hMcYNCnLvWSd/peHdI7Zdg/gnXYxibtnSW9i7fWUN3PwIf6cwTz7kz/96ZPSpA8oEzljetI/pk/KyDr8Uo62VwdtceLEiU3e2kP724bWvt4e6JZgsB+vdiXT8oG/bgUoVhxQlJNuPVCNAYpT/+FfttdvXhu8bn7rufbsf/3XS51DsY579dhjj80AzDK69yDKZJ4gYhn+N27cmAGtVSmXWUvN3fr9XDZbH5sVoFhDQJFPeD51WuaT4mG9EQEUH/rd87eccnnvvfe23/74r7Zjn/jY5PWen//p9vLLL2/7pMx1sjlP5gCK7eoscOh9zv6dAhT4NjquSrlde9W89UmMtVfb26sCFGsIKMrZt+7s/LmAD4LNuzjWuey7dfvups1W5c2EeuzmWov3avle7cfW9qMARQGKSqDlA+UD5QPlA+UDS/tAAYpyoqWdqFD81lB82avsVT5QPnAQfaAARQGKAhTlA+UD5QPlA+UDS/tAAYpyoqWd6CAi7VpTPUGWD5QPlA9szQcKUBSgKEBRPlA+UD5QPlA+sLQPFKAoJ1raiQrFbw3Fl73KXuUD5QMH0QcKUKwhoNjp//M/iI5da6qAXT5QPlA+sLc+UICiAEW9oVhDH6hAubeBsuxd9i4fmO8DhxZQ+JTvCZNjZX8K4JBT5bcEqEvDSYHJ15MDKeHL9xEY5/sB9PF9BNp+j2CIjtMN1V1+eXLm2LcI1KnK+TdF2ahsVD5QPlA+sHUfONSAguRPgh5zHMagIYGP0Zj0oeECJJDg+48JARIEJ8wBOFAKDgQC9GU9AQa6qA+8oEVHAQk6Mq6cMZ2rf+s3StmsbFY+UD5QPjDtAwUodhBQTDkbyd9En6CBOYAA30oARPziYk/n2PXr12e8GB+jmQJKU3rW2PQNU/Yp+5QPlA+UDwz7QAGKJQEFjgUY4E1Cvk2gH6BgP2UCCuvSjQGKpBsDFCmDen5auhx/2PHLLmWX8oHygfKBnfWBQw0oSNZ9Mu7bmdDnOZ9/vhh6c0CfvLIOz0XfUPg2on9DId95+tX4zt48Zc+yZ/lA+UD5wFs+cKgBBYl86k8Di/yGgjcL8MGp8jcUJn94CDRM/FsBFAAc6OGPHC750Q///A0F+vgbjHL0txy9bFG2KB8oHygf2F0fKECx5J88TO6+2fBPF9nPnyBOnDhxy28jBBc4OCDBef5ZA6AAYOD3FFzwd468BRrM8T9E6s8du3vDVEAq+5YPlA+UDwz7QAGKJQHFbjoWgEEQsZtyivfwzVF2KbuUD5QPlA8s7gOHGlCQrH2zMFbuZ0IvQLG4I9dNX7YqHygfKB/YXx84tICiHG9/Ha/sX/YvHygfKB84WD5QgKKOXR49tKtu9oN1s9d+1n6WD5QP7KYPFKAoQFGAonygfKB8oHygfGBpHyhAUU60tBPtJuIt3vVEVT5QPlA+sB4+UICiAMWOAYonnnii3XHHHe3d7353e/LJJ3eMbwWT9QgmtU+1T+UDh9sHClAUoNh24j99+nR75zv+Tnv/kdtn1z+6873t6bNfaWe/crr9w3/wns3+d/7cT7fz589vW04FqcMdpGr/a//LB9bDBwpQFKBYONEff+pGO/LQU+2f/6eN9sM33mxHjx5tn/rND7UbX/9i++blZ9vVSxfbi89+rb34F19vVy890669+Fy7dvaP27964Ffa5z73uZmc3/n8izMe8NqrILFf/36bh5T1a50a62mXabN2T07dK5mpb3+Sq2OeMOshbUP/ts2/bHPMPPr342P/zp38tnPIm3qpZ5b75UepQ9XXI7Ee1n36/wBNNFcIGG0VSwAAAABJRU5ErkJggg==;" parent="ihkdVbjDrNtI75KqLu5v-49" vertex="1">
                    <mxGeometry width="372" height="396.4736842105263" as="geometry"/>
                </mxCell>
                <mxCell id="ihkdVbjDrNtI75KqLu5v-35" value="" style="rounded=1;whiteSpace=wrap;html=1;fillColor=none;strokeWidth=3;strokeColor=#675CFF;" parent="ihkdVbjDrNtI75KqLu5v-49" vertex="1">
                    <mxGeometry x="169.21804511278197" y="84.77954144620811" width="153.8345864661654" height="30.828924162257497" as="geometry"/>
                </mxCell>
                <mxCell id="ihkdVbjDrNtI75KqLu5v-36" value="" style="rounded=1;whiteSpace=wrap;html=1;fillColor=none;strokeWidth=3;strokeColor=#675CFF;" parent="ihkdVbjDrNtI75KqLu5v-49" vertex="1">
                    <mxGeometry x="183.203007518797" y="159.9963139329806" width="153.8345864661654" height="30.828924162257497" as="geometry"/>
                </mxCell>
                <mxCell id="ihkdVbjDrNtI75KqLu5v-37" value="soft link" style="edgeStyle=orthogonalEdgeStyle;rounded=0;orthogonalLoop=1;jettySize=auto;html=1;entryX=0.559;entryY=-0.025;entryDx=0;entryDy=0;entryPerimeter=0;" parent="ihkdVbjDrNtI75KqLu5v-49" source="ihkdVbjDrNtI75KqLu5v-35" target="ihkdVbjDrNtI75KqLu5v-36" edge="1">
                    <mxGeometry relative="1" as="geometry"/>
                </mxCell>
                <mxCell id="ihkdVbjDrNtI75KqLu5v-50" style="edgeStyle=orthogonalEdgeStyle;rounded=0;orthogonalLoop=1;jettySize=auto;html=1;" parent="1" source="ihkdVbjDrNtI75KqLu5v-40" target="ihkdVbjDrNtI75KqLu5v-46" edge="1">
                    <mxGeometry relative="1" as="geometry"/>
                </mxCell>
                <mxCell id="ihkdVbjDrNtI75KqLu5v-51" style="edgeStyle=orthogonalEdgeStyle;rounded=0;orthogonalLoop=1;jettySize=auto;html=1;" parent="1" source="ihkdVbjDrNtI75KqLu5v-40" target="ihkdVbjDrNtI75KqLu5v-47" edge="1">
                    <mxGeometry relative="1" as="geometry"/>
                </mxCell>
            </root>
        </mxGraphModel>
    </diagram>
</mxfile>